M48
; DRILL file {KiCad 8.0.5} date 2024-10-09T06:28:01+0200
; FORMAT={-:-/ absolute / metric / decimal}
; #@! TF.CreationDate,2024-10-09T06:28:01+02:00
; #@! TF.GenerationSoftware,Kicad,Pcbnew,8.0.5
; #@! TF.FileFunction,Plated,1,2,PTH
FMAT,2
METRIC
; #@! TA.AperFunction,Plated,PTH,ViaDrill
T1C0.400
; #@! TA.AperFunction,Plated,PTH,ComponentDrill
T2C0.600
; #@! TA.AperFunction,Plated,PTH,ComponentDrill
T3C0.800
; #@! TA.AperFunction,Plated,PTH,ComponentDrill
T4C1.100
; #@! TA.AperFunction,Plated,PTH,ComponentDrill
T5C2.200
%
G90
G05
T1
X83.8Y-50.0
X83.8Y-62.4
X83.8Y-74.8
X91.8Y-50.0
X91.8Y-62.4
X91.8Y-74.8
X99.4Y-62.4
X99.4Y-74.8
X99.4Y-87.0
X99.6Y-50.0
X103.6Y-96.4
X107.4Y-62.4
X107.4Y-74.8
X107.4Y-87.0
X107.6Y-50.0
X115.4Y-50.0
X115.4Y-62.4
X115.4Y-74.8
X115.4Y-87.0
X118.8Y-64.5
X119.8Y-64.5
X120.4Y-88.6
X120.4Y-96.4
X121.4Y-72.6
X122.3Y-44.35
X122.5Y-58.25
X123.006Y-47.845
X123.25Y-44.35
X124.5Y-58.25
X125.2Y-44.4
X125.5Y-91.0
X125.5Y-92.0
X125.511Y-87.585
X125.6Y-45.35
X125.75Y-76.8
X125.8Y-48.6
X125.875Y-53.085
X126.2Y-62.8
X126.2Y-67.6
X126.5Y-77.5
X126.747Y-56.905
X128.7Y-44.35
X128.7Y-45.35
X129.114Y-56.893
X130.0Y-54.25
X130.8Y-44.3
X131.0Y-54.25
X131.8Y-44.3
X132.25Y-97.75
X132.25Y-98.75
X133.2Y-89.8
X133.6Y-60.2
X136.638Y-44.681
X137.654Y-44.69
X137.668Y-42.926
X139.2Y-49.8
X139.2Y-62.4
X139.2Y-74.8
X139.2Y-87.0
X145.283Y-40.645
X145.288Y-44.704
X146.05Y-74.93
X146.304Y-40.64
X147.05Y-74.93
X147.2Y-49.8
X147.2Y-62.4
X147.2Y-87.0
X155.0Y-49.8
X155.2Y-62.4
X155.2Y-74.8
X155.2Y-87.0
X162.8Y-62.4
X162.8Y-74.8
X163.0Y-49.8
X170.8Y-49.8
X170.8Y-62.4
X170.8Y-74.8
T3
X123.19Y-61.732
X123.19Y-64.272
X123.19Y-66.812
X123.19Y-69.352
X123.19Y-71.892
X123.19Y-74.432
X123.19Y-76.972
X123.19Y-79.512
X123.19Y-82.052
X123.19Y-84.592
X123.19Y-87.132
X123.19Y-89.672
X123.19Y-92.212
X123.19Y-94.752
X130.81Y-61.732
X130.81Y-64.272
X130.81Y-66.812
X130.81Y-69.352
X130.81Y-71.892
X130.81Y-74.432
X130.81Y-76.972
X130.81Y-79.512
X130.81Y-82.052
X130.81Y-84.592
X130.81Y-87.132
X130.81Y-89.672
X130.81Y-92.212
X130.81Y-94.752
T4
X81.28Y-48.872
X81.28Y-55.372
X81.28Y-61.318
X81.28Y-67.818
X81.28Y-73.66
X81.28Y-80.16
X85.78Y-48.872
X85.78Y-55.372
X85.78Y-61.318
X85.78Y-67.818
X85.78Y-73.66
X85.78Y-80.16
X89.154Y-48.872
X89.154Y-55.372
X89.154Y-61.318
X89.154Y-67.818
X89.154Y-73.66
X89.154Y-80.16
X93.654Y-48.872
X93.654Y-55.372
X93.654Y-61.318
X93.654Y-67.818
X93.654Y-73.66
X93.654Y-80.16
X97.028Y-48.872
X97.028Y-55.372
X97.028Y-61.318
X97.028Y-67.818
X97.028Y-73.66
X97.028Y-80.16
X97.028Y-85.956
X97.028Y-92.456
X101.528Y-48.872
X101.528Y-55.372
X101.528Y-61.318
X101.528Y-67.818
X101.528Y-73.66
X101.528Y-80.16
X101.528Y-85.956
X101.528Y-92.456
X104.902Y-48.872
X104.902Y-55.372
X104.902Y-61.318
X104.902Y-67.818
X104.902Y-73.66
X104.902Y-80.16
X104.902Y-85.956
X104.902Y-92.456
X109.402Y-48.872
X109.402Y-55.372
X109.402Y-61.318
X109.402Y-67.818
X109.402Y-73.66
X109.402Y-80.16
X109.402Y-85.956
X109.402Y-92.456
X112.776Y-48.872
X112.776Y-55.372
X112.776Y-61.318
X112.776Y-67.818
X112.776Y-73.66
X112.776Y-80.16
X112.776Y-85.956
X112.776Y-92.456
X117.276Y-48.872
X117.276Y-55.372
X117.276Y-61.318
X117.276Y-67.818
X117.276Y-73.66
X117.276Y-80.16
X117.276Y-85.956
X117.276Y-92.456
X136.652Y-48.872
X136.652Y-55.372
X136.652Y-61.318
X136.652Y-67.818
X136.652Y-73.66
X136.652Y-80.16
X136.652Y-85.956
X136.652Y-92.456
X141.152Y-48.872
X141.152Y-55.372
X141.152Y-61.318
X141.152Y-67.818
X141.152Y-73.66
X141.152Y-80.16
X141.152Y-85.956
X141.152Y-92.456
X144.526Y-48.872
X144.526Y-55.372
X144.526Y-61.318
X144.526Y-67.818
X144.526Y-73.66
X144.526Y-80.16
X144.526Y-85.956
X144.526Y-92.456
X149.026Y-48.872
X149.026Y-55.372
X149.026Y-61.318
X149.026Y-67.818
X149.026Y-73.66
X149.026Y-80.16
X149.026Y-85.956
X149.026Y-92.456
X152.4Y-48.872
X152.4Y-55.372
X152.4Y-73.66
X152.4Y-80.16
X152.4Y-85.956
X152.4Y-92.456
X152.472Y-61.318
X152.472Y-67.818
X156.9Y-48.872
X156.9Y-55.372
X156.9Y-73.66
X156.9Y-80.16
X156.9Y-85.956
X156.9Y-92.456
X156.972Y-61.318
X156.972Y-67.818
X160.274Y-48.872
X160.274Y-55.372
X160.274Y-73.66
X160.274Y-80.16
X160.346Y-61.318
X160.346Y-67.818
X164.774Y-48.872
X164.774Y-55.372
X164.774Y-73.66
X164.774Y-80.16
X164.846Y-61.318
X164.846Y-67.818
X168.148Y-48.872
X168.148Y-55.372
X168.148Y-61.318
X168.148Y-67.818
X168.148Y-73.66
X168.148Y-80.16
X172.648Y-48.872
X172.648Y-55.372
X172.648Y-61.318
X172.648Y-67.818
X172.648Y-73.66
X172.648Y-80.16
T5
X78.232Y-39.116
X93.218Y-103.5
X160.782Y-103.5
X175.514Y-39.116
T2
G00X122.68Y-38.314
M15
G01X122.68Y-37.514
M16
G05
G00X122.68Y-42.644
M15
G01X122.68Y-41.544
M16
G05
G00X131.32Y-38.314
M15
G01X131.32Y-37.514
M16
G05
G00X131.32Y-42.644
M15
G01X131.32Y-41.544
M16
G05
M30
