%TF.GenerationSoftware,KiCad,Pcbnew,8.0.5*%
%TF.CreationDate,2024-10-09T06:28:00+02:00*%
%TF.ProjectId,pocketboard,706f636b-6574-4626-9f61-72642e6b6963,rev?*%
%TF.SameCoordinates,Original*%
%TF.FileFunction,Drillmap*%
%TF.FilePolarity,Positive*%
%FSLAX45Y45*%
G04 Gerber Fmt 4.5, Leading zero omitted, Abs format (unit mm)*
G04 Created by KiCad (PCBNEW 8.0.5) date 2024-10-09 06:28:00*
%MOMM*%
%LPD*%
G01*
G04 APERTURE LIST*
%ADD10C,0.050000*%
%ADD11C,0.200000*%
%ADD12C,0.100000*%
%ADD13C,0.110000*%
%ADD14C,0.220000*%
G04 APERTURE END LIST*
D10*
X7763232Y-3531677D02*
X17612178Y-3530190D01*
X17933000Y-3851012D02*
X17931547Y-9004031D01*
X17803181Y-9274916D02*
X16410113Y-10668248D01*
X16139228Y-10796614D02*
X9275000Y-10795974D01*
X8992686Y-10695198D02*
X7571184Y-9270885D01*
X7442817Y-9000000D02*
X7442409Y-3852499D01*
X16410113Y-10668248D02*
G75*
G02*
X16139228Y-10796615I-270883J221628D01*
G01*
X9275000Y-10795974D02*
G75*
G02*
X8992688Y-10695196I-34830J348244D01*
G01*
X7442409Y-3852499D02*
G75*
G02*
X7763232Y-3531679I320821J-1D01*
G01*
X7571184Y-9270885D02*
G75*
G02*
X7442822Y-9000000I221646J270885D01*
G01*
X17612178Y-3530190D02*
G75*
G02*
X17933000Y-3851012I2J-320820D01*
G01*
X17931546Y-9004031D02*
G75*
G02*
X17803181Y-9274916I-350006J1D01*
G01*
D11*
D12*
X8360000Y-4980000D02*
X8400000Y-5020000D01*
X8400000Y-4980000D02*
X8360000Y-5020000D01*
X8360000Y-6220000D02*
X8400000Y-6260000D01*
X8400000Y-6220000D02*
X8360000Y-6260000D01*
X8360000Y-7460000D02*
X8400000Y-7500000D01*
X8400000Y-7460000D02*
X8360000Y-7500000D01*
X9160000Y-4980000D02*
X9200000Y-5020000D01*
X9200000Y-4980000D02*
X9160000Y-5020000D01*
X9160000Y-6220000D02*
X9200000Y-6260000D01*
X9200000Y-6220000D02*
X9160000Y-6260000D01*
X9160000Y-7460000D02*
X9200000Y-7500000D01*
X9200000Y-7460000D02*
X9160000Y-7500000D01*
X9920000Y-6220000D02*
X9960000Y-6260000D01*
X9960000Y-6220000D02*
X9920000Y-6260000D01*
X9920000Y-7460000D02*
X9960000Y-7500000D01*
X9960000Y-7460000D02*
X9920000Y-7500000D01*
X9920000Y-8680000D02*
X9960000Y-8720000D01*
X9960000Y-8680000D02*
X9920000Y-8720000D01*
X9940000Y-4980000D02*
X9980000Y-5020000D01*
X9980000Y-4980000D02*
X9940000Y-5020000D01*
X10340000Y-9620000D02*
X10380000Y-9660000D01*
X10380000Y-9620000D02*
X10340000Y-9660000D01*
X10720000Y-6220000D02*
X10760000Y-6260000D01*
X10760000Y-6220000D02*
X10720000Y-6260000D01*
X10720000Y-7460000D02*
X10760000Y-7500000D01*
X10760000Y-7460000D02*
X10720000Y-7500000D01*
X10720000Y-8680000D02*
X10760000Y-8720000D01*
X10760000Y-8680000D02*
X10720000Y-8720000D01*
X10740000Y-4980000D02*
X10780000Y-5020000D01*
X10780000Y-4980000D02*
X10740000Y-5020000D01*
X11520000Y-4980000D02*
X11560000Y-5020000D01*
X11560000Y-4980000D02*
X11520000Y-5020000D01*
X11520000Y-6220000D02*
X11560000Y-6260000D01*
X11560000Y-6220000D02*
X11520000Y-6260000D01*
X11520000Y-7460000D02*
X11560000Y-7500000D01*
X11560000Y-7460000D02*
X11520000Y-7500000D01*
X11520000Y-8680000D02*
X11560000Y-8720000D01*
X11560000Y-8680000D02*
X11520000Y-8720000D01*
X11860000Y-6430000D02*
X11900000Y-6470000D01*
X11900000Y-6430000D02*
X11860000Y-6470000D01*
X11960000Y-6430000D02*
X12000000Y-6470000D01*
X12000000Y-6430000D02*
X11960000Y-6470000D01*
X12020000Y-8840000D02*
X12060000Y-8880000D01*
X12060000Y-8840000D02*
X12020000Y-8880000D01*
X12020000Y-9620000D02*
X12060000Y-9660000D01*
X12060000Y-9620000D02*
X12020000Y-9660000D01*
X12120000Y-7240000D02*
X12160000Y-7280000D01*
X12160000Y-7240000D02*
X12120000Y-7280000D01*
X12210000Y-4415000D02*
X12250000Y-4455000D01*
X12250000Y-4415000D02*
X12210000Y-4455000D01*
X12230000Y-5805000D02*
X12270000Y-5845000D01*
X12270000Y-5805000D02*
X12230000Y-5845000D01*
X12280569Y-4764507D02*
X12320569Y-4804507D01*
X12320569Y-4764507D02*
X12280569Y-4804507D01*
X12305000Y-4415000D02*
X12345000Y-4455000D01*
X12345000Y-4415000D02*
X12305000Y-4455000D01*
X12430000Y-5805000D02*
X12470000Y-5845000D01*
X12470000Y-5805000D02*
X12430000Y-5845000D01*
X12500000Y-4420000D02*
X12540000Y-4460000D01*
X12540000Y-4420000D02*
X12500000Y-4460000D01*
X12530000Y-9080000D02*
X12570000Y-9120000D01*
X12570000Y-9080000D02*
X12530000Y-9120000D01*
X12530000Y-9180000D02*
X12570000Y-9220000D01*
X12570000Y-9180000D02*
X12530000Y-9220000D01*
X12531134Y-8738498D02*
X12571134Y-8778498D01*
X12571134Y-8738498D02*
X12531134Y-8778498D01*
X12540000Y-4515000D02*
X12580000Y-4555000D01*
X12580000Y-4515000D02*
X12540000Y-4555000D01*
X12555000Y-7660000D02*
X12595000Y-7700000D01*
X12595000Y-7660000D02*
X12555000Y-7700000D01*
X12560000Y-4840000D02*
X12600000Y-4880000D01*
X12600000Y-4840000D02*
X12560000Y-4880000D01*
X12567489Y-5288525D02*
X12607489Y-5328525D01*
X12607489Y-5288525D02*
X12567489Y-5328525D01*
X12600000Y-6260000D02*
X12640000Y-6300000D01*
X12640000Y-6260000D02*
X12600000Y-6300000D01*
X12600000Y-6740000D02*
X12640000Y-6780000D01*
X12640000Y-6740000D02*
X12600000Y-6780000D01*
X12630000Y-7730000D02*
X12670000Y-7770000D01*
X12670000Y-7730000D02*
X12630000Y-7770000D01*
X12654653Y-5670503D02*
X12694653Y-5710503D01*
X12694653Y-5670503D02*
X12654653Y-5710503D01*
X12850000Y-4415000D02*
X12890000Y-4455000D01*
X12890000Y-4415000D02*
X12850000Y-4455000D01*
X12850000Y-4515000D02*
X12890000Y-4555000D01*
X12890000Y-4515000D02*
X12850000Y-4555000D01*
X12891427Y-5669289D02*
X12931427Y-5709289D01*
X12931427Y-5669289D02*
X12891427Y-5709289D01*
X12980000Y-5405000D02*
X13020000Y-5445000D01*
X13020000Y-5405000D02*
X12980000Y-5445000D01*
X13060000Y-4410000D02*
X13100000Y-4450000D01*
X13100000Y-4410000D02*
X13060000Y-4450000D01*
X13080000Y-5405000D02*
X13120000Y-5445000D01*
X13120000Y-5405000D02*
X13080000Y-5445000D01*
X13160000Y-4410000D02*
X13200000Y-4450000D01*
X13200000Y-4410000D02*
X13160000Y-4450000D01*
X13205000Y-9755000D02*
X13245000Y-9795000D01*
X13245000Y-9755000D02*
X13205000Y-9795000D01*
X13205000Y-9855000D02*
X13245000Y-9895000D01*
X13245000Y-9855000D02*
X13205000Y-9895000D01*
X13300000Y-8960000D02*
X13340000Y-9000000D01*
X13340000Y-8960000D02*
X13300000Y-9000000D01*
X13340000Y-6000000D02*
X13380000Y-6040000D01*
X13380000Y-6000000D02*
X13340000Y-6040000D01*
X13643799Y-4448064D02*
X13683799Y-4488064D01*
X13683799Y-4448064D02*
X13643799Y-4488064D01*
X13745397Y-4448997D02*
X13785397Y-4488997D01*
X13785397Y-4448997D02*
X13745397Y-4488997D01*
X13746800Y-4272600D02*
X13786800Y-4312600D01*
X13786800Y-4272600D02*
X13746800Y-4312600D01*
X13900000Y-4960000D02*
X13940000Y-5000000D01*
X13940000Y-4960000D02*
X13900000Y-5000000D01*
X13900000Y-6220000D02*
X13940000Y-6260000D01*
X13940000Y-6220000D02*
X13900000Y-6260000D01*
X13900000Y-7460000D02*
X13940000Y-7500000D01*
X13940000Y-7460000D02*
X13900000Y-7500000D01*
X13900000Y-8680000D02*
X13940000Y-8720000D01*
X13940000Y-8680000D02*
X13900000Y-8720000D01*
X14508335Y-4044465D02*
X14548335Y-4084465D01*
X14548335Y-4044465D02*
X14508335Y-4084465D01*
X14508800Y-4450400D02*
X14548800Y-4490400D01*
X14548800Y-4450400D02*
X14508800Y-4490400D01*
X14585000Y-7473000D02*
X14625000Y-7513000D01*
X14625000Y-7473000D02*
X14585000Y-7513000D01*
X14610400Y-4044000D02*
X14650400Y-4084000D01*
X14650400Y-4044000D02*
X14610400Y-4084000D01*
X14685000Y-7473000D02*
X14725000Y-7513000D01*
X14725000Y-7473000D02*
X14685000Y-7513000D01*
X14700000Y-4960000D02*
X14740000Y-5000000D01*
X14740000Y-4960000D02*
X14700000Y-5000000D01*
X14700000Y-6220000D02*
X14740000Y-6260000D01*
X14740000Y-6220000D02*
X14700000Y-6260000D01*
X14700000Y-8680000D02*
X14740000Y-8720000D01*
X14740000Y-8680000D02*
X14700000Y-8720000D01*
X15480000Y-4960000D02*
X15520000Y-5000000D01*
X15520000Y-4960000D02*
X15480000Y-5000000D01*
X15500000Y-6220000D02*
X15540000Y-6260000D01*
X15540000Y-6220000D02*
X15500000Y-6260000D01*
X15500000Y-7460000D02*
X15540000Y-7500000D01*
X15540000Y-7460000D02*
X15500000Y-7500000D01*
X15500000Y-8680000D02*
X15540000Y-8720000D01*
X15540000Y-8680000D02*
X15500000Y-8720000D01*
X16260000Y-6220000D02*
X16300000Y-6260000D01*
X16300000Y-6220000D02*
X16260000Y-6260000D01*
X16260000Y-7460000D02*
X16300000Y-7500000D01*
X16300000Y-7460000D02*
X16260000Y-7500000D01*
X16280000Y-4960000D02*
X16320000Y-5000000D01*
X16320000Y-4960000D02*
X16280000Y-5000000D01*
X17060000Y-4960000D02*
X17100000Y-5000000D01*
X17100000Y-4960000D02*
X17060000Y-5000000D01*
X17060000Y-6220000D02*
X17100000Y-6260000D01*
X17100000Y-6220000D02*
X17060000Y-6260000D01*
X17060000Y-7460000D02*
X17100000Y-7500000D01*
X17100000Y-7460000D02*
X17060000Y-7500000D01*
X12298000Y-3791400D02*
G75*
G02*
X12238000Y-3791400I-30000J0D01*
G01*
X12238000Y-3791400D02*
G75*
G02*
X12298000Y-3791400I30000J0D01*
G01*
X12298000Y-3831400D02*
X12298000Y-3751400D01*
X12238000Y-3751400D02*
G75*
G02*
X12298000Y-3751400I30000J0D01*
G01*
X12238000Y-3751400D02*
X12238000Y-3831400D01*
X12238000Y-3831400D02*
G75*
G03*
X12298000Y-3831400I30000J0D01*
G01*
X12298000Y-4209400D02*
G75*
G02*
X12238000Y-4209400I-30000J0D01*
G01*
X12238000Y-4209400D02*
G75*
G02*
X12298000Y-4209400I30000J0D01*
G01*
X12298000Y-4264400D02*
X12298000Y-4154400D01*
X12238000Y-4154400D02*
G75*
G02*
X12298000Y-4154400I30000J0D01*
G01*
X12238000Y-4154400D02*
X12238000Y-4264400D01*
X12238000Y-4264400D02*
G75*
G03*
X12298000Y-4264400I30000J0D01*
G01*
X13162000Y-3791400D02*
G75*
G02*
X13102000Y-3791400I-30000J0D01*
G01*
X13102000Y-3791400D02*
G75*
G02*
X13162000Y-3791400I30000J0D01*
G01*
X13162000Y-3831400D02*
X13162000Y-3751400D01*
X13102000Y-3751400D02*
G75*
G02*
X13162000Y-3751400I30000J0D01*
G01*
X13102000Y-3751400D02*
X13102000Y-3831400D01*
X13102000Y-3831400D02*
G75*
G03*
X13162000Y-3831400I30000J0D01*
G01*
X13162000Y-4209400D02*
G75*
G02*
X13102000Y-4209400I-30000J0D01*
G01*
X13102000Y-4209400D02*
G75*
G02*
X13162000Y-4209400I30000J0D01*
G01*
X13162000Y-4264400D02*
X13162000Y-4154400D01*
X13102000Y-4154400D02*
G75*
G02*
X13162000Y-4154400I30000J0D01*
G01*
X13102000Y-4154400D02*
X13102000Y-4264400D01*
X13102000Y-4264400D02*
G75*
G03*
X13162000Y-4264400I30000J0D01*
G01*
X12319000Y-6133200D02*
X12319000Y-6213200D01*
X12279000Y-6173200D02*
X12359000Y-6173200D01*
X12319000Y-6387200D02*
X12319000Y-6467200D01*
X12279000Y-6427200D02*
X12359000Y-6427200D01*
X12319000Y-6641200D02*
X12319000Y-6721200D01*
X12279000Y-6681200D02*
X12359000Y-6681200D01*
X12319000Y-6895200D02*
X12319000Y-6975200D01*
X12279000Y-6935200D02*
X12359000Y-6935200D01*
X12319000Y-7149200D02*
X12319000Y-7229200D01*
X12279000Y-7189200D02*
X12359000Y-7189200D01*
X12319000Y-7403200D02*
X12319000Y-7483200D01*
X12279000Y-7443200D02*
X12359000Y-7443200D01*
X12319000Y-7657200D02*
X12319000Y-7737200D01*
X12279000Y-7697200D02*
X12359000Y-7697200D01*
X12319000Y-7911200D02*
X12319000Y-7991200D01*
X12279000Y-7951200D02*
X12359000Y-7951200D01*
X12319000Y-8165200D02*
X12319000Y-8245200D01*
X12279000Y-8205200D02*
X12359000Y-8205200D01*
X12319000Y-8419200D02*
X12319000Y-8499200D01*
X12279000Y-8459200D02*
X12359000Y-8459200D01*
X12319000Y-8673200D02*
X12319000Y-8753200D01*
X12279000Y-8713200D02*
X12359000Y-8713200D01*
X12319000Y-8927200D02*
X12319000Y-9007200D01*
X12279000Y-8967200D02*
X12359000Y-8967200D01*
X12319000Y-9181200D02*
X12319000Y-9261200D01*
X12279000Y-9221200D02*
X12359000Y-9221200D01*
X12319000Y-9435200D02*
X12319000Y-9515200D01*
X12279000Y-9475200D02*
X12359000Y-9475200D01*
X13081000Y-6133200D02*
X13081000Y-6213200D01*
X13041000Y-6173200D02*
X13121000Y-6173200D01*
X13081000Y-6387200D02*
X13081000Y-6467200D01*
X13041000Y-6427200D02*
X13121000Y-6427200D01*
X13081000Y-6641200D02*
X13081000Y-6721200D01*
X13041000Y-6681200D02*
X13121000Y-6681200D01*
X13081000Y-6895200D02*
X13081000Y-6975200D01*
X13041000Y-6935200D02*
X13121000Y-6935200D01*
X13081000Y-7149200D02*
X13081000Y-7229200D01*
X13041000Y-7189200D02*
X13121000Y-7189200D01*
X13081000Y-7403200D02*
X13081000Y-7483200D01*
X13041000Y-7443200D02*
X13121000Y-7443200D01*
X13081000Y-7657200D02*
X13081000Y-7737200D01*
X13041000Y-7697200D02*
X13121000Y-7697200D01*
X13081000Y-7911200D02*
X13081000Y-7991200D01*
X13041000Y-7951200D02*
X13121000Y-7951200D01*
X13081000Y-8165200D02*
X13081000Y-8245200D01*
X13041000Y-8205200D02*
X13121000Y-8205200D01*
X13081000Y-8419200D02*
X13081000Y-8499200D01*
X13041000Y-8459200D02*
X13121000Y-8459200D01*
X13081000Y-8673200D02*
X13081000Y-8753200D01*
X13041000Y-8713200D02*
X13121000Y-8713200D01*
X13081000Y-8927200D02*
X13081000Y-9007200D01*
X13041000Y-8967200D02*
X13121000Y-8967200D01*
X13081000Y-9181200D02*
X13081000Y-9261200D01*
X13041000Y-9221200D02*
X13121000Y-9221200D01*
X13081000Y-9435200D02*
X13081000Y-9515200D01*
X13041000Y-9475200D02*
X13121000Y-9475200D01*
D13*
X8166891Y-4926091D02*
X8166891Y-4848309D01*
X8089109Y-4848309D01*
X8089109Y-4926091D01*
X8166891Y-4926091D01*
X8166891Y-5576091D02*
X8166891Y-5498309D01*
X8089109Y-5498309D01*
X8089109Y-5576091D01*
X8166891Y-5576091D01*
X8166891Y-6170691D02*
X8166891Y-6092909D01*
X8089109Y-6092909D01*
X8089109Y-6170691D01*
X8166891Y-6170691D01*
X8166891Y-6820691D02*
X8166891Y-6742909D01*
X8089109Y-6742909D01*
X8089109Y-6820691D01*
X8166891Y-6820691D01*
X8166891Y-7404891D02*
X8166891Y-7327109D01*
X8089109Y-7327109D01*
X8089109Y-7404891D01*
X8166891Y-7404891D01*
X8166891Y-8054891D02*
X8166891Y-7977109D01*
X8089109Y-7977109D01*
X8089109Y-8054891D01*
X8166891Y-8054891D01*
X8616891Y-4926091D02*
X8616891Y-4848309D01*
X8539109Y-4848309D01*
X8539109Y-4926091D01*
X8616891Y-4926091D01*
X8616891Y-5576091D02*
X8616891Y-5498309D01*
X8539109Y-5498309D01*
X8539109Y-5576091D01*
X8616891Y-5576091D01*
X8616891Y-6170691D02*
X8616891Y-6092909D01*
X8539109Y-6092909D01*
X8539109Y-6170691D01*
X8616891Y-6170691D01*
X8616891Y-6820691D02*
X8616891Y-6742909D01*
X8539109Y-6742909D01*
X8539109Y-6820691D01*
X8616891Y-6820691D01*
X8616891Y-7404891D02*
X8616891Y-7327109D01*
X8539109Y-7327109D01*
X8539109Y-7404891D01*
X8616891Y-7404891D01*
X8616891Y-8054891D02*
X8616891Y-7977109D01*
X8539109Y-7977109D01*
X8539109Y-8054891D01*
X8616891Y-8054891D01*
X8954291Y-4926091D02*
X8954291Y-4848309D01*
X8876509Y-4848309D01*
X8876509Y-4926091D01*
X8954291Y-4926091D01*
X8954291Y-5576091D02*
X8954291Y-5498309D01*
X8876509Y-5498309D01*
X8876509Y-5576091D01*
X8954291Y-5576091D01*
X8954291Y-6170691D02*
X8954291Y-6092909D01*
X8876509Y-6092909D01*
X8876509Y-6170691D01*
X8954291Y-6170691D01*
X8954291Y-6820691D02*
X8954291Y-6742909D01*
X8876509Y-6742909D01*
X8876509Y-6820691D01*
X8954291Y-6820691D01*
X8954291Y-7404891D02*
X8954291Y-7327109D01*
X8876509Y-7327109D01*
X8876509Y-7404891D01*
X8954291Y-7404891D01*
X8954291Y-8054891D02*
X8954291Y-7977109D01*
X8876509Y-7977109D01*
X8876509Y-8054891D01*
X8954291Y-8054891D01*
X9404291Y-4926091D02*
X9404291Y-4848309D01*
X9326509Y-4848309D01*
X9326509Y-4926091D01*
X9404291Y-4926091D01*
X9404291Y-5576091D02*
X9404291Y-5498309D01*
X9326509Y-5498309D01*
X9326509Y-5576091D01*
X9404291Y-5576091D01*
X9404291Y-6170691D02*
X9404291Y-6092909D01*
X9326509Y-6092909D01*
X9326509Y-6170691D01*
X9404291Y-6170691D01*
X9404291Y-6820691D02*
X9404291Y-6742909D01*
X9326509Y-6742909D01*
X9326509Y-6820691D01*
X9404291Y-6820691D01*
X9404291Y-7404891D02*
X9404291Y-7327109D01*
X9326509Y-7327109D01*
X9326509Y-7404891D01*
X9404291Y-7404891D01*
X9404291Y-8054891D02*
X9404291Y-7977109D01*
X9326509Y-7977109D01*
X9326509Y-8054891D01*
X9404291Y-8054891D01*
X9741691Y-4926091D02*
X9741691Y-4848309D01*
X9663909Y-4848309D01*
X9663909Y-4926091D01*
X9741691Y-4926091D01*
X9741691Y-5576091D02*
X9741691Y-5498309D01*
X9663909Y-5498309D01*
X9663909Y-5576091D01*
X9741691Y-5576091D01*
X9741691Y-6170691D02*
X9741691Y-6092909D01*
X9663909Y-6092909D01*
X9663909Y-6170691D01*
X9741691Y-6170691D01*
X9741691Y-6820691D02*
X9741691Y-6742909D01*
X9663909Y-6742909D01*
X9663909Y-6820691D01*
X9741691Y-6820691D01*
X9741691Y-7404891D02*
X9741691Y-7327109D01*
X9663909Y-7327109D01*
X9663909Y-7404891D01*
X9741691Y-7404891D01*
X9741691Y-8054891D02*
X9741691Y-7977109D01*
X9663909Y-7977109D01*
X9663909Y-8054891D01*
X9741691Y-8054891D01*
X9741691Y-8634491D02*
X9741691Y-8556709D01*
X9663909Y-8556709D01*
X9663909Y-8634491D01*
X9741691Y-8634491D01*
X9741691Y-9284491D02*
X9741691Y-9206709D01*
X9663909Y-9206709D01*
X9663909Y-9284491D01*
X9741691Y-9284491D01*
X10191691Y-4926091D02*
X10191691Y-4848309D01*
X10113909Y-4848309D01*
X10113909Y-4926091D01*
X10191691Y-4926091D01*
X10191691Y-5576091D02*
X10191691Y-5498309D01*
X10113909Y-5498309D01*
X10113909Y-5576091D01*
X10191691Y-5576091D01*
X10191691Y-6170691D02*
X10191691Y-6092909D01*
X10113909Y-6092909D01*
X10113909Y-6170691D01*
X10191691Y-6170691D01*
X10191691Y-6820691D02*
X10191691Y-6742909D01*
X10113909Y-6742909D01*
X10113909Y-6820691D01*
X10191691Y-6820691D01*
X10191691Y-7404891D02*
X10191691Y-7327109D01*
X10113909Y-7327109D01*
X10113909Y-7404891D01*
X10191691Y-7404891D01*
X10191691Y-8054891D02*
X10191691Y-7977109D01*
X10113909Y-7977109D01*
X10113909Y-8054891D01*
X10191691Y-8054891D01*
X10191691Y-8634491D02*
X10191691Y-8556709D01*
X10113909Y-8556709D01*
X10113909Y-8634491D01*
X10191691Y-8634491D01*
X10191691Y-9284491D02*
X10191691Y-9206709D01*
X10113909Y-9206709D01*
X10113909Y-9284491D01*
X10191691Y-9284491D01*
X10529091Y-4926091D02*
X10529091Y-4848309D01*
X10451309Y-4848309D01*
X10451309Y-4926091D01*
X10529091Y-4926091D01*
X10529091Y-5576091D02*
X10529091Y-5498309D01*
X10451309Y-5498309D01*
X10451309Y-5576091D01*
X10529091Y-5576091D01*
X10529091Y-6170691D02*
X10529091Y-6092909D01*
X10451309Y-6092909D01*
X10451309Y-6170691D01*
X10529091Y-6170691D01*
X10529091Y-6820691D02*
X10529091Y-6742909D01*
X10451309Y-6742909D01*
X10451309Y-6820691D01*
X10529091Y-6820691D01*
X10529091Y-7404891D02*
X10529091Y-7327109D01*
X10451309Y-7327109D01*
X10451309Y-7404891D01*
X10529091Y-7404891D01*
X10529091Y-8054891D02*
X10529091Y-7977109D01*
X10451309Y-7977109D01*
X10451309Y-8054891D01*
X10529091Y-8054891D01*
X10529091Y-8634491D02*
X10529091Y-8556709D01*
X10451309Y-8556709D01*
X10451309Y-8634491D01*
X10529091Y-8634491D01*
X10529091Y-9284491D02*
X10529091Y-9206709D01*
X10451309Y-9206709D01*
X10451309Y-9284491D01*
X10529091Y-9284491D01*
X10979091Y-4926091D02*
X10979091Y-4848309D01*
X10901309Y-4848309D01*
X10901309Y-4926091D01*
X10979091Y-4926091D01*
X10979091Y-5576091D02*
X10979091Y-5498309D01*
X10901309Y-5498309D01*
X10901309Y-5576091D01*
X10979091Y-5576091D01*
X10979091Y-6170691D02*
X10979091Y-6092909D01*
X10901309Y-6092909D01*
X10901309Y-6170691D01*
X10979091Y-6170691D01*
X10979091Y-6820691D02*
X10979091Y-6742909D01*
X10901309Y-6742909D01*
X10901309Y-6820691D01*
X10979091Y-6820691D01*
X10979091Y-7404891D02*
X10979091Y-7327109D01*
X10901309Y-7327109D01*
X10901309Y-7404891D01*
X10979091Y-7404891D01*
X10979091Y-8054891D02*
X10979091Y-7977109D01*
X10901309Y-7977109D01*
X10901309Y-8054891D01*
X10979091Y-8054891D01*
X10979091Y-8634491D02*
X10979091Y-8556709D01*
X10901309Y-8556709D01*
X10901309Y-8634491D01*
X10979091Y-8634491D01*
X10979091Y-9284491D02*
X10979091Y-9206709D01*
X10901309Y-9206709D01*
X10901309Y-9284491D01*
X10979091Y-9284491D01*
X11316491Y-4926091D02*
X11316491Y-4848309D01*
X11238709Y-4848309D01*
X11238709Y-4926091D01*
X11316491Y-4926091D01*
X11316491Y-5576091D02*
X11316491Y-5498309D01*
X11238709Y-5498309D01*
X11238709Y-5576091D01*
X11316491Y-5576091D01*
X11316491Y-6170691D02*
X11316491Y-6092909D01*
X11238709Y-6092909D01*
X11238709Y-6170691D01*
X11316491Y-6170691D01*
X11316491Y-6820691D02*
X11316491Y-6742909D01*
X11238709Y-6742909D01*
X11238709Y-6820691D01*
X11316491Y-6820691D01*
X11316491Y-7404891D02*
X11316491Y-7327109D01*
X11238709Y-7327109D01*
X11238709Y-7404891D01*
X11316491Y-7404891D01*
X11316491Y-8054891D02*
X11316491Y-7977109D01*
X11238709Y-7977109D01*
X11238709Y-8054891D01*
X11316491Y-8054891D01*
X11316491Y-8634491D02*
X11316491Y-8556709D01*
X11238709Y-8556709D01*
X11238709Y-8634491D01*
X11316491Y-8634491D01*
X11316491Y-9284491D02*
X11316491Y-9206709D01*
X11238709Y-9206709D01*
X11238709Y-9284491D01*
X11316491Y-9284491D01*
X11766491Y-4926091D02*
X11766491Y-4848309D01*
X11688709Y-4848309D01*
X11688709Y-4926091D01*
X11766491Y-4926091D01*
X11766491Y-5576091D02*
X11766491Y-5498309D01*
X11688709Y-5498309D01*
X11688709Y-5576091D01*
X11766491Y-5576091D01*
X11766491Y-6170691D02*
X11766491Y-6092909D01*
X11688709Y-6092909D01*
X11688709Y-6170691D01*
X11766491Y-6170691D01*
X11766491Y-6820691D02*
X11766491Y-6742909D01*
X11688709Y-6742909D01*
X11688709Y-6820691D01*
X11766491Y-6820691D01*
X11766491Y-7404891D02*
X11766491Y-7327109D01*
X11688709Y-7327109D01*
X11688709Y-7404891D01*
X11766491Y-7404891D01*
X11766491Y-8054891D02*
X11766491Y-7977109D01*
X11688709Y-7977109D01*
X11688709Y-8054891D01*
X11766491Y-8054891D01*
X11766491Y-8634491D02*
X11766491Y-8556709D01*
X11688709Y-8556709D01*
X11688709Y-8634491D01*
X11766491Y-8634491D01*
X11766491Y-9284491D02*
X11766491Y-9206709D01*
X11688709Y-9206709D01*
X11688709Y-9284491D01*
X11766491Y-9284491D01*
X13704091Y-4926091D02*
X13704091Y-4848309D01*
X13626309Y-4848309D01*
X13626309Y-4926091D01*
X13704091Y-4926091D01*
X13704091Y-5576091D02*
X13704091Y-5498309D01*
X13626309Y-5498309D01*
X13626309Y-5576091D01*
X13704091Y-5576091D01*
X13704091Y-6170691D02*
X13704091Y-6092909D01*
X13626309Y-6092909D01*
X13626309Y-6170691D01*
X13704091Y-6170691D01*
X13704091Y-6820691D02*
X13704091Y-6742909D01*
X13626309Y-6742909D01*
X13626309Y-6820691D01*
X13704091Y-6820691D01*
X13704091Y-7404891D02*
X13704091Y-7327109D01*
X13626309Y-7327109D01*
X13626309Y-7404891D01*
X13704091Y-7404891D01*
X13704091Y-8054891D02*
X13704091Y-7977109D01*
X13626309Y-7977109D01*
X13626309Y-8054891D01*
X13704091Y-8054891D01*
X13704091Y-8634491D02*
X13704091Y-8556709D01*
X13626309Y-8556709D01*
X13626309Y-8634491D01*
X13704091Y-8634491D01*
X13704091Y-9284491D02*
X13704091Y-9206709D01*
X13626309Y-9206709D01*
X13626309Y-9284491D01*
X13704091Y-9284491D01*
X14154091Y-4926091D02*
X14154091Y-4848309D01*
X14076309Y-4848309D01*
X14076309Y-4926091D01*
X14154091Y-4926091D01*
X14154091Y-5576091D02*
X14154091Y-5498309D01*
X14076309Y-5498309D01*
X14076309Y-5576091D01*
X14154091Y-5576091D01*
X14154091Y-6170691D02*
X14154091Y-6092909D01*
X14076309Y-6092909D01*
X14076309Y-6170691D01*
X14154091Y-6170691D01*
X14154091Y-6820691D02*
X14154091Y-6742909D01*
X14076309Y-6742909D01*
X14076309Y-6820691D01*
X14154091Y-6820691D01*
X14154091Y-7404891D02*
X14154091Y-7327109D01*
X14076309Y-7327109D01*
X14076309Y-7404891D01*
X14154091Y-7404891D01*
X14154091Y-8054891D02*
X14154091Y-7977109D01*
X14076309Y-7977109D01*
X14076309Y-8054891D01*
X14154091Y-8054891D01*
X14154091Y-8634491D02*
X14154091Y-8556709D01*
X14076309Y-8556709D01*
X14076309Y-8634491D01*
X14154091Y-8634491D01*
X14154091Y-9284491D02*
X14154091Y-9206709D01*
X14076309Y-9206709D01*
X14076309Y-9284491D01*
X14154091Y-9284491D01*
X14491491Y-4926091D02*
X14491491Y-4848309D01*
X14413709Y-4848309D01*
X14413709Y-4926091D01*
X14491491Y-4926091D01*
X14491491Y-5576091D02*
X14491491Y-5498309D01*
X14413709Y-5498309D01*
X14413709Y-5576091D01*
X14491491Y-5576091D01*
X14491491Y-6170691D02*
X14491491Y-6092909D01*
X14413709Y-6092909D01*
X14413709Y-6170691D01*
X14491491Y-6170691D01*
X14491491Y-6820691D02*
X14491491Y-6742909D01*
X14413709Y-6742909D01*
X14413709Y-6820691D01*
X14491491Y-6820691D01*
X14491491Y-7404891D02*
X14491491Y-7327109D01*
X14413709Y-7327109D01*
X14413709Y-7404891D01*
X14491491Y-7404891D01*
X14491491Y-8054891D02*
X14491491Y-7977109D01*
X14413709Y-7977109D01*
X14413709Y-8054891D01*
X14491491Y-8054891D01*
X14491491Y-8634491D02*
X14491491Y-8556709D01*
X14413709Y-8556709D01*
X14413709Y-8634491D01*
X14491491Y-8634491D01*
X14491491Y-9284491D02*
X14491491Y-9206709D01*
X14413709Y-9206709D01*
X14413709Y-9284491D01*
X14491491Y-9284491D01*
X14941491Y-4926091D02*
X14941491Y-4848309D01*
X14863709Y-4848309D01*
X14863709Y-4926091D01*
X14941491Y-4926091D01*
X14941491Y-5576091D02*
X14941491Y-5498309D01*
X14863709Y-5498309D01*
X14863709Y-5576091D01*
X14941491Y-5576091D01*
X14941491Y-6170691D02*
X14941491Y-6092909D01*
X14863709Y-6092909D01*
X14863709Y-6170691D01*
X14941491Y-6170691D01*
X14941491Y-6820691D02*
X14941491Y-6742909D01*
X14863709Y-6742909D01*
X14863709Y-6820691D01*
X14941491Y-6820691D01*
X14941491Y-7404891D02*
X14941491Y-7327109D01*
X14863709Y-7327109D01*
X14863709Y-7404891D01*
X14941491Y-7404891D01*
X14941491Y-8054891D02*
X14941491Y-7977109D01*
X14863709Y-7977109D01*
X14863709Y-8054891D01*
X14941491Y-8054891D01*
X14941491Y-8634491D02*
X14941491Y-8556709D01*
X14863709Y-8556709D01*
X14863709Y-8634491D01*
X14941491Y-8634491D01*
X14941491Y-9284491D02*
X14941491Y-9206709D01*
X14863709Y-9206709D01*
X14863709Y-9284491D01*
X14941491Y-9284491D01*
X15278891Y-4926091D02*
X15278891Y-4848309D01*
X15201109Y-4848309D01*
X15201109Y-4926091D01*
X15278891Y-4926091D01*
X15278891Y-5576091D02*
X15278891Y-5498309D01*
X15201109Y-5498309D01*
X15201109Y-5576091D01*
X15278891Y-5576091D01*
X15278891Y-7404891D02*
X15278891Y-7327109D01*
X15201109Y-7327109D01*
X15201109Y-7404891D01*
X15278891Y-7404891D01*
X15278891Y-8054891D02*
X15278891Y-7977109D01*
X15201109Y-7977109D01*
X15201109Y-8054891D01*
X15278891Y-8054891D01*
X15278891Y-8634491D02*
X15278891Y-8556709D01*
X15201109Y-8556709D01*
X15201109Y-8634491D01*
X15278891Y-8634491D01*
X15278891Y-9284491D02*
X15278891Y-9206709D01*
X15201109Y-9206709D01*
X15201109Y-9284491D01*
X15278891Y-9284491D01*
X15286091Y-6170691D02*
X15286091Y-6092909D01*
X15208309Y-6092909D01*
X15208309Y-6170691D01*
X15286091Y-6170691D01*
X15286091Y-6820691D02*
X15286091Y-6742909D01*
X15208309Y-6742909D01*
X15208309Y-6820691D01*
X15286091Y-6820691D01*
X15728891Y-4926091D02*
X15728891Y-4848309D01*
X15651109Y-4848309D01*
X15651109Y-4926091D01*
X15728891Y-4926091D01*
X15728891Y-5576091D02*
X15728891Y-5498309D01*
X15651109Y-5498309D01*
X15651109Y-5576091D01*
X15728891Y-5576091D01*
X15728891Y-7404891D02*
X15728891Y-7327109D01*
X15651109Y-7327109D01*
X15651109Y-7404891D01*
X15728891Y-7404891D01*
X15728891Y-8054891D02*
X15728891Y-7977109D01*
X15651109Y-7977109D01*
X15651109Y-8054891D01*
X15728891Y-8054891D01*
X15728891Y-8634491D02*
X15728891Y-8556709D01*
X15651109Y-8556709D01*
X15651109Y-8634491D01*
X15728891Y-8634491D01*
X15728891Y-9284491D02*
X15728891Y-9206709D01*
X15651109Y-9206709D01*
X15651109Y-9284491D01*
X15728891Y-9284491D01*
X15736091Y-6170691D02*
X15736091Y-6092909D01*
X15658309Y-6092909D01*
X15658309Y-6170691D01*
X15736091Y-6170691D01*
X15736091Y-6820691D02*
X15736091Y-6742909D01*
X15658309Y-6742909D01*
X15658309Y-6820691D01*
X15736091Y-6820691D01*
X16066291Y-4926091D02*
X16066291Y-4848309D01*
X15988509Y-4848309D01*
X15988509Y-4926091D01*
X16066291Y-4926091D01*
X16066291Y-5576091D02*
X16066291Y-5498309D01*
X15988509Y-5498309D01*
X15988509Y-5576091D01*
X16066291Y-5576091D01*
X16066291Y-7404891D02*
X16066291Y-7327109D01*
X15988509Y-7327109D01*
X15988509Y-7404891D01*
X16066291Y-7404891D01*
X16066291Y-8054891D02*
X16066291Y-7977109D01*
X15988509Y-7977109D01*
X15988509Y-8054891D01*
X16066291Y-8054891D01*
X16073491Y-6170691D02*
X16073491Y-6092909D01*
X15995709Y-6092909D01*
X15995709Y-6170691D01*
X16073491Y-6170691D01*
X16073491Y-6820691D02*
X16073491Y-6742909D01*
X15995709Y-6742909D01*
X15995709Y-6820691D01*
X16073491Y-6820691D01*
X16516291Y-4926091D02*
X16516291Y-4848309D01*
X16438509Y-4848309D01*
X16438509Y-4926091D01*
X16516291Y-4926091D01*
X16516291Y-5576091D02*
X16516291Y-5498309D01*
X16438509Y-5498309D01*
X16438509Y-5576091D01*
X16516291Y-5576091D01*
X16516291Y-7404891D02*
X16516291Y-7327109D01*
X16438509Y-7327109D01*
X16438509Y-7404891D01*
X16516291Y-7404891D01*
X16516291Y-8054891D02*
X16516291Y-7977109D01*
X16438509Y-7977109D01*
X16438509Y-8054891D01*
X16516291Y-8054891D01*
X16523491Y-6170691D02*
X16523491Y-6092909D01*
X16445709Y-6092909D01*
X16445709Y-6170691D01*
X16523491Y-6170691D01*
X16523491Y-6820691D02*
X16523491Y-6742909D01*
X16445709Y-6742909D01*
X16445709Y-6820691D01*
X16523491Y-6820691D01*
X16853691Y-4926091D02*
X16853691Y-4848309D01*
X16775909Y-4848309D01*
X16775909Y-4926091D01*
X16853691Y-4926091D01*
X16853691Y-5576091D02*
X16853691Y-5498309D01*
X16775909Y-5498309D01*
X16775909Y-5576091D01*
X16853691Y-5576091D01*
X16853691Y-6170691D02*
X16853691Y-6092909D01*
X16775909Y-6092909D01*
X16775909Y-6170691D01*
X16853691Y-6170691D01*
X16853691Y-6820691D02*
X16853691Y-6742909D01*
X16775909Y-6742909D01*
X16775909Y-6820691D01*
X16853691Y-6820691D01*
X16853691Y-7404891D02*
X16853691Y-7327109D01*
X16775909Y-7327109D01*
X16775909Y-7404891D01*
X16853691Y-7404891D01*
X16853691Y-8054891D02*
X16853691Y-7977109D01*
X16775909Y-7977109D01*
X16775909Y-8054891D01*
X16853691Y-8054891D01*
X17303691Y-4926091D02*
X17303691Y-4848309D01*
X17225909Y-4848309D01*
X17225909Y-4926091D01*
X17303691Y-4926091D01*
X17303691Y-5576091D02*
X17303691Y-5498309D01*
X17225909Y-5498309D01*
X17225909Y-5576091D01*
X17303691Y-5576091D01*
X17303691Y-6170691D02*
X17303691Y-6092909D01*
X17225909Y-6092909D01*
X17225909Y-6170691D01*
X17303691Y-6170691D01*
X17303691Y-6820691D02*
X17303691Y-6742909D01*
X17225909Y-6742909D01*
X17225909Y-6820691D01*
X17303691Y-6820691D01*
X17303691Y-7404891D02*
X17303691Y-7327109D01*
X17225909Y-7327109D01*
X17225909Y-7404891D01*
X17303691Y-7404891D01*
X17303691Y-8054891D02*
X17303691Y-7977109D01*
X17225909Y-7977109D01*
X17225909Y-8054891D01*
X17303691Y-8054891D01*
D14*
X7823200Y-4021600D02*
X7933200Y-3911600D01*
X7823200Y-3801600D01*
X7713200Y-3911600D01*
X7823200Y-4021600D01*
X9321800Y-10460000D02*
X9431800Y-10350000D01*
X9321800Y-10240000D01*
X9211800Y-10350000D01*
X9321800Y-10460000D01*
X16078200Y-10460000D02*
X16188200Y-10350000D01*
X16078200Y-10240000D01*
X15968200Y-10350000D01*
X16078200Y-10460000D01*
X17551400Y-4021600D02*
X17661400Y-3911600D01*
X17551400Y-3801600D01*
X17441400Y-3911600D01*
X17551400Y-4021600D01*
D11*
X7700686Y-11111695D02*
X7700686Y-10911695D01*
X7700686Y-10911695D02*
X7748305Y-10911695D01*
X7748305Y-10911695D02*
X7776877Y-10921219D01*
X7776877Y-10921219D02*
X7795924Y-10940266D01*
X7795924Y-10940266D02*
X7805448Y-10959314D01*
X7805448Y-10959314D02*
X7814972Y-10997409D01*
X7814972Y-10997409D02*
X7814972Y-11025980D01*
X7814972Y-11025980D02*
X7805448Y-11064076D01*
X7805448Y-11064076D02*
X7795924Y-11083123D01*
X7795924Y-11083123D02*
X7776877Y-11102171D01*
X7776877Y-11102171D02*
X7748305Y-11111695D01*
X7748305Y-11111695D02*
X7700686Y-11111695D01*
X7900686Y-11111695D02*
X7900686Y-10978361D01*
X7900686Y-11016457D02*
X7910210Y-10997409D01*
X7910210Y-10997409D02*
X7919734Y-10987885D01*
X7919734Y-10987885D02*
X7938781Y-10978361D01*
X7938781Y-10978361D02*
X7957829Y-10978361D01*
X8024496Y-11111695D02*
X8024496Y-10978361D01*
X8024496Y-10911695D02*
X8014972Y-10921219D01*
X8014972Y-10921219D02*
X8024496Y-10930742D01*
X8024496Y-10930742D02*
X8034020Y-10921219D01*
X8034020Y-10921219D02*
X8024496Y-10911695D01*
X8024496Y-10911695D02*
X8024496Y-10930742D01*
X8148305Y-11111695D02*
X8129258Y-11102171D01*
X8129258Y-11102171D02*
X8119734Y-11083123D01*
X8119734Y-11083123D02*
X8119734Y-10911695D01*
X8253067Y-11111695D02*
X8234020Y-11102171D01*
X8234020Y-11102171D02*
X8224496Y-11083123D01*
X8224496Y-11083123D02*
X8224496Y-10911695D01*
X8481639Y-11111695D02*
X8481639Y-10911695D01*
X8481639Y-10911695D02*
X8548305Y-11054552D01*
X8548305Y-11054552D02*
X8614972Y-10911695D01*
X8614972Y-10911695D02*
X8614972Y-11111695D01*
X8795924Y-11111695D02*
X8795924Y-11006933D01*
X8795924Y-11006933D02*
X8786401Y-10987885D01*
X8786401Y-10987885D02*
X8767353Y-10978361D01*
X8767353Y-10978361D02*
X8729258Y-10978361D01*
X8729258Y-10978361D02*
X8710210Y-10987885D01*
X8795924Y-11102171D02*
X8776877Y-11111695D01*
X8776877Y-11111695D02*
X8729258Y-11111695D01*
X8729258Y-11111695D02*
X8710210Y-11102171D01*
X8710210Y-11102171D02*
X8700686Y-11083123D01*
X8700686Y-11083123D02*
X8700686Y-11064076D01*
X8700686Y-11064076D02*
X8710210Y-11045028D01*
X8710210Y-11045028D02*
X8729258Y-11035504D01*
X8729258Y-11035504D02*
X8776877Y-11035504D01*
X8776877Y-11035504D02*
X8795924Y-11025980D01*
X8891163Y-10978361D02*
X8891163Y-11178361D01*
X8891163Y-10987885D02*
X8910210Y-10978361D01*
X8910210Y-10978361D02*
X8948305Y-10978361D01*
X8948305Y-10978361D02*
X8967353Y-10987885D01*
X8967353Y-10987885D02*
X8976877Y-10997409D01*
X8976877Y-10997409D02*
X8986401Y-11016457D01*
X8986401Y-11016457D02*
X8986401Y-11073599D01*
X8986401Y-11073599D02*
X8976877Y-11092647D01*
X8976877Y-11092647D02*
X8967353Y-11102171D01*
X8967353Y-11102171D02*
X8948305Y-11111695D01*
X8948305Y-11111695D02*
X8910210Y-11111695D01*
X8910210Y-11111695D02*
X8891163Y-11102171D01*
X9072115Y-11092647D02*
X9081639Y-11102171D01*
X9081639Y-11102171D02*
X9072115Y-11111695D01*
X9072115Y-11111695D02*
X9062591Y-11102171D01*
X9062591Y-11102171D02*
X9072115Y-11092647D01*
X9072115Y-11092647D02*
X9072115Y-11111695D01*
X9072115Y-10987885D02*
X9081639Y-10997409D01*
X9081639Y-10997409D02*
X9072115Y-11006933D01*
X9072115Y-11006933D02*
X9062591Y-10997409D01*
X9062591Y-10997409D02*
X9072115Y-10987885D01*
X9072115Y-10987885D02*
X9072115Y-11006933D01*
D12*
X7399909Y-11420211D02*
X7439909Y-11460211D01*
X7439909Y-11420211D02*
X7399909Y-11460211D01*
D11*
X7738781Y-11331695D02*
X7757829Y-11331695D01*
X7757829Y-11331695D02*
X7776877Y-11341218D01*
X7776877Y-11341218D02*
X7786401Y-11350742D01*
X7786401Y-11350742D02*
X7795924Y-11369790D01*
X7795924Y-11369790D02*
X7805448Y-11407885D01*
X7805448Y-11407885D02*
X7805448Y-11455504D01*
X7805448Y-11455504D02*
X7795924Y-11493599D01*
X7795924Y-11493599D02*
X7786401Y-11512647D01*
X7786401Y-11512647D02*
X7776877Y-11522171D01*
X7776877Y-11522171D02*
X7757829Y-11531695D01*
X7757829Y-11531695D02*
X7738781Y-11531695D01*
X7738781Y-11531695D02*
X7719734Y-11522171D01*
X7719734Y-11522171D02*
X7710210Y-11512647D01*
X7710210Y-11512647D02*
X7700686Y-11493599D01*
X7700686Y-11493599D02*
X7691162Y-11455504D01*
X7691162Y-11455504D02*
X7691162Y-11407885D01*
X7691162Y-11407885D02*
X7700686Y-11369790D01*
X7700686Y-11369790D02*
X7710210Y-11350742D01*
X7710210Y-11350742D02*
X7719734Y-11341218D01*
X7719734Y-11341218D02*
X7738781Y-11331695D01*
X7891162Y-11512647D02*
X7900686Y-11522171D01*
X7900686Y-11522171D02*
X7891162Y-11531695D01*
X7891162Y-11531695D02*
X7881639Y-11522171D01*
X7881639Y-11522171D02*
X7891162Y-11512647D01*
X7891162Y-11512647D02*
X7891162Y-11531695D01*
X8072115Y-11398361D02*
X8072115Y-11531695D01*
X8024496Y-11322171D02*
X7976877Y-11465028D01*
X7976877Y-11465028D02*
X8100686Y-11465028D01*
X8214972Y-11331695D02*
X8234020Y-11331695D01*
X8234020Y-11331695D02*
X8253067Y-11341218D01*
X8253067Y-11341218D02*
X8262591Y-11350742D01*
X8262591Y-11350742D02*
X8272115Y-11369790D01*
X8272115Y-11369790D02*
X8281639Y-11407885D01*
X8281639Y-11407885D02*
X8281639Y-11455504D01*
X8281639Y-11455504D02*
X8272115Y-11493599D01*
X8272115Y-11493599D02*
X8262591Y-11512647D01*
X8262591Y-11512647D02*
X8253067Y-11522171D01*
X8253067Y-11522171D02*
X8234020Y-11531695D01*
X8234020Y-11531695D02*
X8214972Y-11531695D01*
X8214972Y-11531695D02*
X8195924Y-11522171D01*
X8195924Y-11522171D02*
X8186401Y-11512647D01*
X8186401Y-11512647D02*
X8176877Y-11493599D01*
X8176877Y-11493599D02*
X8167353Y-11455504D01*
X8167353Y-11455504D02*
X8167353Y-11407885D01*
X8167353Y-11407885D02*
X8176877Y-11369790D01*
X8176877Y-11369790D02*
X8186401Y-11350742D01*
X8186401Y-11350742D02*
X8195924Y-11341218D01*
X8195924Y-11341218D02*
X8214972Y-11331695D01*
X8405448Y-11331695D02*
X8424496Y-11331695D01*
X8424496Y-11331695D02*
X8443544Y-11341218D01*
X8443544Y-11341218D02*
X8453067Y-11350742D01*
X8453067Y-11350742D02*
X8462591Y-11369790D01*
X8462591Y-11369790D02*
X8472115Y-11407885D01*
X8472115Y-11407885D02*
X8472115Y-11455504D01*
X8472115Y-11455504D02*
X8462591Y-11493599D01*
X8462591Y-11493599D02*
X8453067Y-11512647D01*
X8453067Y-11512647D02*
X8443544Y-11522171D01*
X8443544Y-11522171D02*
X8424496Y-11531695D01*
X8424496Y-11531695D02*
X8405448Y-11531695D01*
X8405448Y-11531695D02*
X8386401Y-11522171D01*
X8386401Y-11522171D02*
X8376877Y-11512647D01*
X8376877Y-11512647D02*
X8367353Y-11493599D01*
X8367353Y-11493599D02*
X8357829Y-11455504D01*
X8357829Y-11455504D02*
X8357829Y-11407885D01*
X8357829Y-11407885D02*
X8367353Y-11369790D01*
X8367353Y-11369790D02*
X8376877Y-11350742D01*
X8376877Y-11350742D02*
X8386401Y-11341218D01*
X8386401Y-11341218D02*
X8405448Y-11331695D01*
X8557829Y-11531695D02*
X8557829Y-11398361D01*
X8557829Y-11417409D02*
X8567353Y-11407885D01*
X8567353Y-11407885D02*
X8586401Y-11398361D01*
X8586401Y-11398361D02*
X8614972Y-11398361D01*
X8614972Y-11398361D02*
X8634020Y-11407885D01*
X8634020Y-11407885D02*
X8643544Y-11426933D01*
X8643544Y-11426933D02*
X8643544Y-11531695D01*
X8643544Y-11426933D02*
X8653067Y-11407885D01*
X8653067Y-11407885D02*
X8672115Y-11398361D01*
X8672115Y-11398361D02*
X8700686Y-11398361D01*
X8700686Y-11398361D02*
X8719734Y-11407885D01*
X8719734Y-11407885D02*
X8729258Y-11426933D01*
X8729258Y-11426933D02*
X8729258Y-11531695D01*
X8824496Y-11531695D02*
X8824496Y-11398361D01*
X8824496Y-11417409D02*
X8834020Y-11407885D01*
X8834020Y-11407885D02*
X8853067Y-11398361D01*
X8853067Y-11398361D02*
X8881639Y-11398361D01*
X8881639Y-11398361D02*
X8900686Y-11407885D01*
X8900686Y-11407885D02*
X8910210Y-11426933D01*
X8910210Y-11426933D02*
X8910210Y-11531695D01*
X8910210Y-11426933D02*
X8919734Y-11407885D01*
X8919734Y-11407885D02*
X8938782Y-11398361D01*
X8938782Y-11398361D02*
X8967353Y-11398361D01*
X8967353Y-11398361D02*
X8986401Y-11407885D01*
X8986401Y-11407885D02*
X8995925Y-11426933D01*
X8995925Y-11426933D02*
X8995925Y-11531695D01*
X9386401Y-11322171D02*
X9214972Y-11579314D01*
X9643544Y-11331695D02*
X9662591Y-11331695D01*
X9662591Y-11331695D02*
X9681639Y-11341218D01*
X9681639Y-11341218D02*
X9691163Y-11350742D01*
X9691163Y-11350742D02*
X9700687Y-11369790D01*
X9700687Y-11369790D02*
X9710210Y-11407885D01*
X9710210Y-11407885D02*
X9710210Y-11455504D01*
X9710210Y-11455504D02*
X9700687Y-11493599D01*
X9700687Y-11493599D02*
X9691163Y-11512647D01*
X9691163Y-11512647D02*
X9681639Y-11522171D01*
X9681639Y-11522171D02*
X9662591Y-11531695D01*
X9662591Y-11531695D02*
X9643544Y-11531695D01*
X9643544Y-11531695D02*
X9624496Y-11522171D01*
X9624496Y-11522171D02*
X9614972Y-11512647D01*
X9614972Y-11512647D02*
X9605448Y-11493599D01*
X9605448Y-11493599D02*
X9595925Y-11455504D01*
X9595925Y-11455504D02*
X9595925Y-11407885D01*
X9595925Y-11407885D02*
X9605448Y-11369790D01*
X9605448Y-11369790D02*
X9614972Y-11350742D01*
X9614972Y-11350742D02*
X9624496Y-11341218D01*
X9624496Y-11341218D02*
X9643544Y-11331695D01*
X9795925Y-11512647D02*
X9805448Y-11522171D01*
X9805448Y-11522171D02*
X9795925Y-11531695D01*
X9795925Y-11531695D02*
X9786401Y-11522171D01*
X9786401Y-11522171D02*
X9795925Y-11512647D01*
X9795925Y-11512647D02*
X9795925Y-11531695D01*
X9929258Y-11331695D02*
X9948306Y-11331695D01*
X9948306Y-11331695D02*
X9967353Y-11341218D01*
X9967353Y-11341218D02*
X9976877Y-11350742D01*
X9976877Y-11350742D02*
X9986401Y-11369790D01*
X9986401Y-11369790D02*
X9995925Y-11407885D01*
X9995925Y-11407885D02*
X9995925Y-11455504D01*
X9995925Y-11455504D02*
X9986401Y-11493599D01*
X9986401Y-11493599D02*
X9976877Y-11512647D01*
X9976877Y-11512647D02*
X9967353Y-11522171D01*
X9967353Y-11522171D02*
X9948306Y-11531695D01*
X9948306Y-11531695D02*
X9929258Y-11531695D01*
X9929258Y-11531695D02*
X9910210Y-11522171D01*
X9910210Y-11522171D02*
X9900687Y-11512647D01*
X9900687Y-11512647D02*
X9891163Y-11493599D01*
X9891163Y-11493599D02*
X9881639Y-11455504D01*
X9881639Y-11455504D02*
X9881639Y-11407885D01*
X9881639Y-11407885D02*
X9891163Y-11369790D01*
X9891163Y-11369790D02*
X9900687Y-11350742D01*
X9900687Y-11350742D02*
X9910210Y-11341218D01*
X9910210Y-11341218D02*
X9929258Y-11331695D01*
X10186401Y-11531695D02*
X10072115Y-11531695D01*
X10129258Y-11531695D02*
X10129258Y-11331695D01*
X10129258Y-11331695D02*
X10110210Y-11360266D01*
X10110210Y-11360266D02*
X10091163Y-11379314D01*
X10091163Y-11379314D02*
X10072115Y-11388837D01*
X10367353Y-11331695D02*
X10272115Y-11331695D01*
X10272115Y-11331695D02*
X10262591Y-11426933D01*
X10262591Y-11426933D02*
X10272115Y-11417409D01*
X10272115Y-11417409D02*
X10291163Y-11407885D01*
X10291163Y-11407885D02*
X10338782Y-11407885D01*
X10338782Y-11407885D02*
X10357829Y-11417409D01*
X10357829Y-11417409D02*
X10367353Y-11426933D01*
X10367353Y-11426933D02*
X10376877Y-11445980D01*
X10376877Y-11445980D02*
X10376877Y-11493599D01*
X10376877Y-11493599D02*
X10367353Y-11512647D01*
X10367353Y-11512647D02*
X10357829Y-11522171D01*
X10357829Y-11522171D02*
X10338782Y-11531695D01*
X10338782Y-11531695D02*
X10291163Y-11531695D01*
X10291163Y-11531695D02*
X10272115Y-11522171D01*
X10272115Y-11522171D02*
X10262591Y-11512647D01*
X10443544Y-11331695D02*
X10576877Y-11331695D01*
X10576877Y-11331695D02*
X10491163Y-11531695D01*
X10643544Y-11331695D02*
X10643544Y-11369790D01*
X10719734Y-11331695D02*
X10719734Y-11369790D01*
X11014972Y-11607885D02*
X11005449Y-11598361D01*
X11005449Y-11598361D02*
X10986401Y-11569790D01*
X10986401Y-11569790D02*
X10976877Y-11550742D01*
X10976877Y-11550742D02*
X10967353Y-11522171D01*
X10967353Y-11522171D02*
X10957830Y-11474552D01*
X10957830Y-11474552D02*
X10957830Y-11436457D01*
X10957830Y-11436457D02*
X10967353Y-11388837D01*
X10967353Y-11388837D02*
X10976877Y-11360266D01*
X10976877Y-11360266D02*
X10986401Y-11341218D01*
X10986401Y-11341218D02*
X11005449Y-11312647D01*
X11005449Y-11312647D02*
X11014972Y-11303123D01*
X11072115Y-11331695D02*
X11205448Y-11331695D01*
X11205448Y-11331695D02*
X11119734Y-11531695D01*
X11262591Y-11331695D02*
X11395925Y-11331695D01*
X11395925Y-11331695D02*
X11310210Y-11531695D01*
X11624496Y-11531695D02*
X11624496Y-11331695D01*
X11710210Y-11531695D02*
X11710210Y-11426933D01*
X11710210Y-11426933D02*
X11700687Y-11407885D01*
X11700687Y-11407885D02*
X11681639Y-11398361D01*
X11681639Y-11398361D02*
X11653068Y-11398361D01*
X11653068Y-11398361D02*
X11634020Y-11407885D01*
X11634020Y-11407885D02*
X11624496Y-11417409D01*
X11834020Y-11531695D02*
X11814972Y-11522171D01*
X11814972Y-11522171D02*
X11805449Y-11512647D01*
X11805449Y-11512647D02*
X11795925Y-11493599D01*
X11795925Y-11493599D02*
X11795925Y-11436457D01*
X11795925Y-11436457D02*
X11805449Y-11417409D01*
X11805449Y-11417409D02*
X11814972Y-11407885D01*
X11814972Y-11407885D02*
X11834020Y-11398361D01*
X11834020Y-11398361D02*
X11862591Y-11398361D01*
X11862591Y-11398361D02*
X11881639Y-11407885D01*
X11881639Y-11407885D02*
X11891163Y-11417409D01*
X11891163Y-11417409D02*
X11900687Y-11436457D01*
X11900687Y-11436457D02*
X11900687Y-11493599D01*
X11900687Y-11493599D02*
X11891163Y-11512647D01*
X11891163Y-11512647D02*
X11881639Y-11522171D01*
X11881639Y-11522171D02*
X11862591Y-11531695D01*
X11862591Y-11531695D02*
X11834020Y-11531695D01*
X12014972Y-11531695D02*
X11995925Y-11522171D01*
X11995925Y-11522171D02*
X11986401Y-11503123D01*
X11986401Y-11503123D02*
X11986401Y-11331695D01*
X12167353Y-11522171D02*
X12148306Y-11531695D01*
X12148306Y-11531695D02*
X12110210Y-11531695D01*
X12110210Y-11531695D02*
X12091163Y-11522171D01*
X12091163Y-11522171D02*
X12081639Y-11503123D01*
X12081639Y-11503123D02*
X12081639Y-11426933D01*
X12081639Y-11426933D02*
X12091163Y-11407885D01*
X12091163Y-11407885D02*
X12110210Y-11398361D01*
X12110210Y-11398361D02*
X12148306Y-11398361D01*
X12148306Y-11398361D02*
X12167353Y-11407885D01*
X12167353Y-11407885D02*
X12176877Y-11426933D01*
X12176877Y-11426933D02*
X12176877Y-11445980D01*
X12176877Y-11445980D02*
X12081639Y-11465028D01*
X12253068Y-11522171D02*
X12272115Y-11531695D01*
X12272115Y-11531695D02*
X12310210Y-11531695D01*
X12310210Y-11531695D02*
X12329258Y-11522171D01*
X12329258Y-11522171D02*
X12338782Y-11503123D01*
X12338782Y-11503123D02*
X12338782Y-11493599D01*
X12338782Y-11493599D02*
X12329258Y-11474552D01*
X12329258Y-11474552D02*
X12310210Y-11465028D01*
X12310210Y-11465028D02*
X12281639Y-11465028D01*
X12281639Y-11465028D02*
X12262591Y-11455504D01*
X12262591Y-11455504D02*
X12253068Y-11436457D01*
X12253068Y-11436457D02*
X12253068Y-11426933D01*
X12253068Y-11426933D02*
X12262591Y-11407885D01*
X12262591Y-11407885D02*
X12281639Y-11398361D01*
X12281639Y-11398361D02*
X12310210Y-11398361D01*
X12310210Y-11398361D02*
X12329258Y-11407885D01*
X12405449Y-11607885D02*
X12414972Y-11598361D01*
X12414972Y-11598361D02*
X12434020Y-11569790D01*
X12434020Y-11569790D02*
X12443544Y-11550742D01*
X12443544Y-11550742D02*
X12453068Y-11522171D01*
X12453068Y-11522171D02*
X12462591Y-11474552D01*
X12462591Y-11474552D02*
X12462591Y-11436457D01*
X12462591Y-11436457D02*
X12453068Y-11388837D01*
X12453068Y-11388837D02*
X12443544Y-11360266D01*
X12443544Y-11360266D02*
X12434020Y-11341218D01*
X12434020Y-11341218D02*
X12414972Y-11312647D01*
X12414972Y-11312647D02*
X12405449Y-11303123D01*
D12*
X7439909Y-11704211D02*
G75*
G02*
X7379909Y-11704211I-30000J0D01*
G01*
X7379909Y-11704211D02*
G75*
G02*
X7439909Y-11704211I30000J0D01*
G01*
D11*
X7738781Y-11595695D02*
X7757829Y-11595695D01*
X7757829Y-11595695D02*
X7776877Y-11605218D01*
X7776877Y-11605218D02*
X7786401Y-11614742D01*
X7786401Y-11614742D02*
X7795924Y-11633790D01*
X7795924Y-11633790D02*
X7805448Y-11671885D01*
X7805448Y-11671885D02*
X7805448Y-11719504D01*
X7805448Y-11719504D02*
X7795924Y-11757599D01*
X7795924Y-11757599D02*
X7786401Y-11776647D01*
X7786401Y-11776647D02*
X7776877Y-11786171D01*
X7776877Y-11786171D02*
X7757829Y-11795695D01*
X7757829Y-11795695D02*
X7738781Y-11795695D01*
X7738781Y-11795695D02*
X7719734Y-11786171D01*
X7719734Y-11786171D02*
X7710210Y-11776647D01*
X7710210Y-11776647D02*
X7700686Y-11757599D01*
X7700686Y-11757599D02*
X7691162Y-11719504D01*
X7691162Y-11719504D02*
X7691162Y-11671885D01*
X7691162Y-11671885D02*
X7700686Y-11633790D01*
X7700686Y-11633790D02*
X7710210Y-11614742D01*
X7710210Y-11614742D02*
X7719734Y-11605218D01*
X7719734Y-11605218D02*
X7738781Y-11595695D01*
X7891162Y-11776647D02*
X7900686Y-11786171D01*
X7900686Y-11786171D02*
X7891162Y-11795695D01*
X7891162Y-11795695D02*
X7881639Y-11786171D01*
X7881639Y-11786171D02*
X7891162Y-11776647D01*
X7891162Y-11776647D02*
X7891162Y-11795695D01*
X8072115Y-11595695D02*
X8034020Y-11595695D01*
X8034020Y-11595695D02*
X8014972Y-11605218D01*
X8014972Y-11605218D02*
X8005448Y-11614742D01*
X8005448Y-11614742D02*
X7986401Y-11643314D01*
X7986401Y-11643314D02*
X7976877Y-11681409D01*
X7976877Y-11681409D02*
X7976877Y-11757599D01*
X7976877Y-11757599D02*
X7986401Y-11776647D01*
X7986401Y-11776647D02*
X7995924Y-11786171D01*
X7995924Y-11786171D02*
X8014972Y-11795695D01*
X8014972Y-11795695D02*
X8053067Y-11795695D01*
X8053067Y-11795695D02*
X8072115Y-11786171D01*
X8072115Y-11786171D02*
X8081639Y-11776647D01*
X8081639Y-11776647D02*
X8091162Y-11757599D01*
X8091162Y-11757599D02*
X8091162Y-11709980D01*
X8091162Y-11709980D02*
X8081639Y-11690933D01*
X8081639Y-11690933D02*
X8072115Y-11681409D01*
X8072115Y-11681409D02*
X8053067Y-11671885D01*
X8053067Y-11671885D02*
X8014972Y-11671885D01*
X8014972Y-11671885D02*
X7995924Y-11681409D01*
X7995924Y-11681409D02*
X7986401Y-11690933D01*
X7986401Y-11690933D02*
X7976877Y-11709980D01*
X8214972Y-11595695D02*
X8234020Y-11595695D01*
X8234020Y-11595695D02*
X8253067Y-11605218D01*
X8253067Y-11605218D02*
X8262591Y-11614742D01*
X8262591Y-11614742D02*
X8272115Y-11633790D01*
X8272115Y-11633790D02*
X8281639Y-11671885D01*
X8281639Y-11671885D02*
X8281639Y-11719504D01*
X8281639Y-11719504D02*
X8272115Y-11757599D01*
X8272115Y-11757599D02*
X8262591Y-11776647D01*
X8262591Y-11776647D02*
X8253067Y-11786171D01*
X8253067Y-11786171D02*
X8234020Y-11795695D01*
X8234020Y-11795695D02*
X8214972Y-11795695D01*
X8214972Y-11795695D02*
X8195924Y-11786171D01*
X8195924Y-11786171D02*
X8186401Y-11776647D01*
X8186401Y-11776647D02*
X8176877Y-11757599D01*
X8176877Y-11757599D02*
X8167353Y-11719504D01*
X8167353Y-11719504D02*
X8167353Y-11671885D01*
X8167353Y-11671885D02*
X8176877Y-11633790D01*
X8176877Y-11633790D02*
X8186401Y-11614742D01*
X8186401Y-11614742D02*
X8195924Y-11605218D01*
X8195924Y-11605218D02*
X8214972Y-11595695D01*
X8405448Y-11595695D02*
X8424496Y-11595695D01*
X8424496Y-11595695D02*
X8443544Y-11605218D01*
X8443544Y-11605218D02*
X8453067Y-11614742D01*
X8453067Y-11614742D02*
X8462591Y-11633790D01*
X8462591Y-11633790D02*
X8472115Y-11671885D01*
X8472115Y-11671885D02*
X8472115Y-11719504D01*
X8472115Y-11719504D02*
X8462591Y-11757599D01*
X8462591Y-11757599D02*
X8453067Y-11776647D01*
X8453067Y-11776647D02*
X8443544Y-11786171D01*
X8443544Y-11786171D02*
X8424496Y-11795695D01*
X8424496Y-11795695D02*
X8405448Y-11795695D01*
X8405448Y-11795695D02*
X8386401Y-11786171D01*
X8386401Y-11786171D02*
X8376877Y-11776647D01*
X8376877Y-11776647D02*
X8367353Y-11757599D01*
X8367353Y-11757599D02*
X8357829Y-11719504D01*
X8357829Y-11719504D02*
X8357829Y-11671885D01*
X8357829Y-11671885D02*
X8367353Y-11633790D01*
X8367353Y-11633790D02*
X8376877Y-11614742D01*
X8376877Y-11614742D02*
X8386401Y-11605218D01*
X8386401Y-11605218D02*
X8405448Y-11595695D01*
X8557829Y-11795695D02*
X8557829Y-11662361D01*
X8557829Y-11681409D02*
X8567353Y-11671885D01*
X8567353Y-11671885D02*
X8586401Y-11662361D01*
X8586401Y-11662361D02*
X8614972Y-11662361D01*
X8614972Y-11662361D02*
X8634020Y-11671885D01*
X8634020Y-11671885D02*
X8643544Y-11690933D01*
X8643544Y-11690933D02*
X8643544Y-11795695D01*
X8643544Y-11690933D02*
X8653067Y-11671885D01*
X8653067Y-11671885D02*
X8672115Y-11662361D01*
X8672115Y-11662361D02*
X8700686Y-11662361D01*
X8700686Y-11662361D02*
X8719734Y-11671885D01*
X8719734Y-11671885D02*
X8729258Y-11690933D01*
X8729258Y-11690933D02*
X8729258Y-11795695D01*
X8824496Y-11795695D02*
X8824496Y-11662361D01*
X8824496Y-11681409D02*
X8834020Y-11671885D01*
X8834020Y-11671885D02*
X8853067Y-11662361D01*
X8853067Y-11662361D02*
X8881639Y-11662361D01*
X8881639Y-11662361D02*
X8900686Y-11671885D01*
X8900686Y-11671885D02*
X8910210Y-11690933D01*
X8910210Y-11690933D02*
X8910210Y-11795695D01*
X8910210Y-11690933D02*
X8919734Y-11671885D01*
X8919734Y-11671885D02*
X8938782Y-11662361D01*
X8938782Y-11662361D02*
X8967353Y-11662361D01*
X8967353Y-11662361D02*
X8986401Y-11671885D01*
X8986401Y-11671885D02*
X8995925Y-11690933D01*
X8995925Y-11690933D02*
X8995925Y-11795695D01*
X9386401Y-11586171D02*
X9214972Y-11843314D01*
X9643544Y-11595695D02*
X9662591Y-11595695D01*
X9662591Y-11595695D02*
X9681639Y-11605218D01*
X9681639Y-11605218D02*
X9691163Y-11614742D01*
X9691163Y-11614742D02*
X9700687Y-11633790D01*
X9700687Y-11633790D02*
X9710210Y-11671885D01*
X9710210Y-11671885D02*
X9710210Y-11719504D01*
X9710210Y-11719504D02*
X9700687Y-11757599D01*
X9700687Y-11757599D02*
X9691163Y-11776647D01*
X9691163Y-11776647D02*
X9681639Y-11786171D01*
X9681639Y-11786171D02*
X9662591Y-11795695D01*
X9662591Y-11795695D02*
X9643544Y-11795695D01*
X9643544Y-11795695D02*
X9624496Y-11786171D01*
X9624496Y-11786171D02*
X9614972Y-11776647D01*
X9614972Y-11776647D02*
X9605448Y-11757599D01*
X9605448Y-11757599D02*
X9595925Y-11719504D01*
X9595925Y-11719504D02*
X9595925Y-11671885D01*
X9595925Y-11671885D02*
X9605448Y-11633790D01*
X9605448Y-11633790D02*
X9614972Y-11614742D01*
X9614972Y-11614742D02*
X9624496Y-11605218D01*
X9624496Y-11605218D02*
X9643544Y-11595695D01*
X9795925Y-11776647D02*
X9805448Y-11786171D01*
X9805448Y-11786171D02*
X9795925Y-11795695D01*
X9795925Y-11795695D02*
X9786401Y-11786171D01*
X9786401Y-11786171D02*
X9795925Y-11776647D01*
X9795925Y-11776647D02*
X9795925Y-11795695D01*
X9929258Y-11595695D02*
X9948306Y-11595695D01*
X9948306Y-11595695D02*
X9967353Y-11605218D01*
X9967353Y-11605218D02*
X9976877Y-11614742D01*
X9976877Y-11614742D02*
X9986401Y-11633790D01*
X9986401Y-11633790D02*
X9995925Y-11671885D01*
X9995925Y-11671885D02*
X9995925Y-11719504D01*
X9995925Y-11719504D02*
X9986401Y-11757599D01*
X9986401Y-11757599D02*
X9976877Y-11776647D01*
X9976877Y-11776647D02*
X9967353Y-11786171D01*
X9967353Y-11786171D02*
X9948306Y-11795695D01*
X9948306Y-11795695D02*
X9929258Y-11795695D01*
X9929258Y-11795695D02*
X9910210Y-11786171D01*
X9910210Y-11786171D02*
X9900687Y-11776647D01*
X9900687Y-11776647D02*
X9891163Y-11757599D01*
X9891163Y-11757599D02*
X9881639Y-11719504D01*
X9881639Y-11719504D02*
X9881639Y-11671885D01*
X9881639Y-11671885D02*
X9891163Y-11633790D01*
X9891163Y-11633790D02*
X9900687Y-11614742D01*
X9900687Y-11614742D02*
X9910210Y-11605218D01*
X9910210Y-11605218D02*
X9929258Y-11595695D01*
X10072115Y-11614742D02*
X10081639Y-11605218D01*
X10081639Y-11605218D02*
X10100687Y-11595695D01*
X10100687Y-11595695D02*
X10148306Y-11595695D01*
X10148306Y-11595695D02*
X10167353Y-11605218D01*
X10167353Y-11605218D02*
X10176877Y-11614742D01*
X10176877Y-11614742D02*
X10186401Y-11633790D01*
X10186401Y-11633790D02*
X10186401Y-11652837D01*
X10186401Y-11652837D02*
X10176877Y-11681409D01*
X10176877Y-11681409D02*
X10062591Y-11795695D01*
X10062591Y-11795695D02*
X10186401Y-11795695D01*
X10253068Y-11595695D02*
X10376877Y-11595695D01*
X10376877Y-11595695D02*
X10310210Y-11671885D01*
X10310210Y-11671885D02*
X10338782Y-11671885D01*
X10338782Y-11671885D02*
X10357829Y-11681409D01*
X10357829Y-11681409D02*
X10367353Y-11690933D01*
X10367353Y-11690933D02*
X10376877Y-11709980D01*
X10376877Y-11709980D02*
X10376877Y-11757599D01*
X10376877Y-11757599D02*
X10367353Y-11776647D01*
X10367353Y-11776647D02*
X10357829Y-11786171D01*
X10357829Y-11786171D02*
X10338782Y-11795695D01*
X10338782Y-11795695D02*
X10281639Y-11795695D01*
X10281639Y-11795695D02*
X10262591Y-11786171D01*
X10262591Y-11786171D02*
X10253068Y-11776647D01*
X10548306Y-11595695D02*
X10510210Y-11595695D01*
X10510210Y-11595695D02*
X10491163Y-11605218D01*
X10491163Y-11605218D02*
X10481639Y-11614742D01*
X10481639Y-11614742D02*
X10462591Y-11643314D01*
X10462591Y-11643314D02*
X10453068Y-11681409D01*
X10453068Y-11681409D02*
X10453068Y-11757599D01*
X10453068Y-11757599D02*
X10462591Y-11776647D01*
X10462591Y-11776647D02*
X10472115Y-11786171D01*
X10472115Y-11786171D02*
X10491163Y-11795695D01*
X10491163Y-11795695D02*
X10529258Y-11795695D01*
X10529258Y-11795695D02*
X10548306Y-11786171D01*
X10548306Y-11786171D02*
X10557829Y-11776647D01*
X10557829Y-11776647D02*
X10567353Y-11757599D01*
X10567353Y-11757599D02*
X10567353Y-11709980D01*
X10567353Y-11709980D02*
X10557829Y-11690933D01*
X10557829Y-11690933D02*
X10548306Y-11681409D01*
X10548306Y-11681409D02*
X10529258Y-11671885D01*
X10529258Y-11671885D02*
X10491163Y-11671885D01*
X10491163Y-11671885D02*
X10472115Y-11681409D01*
X10472115Y-11681409D02*
X10462591Y-11690933D01*
X10462591Y-11690933D02*
X10453068Y-11709980D01*
X10643544Y-11595695D02*
X10643544Y-11633790D01*
X10719734Y-11595695D02*
X10719734Y-11633790D01*
X11014972Y-11871885D02*
X11005449Y-11862361D01*
X11005449Y-11862361D02*
X10986401Y-11833790D01*
X10986401Y-11833790D02*
X10976877Y-11814742D01*
X10976877Y-11814742D02*
X10967353Y-11786171D01*
X10967353Y-11786171D02*
X10957830Y-11738552D01*
X10957830Y-11738552D02*
X10957830Y-11700457D01*
X10957830Y-11700457D02*
X10967353Y-11652837D01*
X10967353Y-11652837D02*
X10976877Y-11624266D01*
X10976877Y-11624266D02*
X10986401Y-11605218D01*
X10986401Y-11605218D02*
X11005449Y-11576647D01*
X11005449Y-11576647D02*
X11014972Y-11567123D01*
X11129258Y-11595695D02*
X11148306Y-11595695D01*
X11148306Y-11595695D02*
X11167353Y-11605218D01*
X11167353Y-11605218D02*
X11176877Y-11614742D01*
X11176877Y-11614742D02*
X11186401Y-11633790D01*
X11186401Y-11633790D02*
X11195925Y-11671885D01*
X11195925Y-11671885D02*
X11195925Y-11719504D01*
X11195925Y-11719504D02*
X11186401Y-11757599D01*
X11186401Y-11757599D02*
X11176877Y-11776647D01*
X11176877Y-11776647D02*
X11167353Y-11786171D01*
X11167353Y-11786171D02*
X11148306Y-11795695D01*
X11148306Y-11795695D02*
X11129258Y-11795695D01*
X11129258Y-11795695D02*
X11110210Y-11786171D01*
X11110210Y-11786171D02*
X11100687Y-11776647D01*
X11100687Y-11776647D02*
X11091163Y-11757599D01*
X11091163Y-11757599D02*
X11081639Y-11719504D01*
X11081639Y-11719504D02*
X11081639Y-11671885D01*
X11081639Y-11671885D02*
X11091163Y-11633790D01*
X11091163Y-11633790D02*
X11100687Y-11614742D01*
X11100687Y-11614742D02*
X11110210Y-11605218D01*
X11110210Y-11605218D02*
X11129258Y-11595695D01*
X11434020Y-11795695D02*
X11434020Y-11595695D01*
X11519734Y-11795695D02*
X11519734Y-11690933D01*
X11519734Y-11690933D02*
X11510210Y-11671885D01*
X11510210Y-11671885D02*
X11491163Y-11662361D01*
X11491163Y-11662361D02*
X11462591Y-11662361D01*
X11462591Y-11662361D02*
X11443544Y-11671885D01*
X11443544Y-11671885D02*
X11434020Y-11681409D01*
X11643544Y-11795695D02*
X11624496Y-11786171D01*
X11624496Y-11786171D02*
X11614972Y-11776647D01*
X11614972Y-11776647D02*
X11605449Y-11757599D01*
X11605449Y-11757599D02*
X11605449Y-11700457D01*
X11605449Y-11700457D02*
X11614972Y-11681409D01*
X11614972Y-11681409D02*
X11624496Y-11671885D01*
X11624496Y-11671885D02*
X11643544Y-11662361D01*
X11643544Y-11662361D02*
X11672115Y-11662361D01*
X11672115Y-11662361D02*
X11691163Y-11671885D01*
X11691163Y-11671885D02*
X11700687Y-11681409D01*
X11700687Y-11681409D02*
X11710210Y-11700457D01*
X11710210Y-11700457D02*
X11710210Y-11757599D01*
X11710210Y-11757599D02*
X11700687Y-11776647D01*
X11700687Y-11776647D02*
X11691163Y-11786171D01*
X11691163Y-11786171D02*
X11672115Y-11795695D01*
X11672115Y-11795695D02*
X11643544Y-11795695D01*
X11824496Y-11795695D02*
X11805449Y-11786171D01*
X11805449Y-11786171D02*
X11795925Y-11767123D01*
X11795925Y-11767123D02*
X11795925Y-11595695D01*
X11976877Y-11786171D02*
X11957830Y-11795695D01*
X11957830Y-11795695D02*
X11919734Y-11795695D01*
X11919734Y-11795695D02*
X11900687Y-11786171D01*
X11900687Y-11786171D02*
X11891163Y-11767123D01*
X11891163Y-11767123D02*
X11891163Y-11690933D01*
X11891163Y-11690933D02*
X11900687Y-11671885D01*
X11900687Y-11671885D02*
X11919734Y-11662361D01*
X11919734Y-11662361D02*
X11957830Y-11662361D01*
X11957830Y-11662361D02*
X11976877Y-11671885D01*
X11976877Y-11671885D02*
X11986401Y-11690933D01*
X11986401Y-11690933D02*
X11986401Y-11709980D01*
X11986401Y-11709980D02*
X11891163Y-11729028D01*
X12062591Y-11786171D02*
X12081639Y-11795695D01*
X12081639Y-11795695D02*
X12119734Y-11795695D01*
X12119734Y-11795695D02*
X12138782Y-11786171D01*
X12138782Y-11786171D02*
X12148306Y-11767123D01*
X12148306Y-11767123D02*
X12148306Y-11757599D01*
X12148306Y-11757599D02*
X12138782Y-11738552D01*
X12138782Y-11738552D02*
X12119734Y-11729028D01*
X12119734Y-11729028D02*
X12091163Y-11729028D01*
X12091163Y-11729028D02*
X12072115Y-11719504D01*
X12072115Y-11719504D02*
X12062591Y-11700457D01*
X12062591Y-11700457D02*
X12062591Y-11690933D01*
X12062591Y-11690933D02*
X12072115Y-11671885D01*
X12072115Y-11671885D02*
X12091163Y-11662361D01*
X12091163Y-11662361D02*
X12119734Y-11662361D01*
X12119734Y-11662361D02*
X12138782Y-11671885D01*
X12386401Y-11719504D02*
X12538782Y-11719504D01*
X12462592Y-11795695D02*
X12462592Y-11643314D01*
X12872115Y-11662361D02*
X12872115Y-11795695D01*
X12824496Y-11586171D02*
X12776877Y-11729028D01*
X12776877Y-11729028D02*
X12900687Y-11729028D01*
X13119734Y-11786171D02*
X13138782Y-11795695D01*
X13138782Y-11795695D02*
X13176877Y-11795695D01*
X13176877Y-11795695D02*
X13195925Y-11786171D01*
X13195925Y-11786171D02*
X13205449Y-11767123D01*
X13205449Y-11767123D02*
X13205449Y-11757599D01*
X13205449Y-11757599D02*
X13195925Y-11738552D01*
X13195925Y-11738552D02*
X13176877Y-11729028D01*
X13176877Y-11729028D02*
X13148306Y-11729028D01*
X13148306Y-11729028D02*
X13129258Y-11719504D01*
X13129258Y-11719504D02*
X13119734Y-11700457D01*
X13119734Y-11700457D02*
X13119734Y-11690933D01*
X13119734Y-11690933D02*
X13129258Y-11671885D01*
X13129258Y-11671885D02*
X13148306Y-11662361D01*
X13148306Y-11662361D02*
X13176877Y-11662361D01*
X13176877Y-11662361D02*
X13195925Y-11671885D01*
X13319734Y-11795695D02*
X13300687Y-11786171D01*
X13300687Y-11786171D02*
X13291163Y-11767123D01*
X13291163Y-11767123D02*
X13291163Y-11595695D01*
X13424496Y-11795695D02*
X13405449Y-11786171D01*
X13405449Y-11786171D02*
X13395925Y-11776647D01*
X13395925Y-11776647D02*
X13386401Y-11757599D01*
X13386401Y-11757599D02*
X13386401Y-11700457D01*
X13386401Y-11700457D02*
X13395925Y-11681409D01*
X13395925Y-11681409D02*
X13405449Y-11671885D01*
X13405449Y-11671885D02*
X13424496Y-11662361D01*
X13424496Y-11662361D02*
X13453068Y-11662361D01*
X13453068Y-11662361D02*
X13472115Y-11671885D01*
X13472115Y-11671885D02*
X13481639Y-11681409D01*
X13481639Y-11681409D02*
X13491163Y-11700457D01*
X13491163Y-11700457D02*
X13491163Y-11757599D01*
X13491163Y-11757599D02*
X13481639Y-11776647D01*
X13481639Y-11776647D02*
X13472115Y-11786171D01*
X13472115Y-11786171D02*
X13453068Y-11795695D01*
X13453068Y-11795695D02*
X13424496Y-11795695D01*
X13548306Y-11662361D02*
X13624496Y-11662361D01*
X13576877Y-11595695D02*
X13576877Y-11767123D01*
X13576877Y-11767123D02*
X13586401Y-11786171D01*
X13586401Y-11786171D02*
X13605449Y-11795695D01*
X13605449Y-11795695D02*
X13624496Y-11795695D01*
X13681639Y-11786171D02*
X13700687Y-11795695D01*
X13700687Y-11795695D02*
X13738782Y-11795695D01*
X13738782Y-11795695D02*
X13757830Y-11786171D01*
X13757830Y-11786171D02*
X13767354Y-11767123D01*
X13767354Y-11767123D02*
X13767354Y-11757599D01*
X13767354Y-11757599D02*
X13757830Y-11738552D01*
X13757830Y-11738552D02*
X13738782Y-11729028D01*
X13738782Y-11729028D02*
X13710211Y-11729028D01*
X13710211Y-11729028D02*
X13691163Y-11719504D01*
X13691163Y-11719504D02*
X13681639Y-11700457D01*
X13681639Y-11700457D02*
X13681639Y-11690933D01*
X13681639Y-11690933D02*
X13691163Y-11671885D01*
X13691163Y-11671885D02*
X13710211Y-11662361D01*
X13710211Y-11662361D02*
X13738782Y-11662361D01*
X13738782Y-11662361D02*
X13757830Y-11671885D01*
X13834020Y-11871885D02*
X13843544Y-11862361D01*
X13843544Y-11862361D02*
X13862592Y-11833790D01*
X13862592Y-11833790D02*
X13872115Y-11814742D01*
X13872115Y-11814742D02*
X13881639Y-11786171D01*
X13881639Y-11786171D02*
X13891163Y-11738552D01*
X13891163Y-11738552D02*
X13891163Y-11700457D01*
X13891163Y-11700457D02*
X13881639Y-11652837D01*
X13881639Y-11652837D02*
X13872115Y-11624266D01*
X13872115Y-11624266D02*
X13862592Y-11605218D01*
X13862592Y-11605218D02*
X13843544Y-11576647D01*
X13843544Y-11576647D02*
X13834020Y-11567123D01*
D12*
X7399909Y-11928211D02*
X7399909Y-12008211D01*
X7359909Y-11968211D02*
X7439909Y-11968211D01*
D11*
X7738781Y-11859695D02*
X7757829Y-11859695D01*
X7757829Y-11859695D02*
X7776877Y-11869218D01*
X7776877Y-11869218D02*
X7786401Y-11878742D01*
X7786401Y-11878742D02*
X7795924Y-11897790D01*
X7795924Y-11897790D02*
X7805448Y-11935885D01*
X7805448Y-11935885D02*
X7805448Y-11983504D01*
X7805448Y-11983504D02*
X7795924Y-12021599D01*
X7795924Y-12021599D02*
X7786401Y-12040647D01*
X7786401Y-12040647D02*
X7776877Y-12050171D01*
X7776877Y-12050171D02*
X7757829Y-12059695D01*
X7757829Y-12059695D02*
X7738781Y-12059695D01*
X7738781Y-12059695D02*
X7719734Y-12050171D01*
X7719734Y-12050171D02*
X7710210Y-12040647D01*
X7710210Y-12040647D02*
X7700686Y-12021599D01*
X7700686Y-12021599D02*
X7691162Y-11983504D01*
X7691162Y-11983504D02*
X7691162Y-11935885D01*
X7691162Y-11935885D02*
X7700686Y-11897790D01*
X7700686Y-11897790D02*
X7710210Y-11878742D01*
X7710210Y-11878742D02*
X7719734Y-11869218D01*
X7719734Y-11869218D02*
X7738781Y-11859695D01*
X7891162Y-12040647D02*
X7900686Y-12050171D01*
X7900686Y-12050171D02*
X7891162Y-12059695D01*
X7891162Y-12059695D02*
X7881639Y-12050171D01*
X7881639Y-12050171D02*
X7891162Y-12040647D01*
X7891162Y-12040647D02*
X7891162Y-12059695D01*
X8014972Y-11945409D02*
X7995924Y-11935885D01*
X7995924Y-11935885D02*
X7986401Y-11926361D01*
X7986401Y-11926361D02*
X7976877Y-11907314D01*
X7976877Y-11907314D02*
X7976877Y-11897790D01*
X7976877Y-11897790D02*
X7986401Y-11878742D01*
X7986401Y-11878742D02*
X7995924Y-11869218D01*
X7995924Y-11869218D02*
X8014972Y-11859695D01*
X8014972Y-11859695D02*
X8053067Y-11859695D01*
X8053067Y-11859695D02*
X8072115Y-11869218D01*
X8072115Y-11869218D02*
X8081639Y-11878742D01*
X8081639Y-11878742D02*
X8091162Y-11897790D01*
X8091162Y-11897790D02*
X8091162Y-11907314D01*
X8091162Y-11907314D02*
X8081639Y-11926361D01*
X8081639Y-11926361D02*
X8072115Y-11935885D01*
X8072115Y-11935885D02*
X8053067Y-11945409D01*
X8053067Y-11945409D02*
X8014972Y-11945409D01*
X8014972Y-11945409D02*
X7995924Y-11954933D01*
X7995924Y-11954933D02*
X7986401Y-11964457D01*
X7986401Y-11964457D02*
X7976877Y-11983504D01*
X7976877Y-11983504D02*
X7976877Y-12021599D01*
X7976877Y-12021599D02*
X7986401Y-12040647D01*
X7986401Y-12040647D02*
X7995924Y-12050171D01*
X7995924Y-12050171D02*
X8014972Y-12059695D01*
X8014972Y-12059695D02*
X8053067Y-12059695D01*
X8053067Y-12059695D02*
X8072115Y-12050171D01*
X8072115Y-12050171D02*
X8081639Y-12040647D01*
X8081639Y-12040647D02*
X8091162Y-12021599D01*
X8091162Y-12021599D02*
X8091162Y-11983504D01*
X8091162Y-11983504D02*
X8081639Y-11964457D01*
X8081639Y-11964457D02*
X8072115Y-11954933D01*
X8072115Y-11954933D02*
X8053067Y-11945409D01*
X8214972Y-11859695D02*
X8234020Y-11859695D01*
X8234020Y-11859695D02*
X8253067Y-11869218D01*
X8253067Y-11869218D02*
X8262591Y-11878742D01*
X8262591Y-11878742D02*
X8272115Y-11897790D01*
X8272115Y-11897790D02*
X8281639Y-11935885D01*
X8281639Y-11935885D02*
X8281639Y-11983504D01*
X8281639Y-11983504D02*
X8272115Y-12021599D01*
X8272115Y-12021599D02*
X8262591Y-12040647D01*
X8262591Y-12040647D02*
X8253067Y-12050171D01*
X8253067Y-12050171D02*
X8234020Y-12059695D01*
X8234020Y-12059695D02*
X8214972Y-12059695D01*
X8214972Y-12059695D02*
X8195924Y-12050171D01*
X8195924Y-12050171D02*
X8186401Y-12040647D01*
X8186401Y-12040647D02*
X8176877Y-12021599D01*
X8176877Y-12021599D02*
X8167353Y-11983504D01*
X8167353Y-11983504D02*
X8167353Y-11935885D01*
X8167353Y-11935885D02*
X8176877Y-11897790D01*
X8176877Y-11897790D02*
X8186401Y-11878742D01*
X8186401Y-11878742D02*
X8195924Y-11869218D01*
X8195924Y-11869218D02*
X8214972Y-11859695D01*
X8405448Y-11859695D02*
X8424496Y-11859695D01*
X8424496Y-11859695D02*
X8443544Y-11869218D01*
X8443544Y-11869218D02*
X8453067Y-11878742D01*
X8453067Y-11878742D02*
X8462591Y-11897790D01*
X8462591Y-11897790D02*
X8472115Y-11935885D01*
X8472115Y-11935885D02*
X8472115Y-11983504D01*
X8472115Y-11983504D02*
X8462591Y-12021599D01*
X8462591Y-12021599D02*
X8453067Y-12040647D01*
X8453067Y-12040647D02*
X8443544Y-12050171D01*
X8443544Y-12050171D02*
X8424496Y-12059695D01*
X8424496Y-12059695D02*
X8405448Y-12059695D01*
X8405448Y-12059695D02*
X8386401Y-12050171D01*
X8386401Y-12050171D02*
X8376877Y-12040647D01*
X8376877Y-12040647D02*
X8367353Y-12021599D01*
X8367353Y-12021599D02*
X8357829Y-11983504D01*
X8357829Y-11983504D02*
X8357829Y-11935885D01*
X8357829Y-11935885D02*
X8367353Y-11897790D01*
X8367353Y-11897790D02*
X8376877Y-11878742D01*
X8376877Y-11878742D02*
X8386401Y-11869218D01*
X8386401Y-11869218D02*
X8405448Y-11859695D01*
X8557829Y-12059695D02*
X8557829Y-11926361D01*
X8557829Y-11945409D02*
X8567353Y-11935885D01*
X8567353Y-11935885D02*
X8586401Y-11926361D01*
X8586401Y-11926361D02*
X8614972Y-11926361D01*
X8614972Y-11926361D02*
X8634020Y-11935885D01*
X8634020Y-11935885D02*
X8643544Y-11954933D01*
X8643544Y-11954933D02*
X8643544Y-12059695D01*
X8643544Y-11954933D02*
X8653067Y-11935885D01*
X8653067Y-11935885D02*
X8672115Y-11926361D01*
X8672115Y-11926361D02*
X8700686Y-11926361D01*
X8700686Y-11926361D02*
X8719734Y-11935885D01*
X8719734Y-11935885D02*
X8729258Y-11954933D01*
X8729258Y-11954933D02*
X8729258Y-12059695D01*
X8824496Y-12059695D02*
X8824496Y-11926361D01*
X8824496Y-11945409D02*
X8834020Y-11935885D01*
X8834020Y-11935885D02*
X8853067Y-11926361D01*
X8853067Y-11926361D02*
X8881639Y-11926361D01*
X8881639Y-11926361D02*
X8900686Y-11935885D01*
X8900686Y-11935885D02*
X8910210Y-11954933D01*
X8910210Y-11954933D02*
X8910210Y-12059695D01*
X8910210Y-11954933D02*
X8919734Y-11935885D01*
X8919734Y-11935885D02*
X8938782Y-11926361D01*
X8938782Y-11926361D02*
X8967353Y-11926361D01*
X8967353Y-11926361D02*
X8986401Y-11935885D01*
X8986401Y-11935885D02*
X8995925Y-11954933D01*
X8995925Y-11954933D02*
X8995925Y-12059695D01*
X9386401Y-11850171D02*
X9214972Y-12107314D01*
X9643544Y-11859695D02*
X9662591Y-11859695D01*
X9662591Y-11859695D02*
X9681639Y-11869218D01*
X9681639Y-11869218D02*
X9691163Y-11878742D01*
X9691163Y-11878742D02*
X9700687Y-11897790D01*
X9700687Y-11897790D02*
X9710210Y-11935885D01*
X9710210Y-11935885D02*
X9710210Y-11983504D01*
X9710210Y-11983504D02*
X9700687Y-12021599D01*
X9700687Y-12021599D02*
X9691163Y-12040647D01*
X9691163Y-12040647D02*
X9681639Y-12050171D01*
X9681639Y-12050171D02*
X9662591Y-12059695D01*
X9662591Y-12059695D02*
X9643544Y-12059695D01*
X9643544Y-12059695D02*
X9624496Y-12050171D01*
X9624496Y-12050171D02*
X9614972Y-12040647D01*
X9614972Y-12040647D02*
X9605448Y-12021599D01*
X9605448Y-12021599D02*
X9595925Y-11983504D01*
X9595925Y-11983504D02*
X9595925Y-11935885D01*
X9595925Y-11935885D02*
X9605448Y-11897790D01*
X9605448Y-11897790D02*
X9614972Y-11878742D01*
X9614972Y-11878742D02*
X9624496Y-11869218D01*
X9624496Y-11869218D02*
X9643544Y-11859695D01*
X9795925Y-12040647D02*
X9805448Y-12050171D01*
X9805448Y-12050171D02*
X9795925Y-12059695D01*
X9795925Y-12059695D02*
X9786401Y-12050171D01*
X9786401Y-12050171D02*
X9795925Y-12040647D01*
X9795925Y-12040647D02*
X9795925Y-12059695D01*
X9929258Y-11859695D02*
X9948306Y-11859695D01*
X9948306Y-11859695D02*
X9967353Y-11869218D01*
X9967353Y-11869218D02*
X9976877Y-11878742D01*
X9976877Y-11878742D02*
X9986401Y-11897790D01*
X9986401Y-11897790D02*
X9995925Y-11935885D01*
X9995925Y-11935885D02*
X9995925Y-11983504D01*
X9995925Y-11983504D02*
X9986401Y-12021599D01*
X9986401Y-12021599D02*
X9976877Y-12040647D01*
X9976877Y-12040647D02*
X9967353Y-12050171D01*
X9967353Y-12050171D02*
X9948306Y-12059695D01*
X9948306Y-12059695D02*
X9929258Y-12059695D01*
X9929258Y-12059695D02*
X9910210Y-12050171D01*
X9910210Y-12050171D02*
X9900687Y-12040647D01*
X9900687Y-12040647D02*
X9891163Y-12021599D01*
X9891163Y-12021599D02*
X9881639Y-11983504D01*
X9881639Y-11983504D02*
X9881639Y-11935885D01*
X9881639Y-11935885D02*
X9891163Y-11897790D01*
X9891163Y-11897790D02*
X9900687Y-11878742D01*
X9900687Y-11878742D02*
X9910210Y-11869218D01*
X9910210Y-11869218D02*
X9929258Y-11859695D01*
X10062591Y-11859695D02*
X10186401Y-11859695D01*
X10186401Y-11859695D02*
X10119734Y-11935885D01*
X10119734Y-11935885D02*
X10148306Y-11935885D01*
X10148306Y-11935885D02*
X10167353Y-11945409D01*
X10167353Y-11945409D02*
X10176877Y-11954933D01*
X10176877Y-11954933D02*
X10186401Y-11973980D01*
X10186401Y-11973980D02*
X10186401Y-12021599D01*
X10186401Y-12021599D02*
X10176877Y-12040647D01*
X10176877Y-12040647D02*
X10167353Y-12050171D01*
X10167353Y-12050171D02*
X10148306Y-12059695D01*
X10148306Y-12059695D02*
X10091163Y-12059695D01*
X10091163Y-12059695D02*
X10072115Y-12050171D01*
X10072115Y-12050171D02*
X10062591Y-12040647D01*
X10376877Y-12059695D02*
X10262591Y-12059695D01*
X10319734Y-12059695D02*
X10319734Y-11859695D01*
X10319734Y-11859695D02*
X10300687Y-11888266D01*
X10300687Y-11888266D02*
X10281639Y-11907314D01*
X10281639Y-11907314D02*
X10262591Y-11916837D01*
X10557829Y-11859695D02*
X10462591Y-11859695D01*
X10462591Y-11859695D02*
X10453068Y-11954933D01*
X10453068Y-11954933D02*
X10462591Y-11945409D01*
X10462591Y-11945409D02*
X10481639Y-11935885D01*
X10481639Y-11935885D02*
X10529258Y-11935885D01*
X10529258Y-11935885D02*
X10548306Y-11945409D01*
X10548306Y-11945409D02*
X10557829Y-11954933D01*
X10557829Y-11954933D02*
X10567353Y-11973980D01*
X10567353Y-11973980D02*
X10567353Y-12021599D01*
X10567353Y-12021599D02*
X10557829Y-12040647D01*
X10557829Y-12040647D02*
X10548306Y-12050171D01*
X10548306Y-12050171D02*
X10529258Y-12059695D01*
X10529258Y-12059695D02*
X10481639Y-12059695D01*
X10481639Y-12059695D02*
X10462591Y-12050171D01*
X10462591Y-12050171D02*
X10453068Y-12040647D01*
X10643544Y-11859695D02*
X10643544Y-11897790D01*
X10719734Y-11859695D02*
X10719734Y-11897790D01*
X11014972Y-12135885D02*
X11005449Y-12126361D01*
X11005449Y-12126361D02*
X10986401Y-12097790D01*
X10986401Y-12097790D02*
X10976877Y-12078742D01*
X10976877Y-12078742D02*
X10967353Y-12050171D01*
X10967353Y-12050171D02*
X10957830Y-12002552D01*
X10957830Y-12002552D02*
X10957830Y-11964457D01*
X10957830Y-11964457D02*
X10967353Y-11916837D01*
X10967353Y-11916837D02*
X10976877Y-11888266D01*
X10976877Y-11888266D02*
X10986401Y-11869218D01*
X10986401Y-11869218D02*
X11005449Y-11840647D01*
X11005449Y-11840647D02*
X11014972Y-11831123D01*
X11081639Y-11878742D02*
X11091163Y-11869218D01*
X11091163Y-11869218D02*
X11110210Y-11859695D01*
X11110210Y-11859695D02*
X11157830Y-11859695D01*
X11157830Y-11859695D02*
X11176877Y-11869218D01*
X11176877Y-11869218D02*
X11186401Y-11878742D01*
X11186401Y-11878742D02*
X11195925Y-11897790D01*
X11195925Y-11897790D02*
X11195925Y-11916837D01*
X11195925Y-11916837D02*
X11186401Y-11945409D01*
X11186401Y-11945409D02*
X11072115Y-12059695D01*
X11072115Y-12059695D02*
X11195925Y-12059695D01*
X11310210Y-11945409D02*
X11291163Y-11935885D01*
X11291163Y-11935885D02*
X11281639Y-11926361D01*
X11281639Y-11926361D02*
X11272115Y-11907314D01*
X11272115Y-11907314D02*
X11272115Y-11897790D01*
X11272115Y-11897790D02*
X11281639Y-11878742D01*
X11281639Y-11878742D02*
X11291163Y-11869218D01*
X11291163Y-11869218D02*
X11310210Y-11859695D01*
X11310210Y-11859695D02*
X11348306Y-11859695D01*
X11348306Y-11859695D02*
X11367353Y-11869218D01*
X11367353Y-11869218D02*
X11376877Y-11878742D01*
X11376877Y-11878742D02*
X11386401Y-11897790D01*
X11386401Y-11897790D02*
X11386401Y-11907314D01*
X11386401Y-11907314D02*
X11376877Y-11926361D01*
X11376877Y-11926361D02*
X11367353Y-11935885D01*
X11367353Y-11935885D02*
X11348306Y-11945409D01*
X11348306Y-11945409D02*
X11310210Y-11945409D01*
X11310210Y-11945409D02*
X11291163Y-11954933D01*
X11291163Y-11954933D02*
X11281639Y-11964457D01*
X11281639Y-11964457D02*
X11272115Y-11983504D01*
X11272115Y-11983504D02*
X11272115Y-12021599D01*
X11272115Y-12021599D02*
X11281639Y-12040647D01*
X11281639Y-12040647D02*
X11291163Y-12050171D01*
X11291163Y-12050171D02*
X11310210Y-12059695D01*
X11310210Y-12059695D02*
X11348306Y-12059695D01*
X11348306Y-12059695D02*
X11367353Y-12050171D01*
X11367353Y-12050171D02*
X11376877Y-12040647D01*
X11376877Y-12040647D02*
X11386401Y-12021599D01*
X11386401Y-12021599D02*
X11386401Y-11983504D01*
X11386401Y-11983504D02*
X11376877Y-11964457D01*
X11376877Y-11964457D02*
X11367353Y-11954933D01*
X11367353Y-11954933D02*
X11348306Y-11945409D01*
X11624496Y-12059695D02*
X11624496Y-11859695D01*
X11710210Y-12059695D02*
X11710210Y-11954933D01*
X11710210Y-11954933D02*
X11700687Y-11935885D01*
X11700687Y-11935885D02*
X11681639Y-11926361D01*
X11681639Y-11926361D02*
X11653068Y-11926361D01*
X11653068Y-11926361D02*
X11634020Y-11935885D01*
X11634020Y-11935885D02*
X11624496Y-11945409D01*
X11834020Y-12059695D02*
X11814972Y-12050171D01*
X11814972Y-12050171D02*
X11805449Y-12040647D01*
X11805449Y-12040647D02*
X11795925Y-12021599D01*
X11795925Y-12021599D02*
X11795925Y-11964457D01*
X11795925Y-11964457D02*
X11805449Y-11945409D01*
X11805449Y-11945409D02*
X11814972Y-11935885D01*
X11814972Y-11935885D02*
X11834020Y-11926361D01*
X11834020Y-11926361D02*
X11862591Y-11926361D01*
X11862591Y-11926361D02*
X11881639Y-11935885D01*
X11881639Y-11935885D02*
X11891163Y-11945409D01*
X11891163Y-11945409D02*
X11900687Y-11964457D01*
X11900687Y-11964457D02*
X11900687Y-12021599D01*
X11900687Y-12021599D02*
X11891163Y-12040647D01*
X11891163Y-12040647D02*
X11881639Y-12050171D01*
X11881639Y-12050171D02*
X11862591Y-12059695D01*
X11862591Y-12059695D02*
X11834020Y-12059695D01*
X12014972Y-12059695D02*
X11995925Y-12050171D01*
X11995925Y-12050171D02*
X11986401Y-12031123D01*
X11986401Y-12031123D02*
X11986401Y-11859695D01*
X12167353Y-12050171D02*
X12148306Y-12059695D01*
X12148306Y-12059695D02*
X12110210Y-12059695D01*
X12110210Y-12059695D02*
X12091163Y-12050171D01*
X12091163Y-12050171D02*
X12081639Y-12031123D01*
X12081639Y-12031123D02*
X12081639Y-11954933D01*
X12081639Y-11954933D02*
X12091163Y-11935885D01*
X12091163Y-11935885D02*
X12110210Y-11926361D01*
X12110210Y-11926361D02*
X12148306Y-11926361D01*
X12148306Y-11926361D02*
X12167353Y-11935885D01*
X12167353Y-11935885D02*
X12176877Y-11954933D01*
X12176877Y-11954933D02*
X12176877Y-11973980D01*
X12176877Y-11973980D02*
X12081639Y-11993028D01*
X12253068Y-12050171D02*
X12272115Y-12059695D01*
X12272115Y-12059695D02*
X12310210Y-12059695D01*
X12310210Y-12059695D02*
X12329258Y-12050171D01*
X12329258Y-12050171D02*
X12338782Y-12031123D01*
X12338782Y-12031123D02*
X12338782Y-12021599D01*
X12338782Y-12021599D02*
X12329258Y-12002552D01*
X12329258Y-12002552D02*
X12310210Y-11993028D01*
X12310210Y-11993028D02*
X12281639Y-11993028D01*
X12281639Y-11993028D02*
X12262591Y-11983504D01*
X12262591Y-11983504D02*
X12253068Y-11964457D01*
X12253068Y-11964457D02*
X12253068Y-11954933D01*
X12253068Y-11954933D02*
X12262591Y-11935885D01*
X12262591Y-11935885D02*
X12281639Y-11926361D01*
X12281639Y-11926361D02*
X12310210Y-11926361D01*
X12310210Y-11926361D02*
X12329258Y-11935885D01*
X12405449Y-12135885D02*
X12414972Y-12126361D01*
X12414972Y-12126361D02*
X12434020Y-12097790D01*
X12434020Y-12097790D02*
X12443544Y-12078742D01*
X12443544Y-12078742D02*
X12453068Y-12050171D01*
X12453068Y-12050171D02*
X12462591Y-12002552D01*
X12462591Y-12002552D02*
X12462591Y-11964457D01*
X12462591Y-11964457D02*
X12453068Y-11916837D01*
X12453068Y-11916837D02*
X12443544Y-11888266D01*
X12443544Y-11888266D02*
X12434020Y-11869218D01*
X12434020Y-11869218D02*
X12414972Y-11840647D01*
X12414972Y-11840647D02*
X12405449Y-11831123D01*
D13*
X7423801Y-12271102D02*
X7423801Y-12193320D01*
X7346018Y-12193320D01*
X7346018Y-12271102D01*
X7423801Y-12271102D01*
D11*
X7805448Y-12323695D02*
X7691162Y-12323695D01*
X7748305Y-12323695D02*
X7748305Y-12123695D01*
X7748305Y-12123695D02*
X7729258Y-12152266D01*
X7729258Y-12152266D02*
X7710210Y-12171314D01*
X7710210Y-12171314D02*
X7691162Y-12180837D01*
X7891162Y-12304647D02*
X7900686Y-12314171D01*
X7900686Y-12314171D02*
X7891162Y-12323695D01*
X7891162Y-12323695D02*
X7881639Y-12314171D01*
X7881639Y-12314171D02*
X7891162Y-12304647D01*
X7891162Y-12304647D02*
X7891162Y-12323695D01*
X8091162Y-12323695D02*
X7976877Y-12323695D01*
X8034020Y-12323695D02*
X8034020Y-12123695D01*
X8034020Y-12123695D02*
X8014972Y-12152266D01*
X8014972Y-12152266D02*
X7995924Y-12171314D01*
X7995924Y-12171314D02*
X7976877Y-12180837D01*
X8214972Y-12123695D02*
X8234020Y-12123695D01*
X8234020Y-12123695D02*
X8253067Y-12133218D01*
X8253067Y-12133218D02*
X8262591Y-12142742D01*
X8262591Y-12142742D02*
X8272115Y-12161790D01*
X8272115Y-12161790D02*
X8281639Y-12199885D01*
X8281639Y-12199885D02*
X8281639Y-12247504D01*
X8281639Y-12247504D02*
X8272115Y-12285599D01*
X8272115Y-12285599D02*
X8262591Y-12304647D01*
X8262591Y-12304647D02*
X8253067Y-12314171D01*
X8253067Y-12314171D02*
X8234020Y-12323695D01*
X8234020Y-12323695D02*
X8214972Y-12323695D01*
X8214972Y-12323695D02*
X8195924Y-12314171D01*
X8195924Y-12314171D02*
X8186401Y-12304647D01*
X8186401Y-12304647D02*
X8176877Y-12285599D01*
X8176877Y-12285599D02*
X8167353Y-12247504D01*
X8167353Y-12247504D02*
X8167353Y-12199885D01*
X8167353Y-12199885D02*
X8176877Y-12161790D01*
X8176877Y-12161790D02*
X8186401Y-12142742D01*
X8186401Y-12142742D02*
X8195924Y-12133218D01*
X8195924Y-12133218D02*
X8214972Y-12123695D01*
X8405448Y-12123695D02*
X8424496Y-12123695D01*
X8424496Y-12123695D02*
X8443544Y-12133218D01*
X8443544Y-12133218D02*
X8453067Y-12142742D01*
X8453067Y-12142742D02*
X8462591Y-12161790D01*
X8462591Y-12161790D02*
X8472115Y-12199885D01*
X8472115Y-12199885D02*
X8472115Y-12247504D01*
X8472115Y-12247504D02*
X8462591Y-12285599D01*
X8462591Y-12285599D02*
X8453067Y-12304647D01*
X8453067Y-12304647D02*
X8443544Y-12314171D01*
X8443544Y-12314171D02*
X8424496Y-12323695D01*
X8424496Y-12323695D02*
X8405448Y-12323695D01*
X8405448Y-12323695D02*
X8386401Y-12314171D01*
X8386401Y-12314171D02*
X8376877Y-12304647D01*
X8376877Y-12304647D02*
X8367353Y-12285599D01*
X8367353Y-12285599D02*
X8357829Y-12247504D01*
X8357829Y-12247504D02*
X8357829Y-12199885D01*
X8357829Y-12199885D02*
X8367353Y-12161790D01*
X8367353Y-12161790D02*
X8376877Y-12142742D01*
X8376877Y-12142742D02*
X8386401Y-12133218D01*
X8386401Y-12133218D02*
X8405448Y-12123695D01*
X8557829Y-12323695D02*
X8557829Y-12190361D01*
X8557829Y-12209409D02*
X8567353Y-12199885D01*
X8567353Y-12199885D02*
X8586401Y-12190361D01*
X8586401Y-12190361D02*
X8614972Y-12190361D01*
X8614972Y-12190361D02*
X8634020Y-12199885D01*
X8634020Y-12199885D02*
X8643544Y-12218933D01*
X8643544Y-12218933D02*
X8643544Y-12323695D01*
X8643544Y-12218933D02*
X8653067Y-12199885D01*
X8653067Y-12199885D02*
X8672115Y-12190361D01*
X8672115Y-12190361D02*
X8700686Y-12190361D01*
X8700686Y-12190361D02*
X8719734Y-12199885D01*
X8719734Y-12199885D02*
X8729258Y-12218933D01*
X8729258Y-12218933D02*
X8729258Y-12323695D01*
X8824496Y-12323695D02*
X8824496Y-12190361D01*
X8824496Y-12209409D02*
X8834020Y-12199885D01*
X8834020Y-12199885D02*
X8853067Y-12190361D01*
X8853067Y-12190361D02*
X8881639Y-12190361D01*
X8881639Y-12190361D02*
X8900686Y-12199885D01*
X8900686Y-12199885D02*
X8910210Y-12218933D01*
X8910210Y-12218933D02*
X8910210Y-12323695D01*
X8910210Y-12218933D02*
X8919734Y-12199885D01*
X8919734Y-12199885D02*
X8938782Y-12190361D01*
X8938782Y-12190361D02*
X8967353Y-12190361D01*
X8967353Y-12190361D02*
X8986401Y-12199885D01*
X8986401Y-12199885D02*
X8995925Y-12218933D01*
X8995925Y-12218933D02*
X8995925Y-12323695D01*
X9386401Y-12114171D02*
X9214972Y-12371314D01*
X9643544Y-12123695D02*
X9662591Y-12123695D01*
X9662591Y-12123695D02*
X9681639Y-12133218D01*
X9681639Y-12133218D02*
X9691163Y-12142742D01*
X9691163Y-12142742D02*
X9700687Y-12161790D01*
X9700687Y-12161790D02*
X9710210Y-12199885D01*
X9710210Y-12199885D02*
X9710210Y-12247504D01*
X9710210Y-12247504D02*
X9700687Y-12285599D01*
X9700687Y-12285599D02*
X9691163Y-12304647D01*
X9691163Y-12304647D02*
X9681639Y-12314171D01*
X9681639Y-12314171D02*
X9662591Y-12323695D01*
X9662591Y-12323695D02*
X9643544Y-12323695D01*
X9643544Y-12323695D02*
X9624496Y-12314171D01*
X9624496Y-12314171D02*
X9614972Y-12304647D01*
X9614972Y-12304647D02*
X9605448Y-12285599D01*
X9605448Y-12285599D02*
X9595925Y-12247504D01*
X9595925Y-12247504D02*
X9595925Y-12199885D01*
X9595925Y-12199885D02*
X9605448Y-12161790D01*
X9605448Y-12161790D02*
X9614972Y-12142742D01*
X9614972Y-12142742D02*
X9624496Y-12133218D01*
X9624496Y-12133218D02*
X9643544Y-12123695D01*
X9795925Y-12304647D02*
X9805448Y-12314171D01*
X9805448Y-12314171D02*
X9795925Y-12323695D01*
X9795925Y-12323695D02*
X9786401Y-12314171D01*
X9786401Y-12314171D02*
X9795925Y-12304647D01*
X9795925Y-12304647D02*
X9795925Y-12323695D01*
X9929258Y-12123695D02*
X9948306Y-12123695D01*
X9948306Y-12123695D02*
X9967353Y-12133218D01*
X9967353Y-12133218D02*
X9976877Y-12142742D01*
X9976877Y-12142742D02*
X9986401Y-12161790D01*
X9986401Y-12161790D02*
X9995925Y-12199885D01*
X9995925Y-12199885D02*
X9995925Y-12247504D01*
X9995925Y-12247504D02*
X9986401Y-12285599D01*
X9986401Y-12285599D02*
X9976877Y-12304647D01*
X9976877Y-12304647D02*
X9967353Y-12314171D01*
X9967353Y-12314171D02*
X9948306Y-12323695D01*
X9948306Y-12323695D02*
X9929258Y-12323695D01*
X9929258Y-12323695D02*
X9910210Y-12314171D01*
X9910210Y-12314171D02*
X9900687Y-12304647D01*
X9900687Y-12304647D02*
X9891163Y-12285599D01*
X9891163Y-12285599D02*
X9881639Y-12247504D01*
X9881639Y-12247504D02*
X9881639Y-12199885D01*
X9881639Y-12199885D02*
X9891163Y-12161790D01*
X9891163Y-12161790D02*
X9900687Y-12142742D01*
X9900687Y-12142742D02*
X9910210Y-12133218D01*
X9910210Y-12133218D02*
X9929258Y-12123695D01*
X10167353Y-12190361D02*
X10167353Y-12323695D01*
X10119734Y-12114171D02*
X10072115Y-12257028D01*
X10072115Y-12257028D02*
X10195925Y-12257028D01*
X10253068Y-12123695D02*
X10376877Y-12123695D01*
X10376877Y-12123695D02*
X10310210Y-12199885D01*
X10310210Y-12199885D02*
X10338782Y-12199885D01*
X10338782Y-12199885D02*
X10357829Y-12209409D01*
X10357829Y-12209409D02*
X10367353Y-12218933D01*
X10367353Y-12218933D02*
X10376877Y-12237980D01*
X10376877Y-12237980D02*
X10376877Y-12285599D01*
X10376877Y-12285599D02*
X10367353Y-12304647D01*
X10367353Y-12304647D02*
X10357829Y-12314171D01*
X10357829Y-12314171D02*
X10338782Y-12323695D01*
X10338782Y-12323695D02*
X10281639Y-12323695D01*
X10281639Y-12323695D02*
X10262591Y-12314171D01*
X10262591Y-12314171D02*
X10253068Y-12304647D01*
X10443544Y-12123695D02*
X10567353Y-12123695D01*
X10567353Y-12123695D02*
X10500687Y-12199885D01*
X10500687Y-12199885D02*
X10529258Y-12199885D01*
X10529258Y-12199885D02*
X10548306Y-12209409D01*
X10548306Y-12209409D02*
X10557829Y-12218933D01*
X10557829Y-12218933D02*
X10567353Y-12237980D01*
X10567353Y-12237980D02*
X10567353Y-12285599D01*
X10567353Y-12285599D02*
X10557829Y-12304647D01*
X10557829Y-12304647D02*
X10548306Y-12314171D01*
X10548306Y-12314171D02*
X10529258Y-12323695D01*
X10529258Y-12323695D02*
X10472115Y-12323695D01*
X10472115Y-12323695D02*
X10453068Y-12314171D01*
X10453068Y-12314171D02*
X10443544Y-12304647D01*
X10643544Y-12123695D02*
X10643544Y-12161790D01*
X10719734Y-12123695D02*
X10719734Y-12161790D01*
X11014972Y-12399885D02*
X11005449Y-12390361D01*
X11005449Y-12390361D02*
X10986401Y-12361790D01*
X10986401Y-12361790D02*
X10976877Y-12342742D01*
X10976877Y-12342742D02*
X10967353Y-12314171D01*
X10967353Y-12314171D02*
X10957830Y-12266552D01*
X10957830Y-12266552D02*
X10957830Y-12228457D01*
X10957830Y-12228457D02*
X10967353Y-12180837D01*
X10967353Y-12180837D02*
X10976877Y-12152266D01*
X10976877Y-12152266D02*
X10986401Y-12133218D01*
X10986401Y-12133218D02*
X11005449Y-12104647D01*
X11005449Y-12104647D02*
X11014972Y-12095123D01*
X11195925Y-12323695D02*
X11081639Y-12323695D01*
X11138782Y-12323695D02*
X11138782Y-12123695D01*
X11138782Y-12123695D02*
X11119734Y-12152266D01*
X11119734Y-12152266D02*
X11100687Y-12171314D01*
X11100687Y-12171314D02*
X11081639Y-12180837D01*
X11367353Y-12190361D02*
X11367353Y-12323695D01*
X11319734Y-12114171D02*
X11272115Y-12257028D01*
X11272115Y-12257028D02*
X11395925Y-12257028D01*
X11557829Y-12190361D02*
X11557829Y-12323695D01*
X11510210Y-12114171D02*
X11462591Y-12257028D01*
X11462591Y-12257028D02*
X11586401Y-12257028D01*
X11814972Y-12323695D02*
X11814972Y-12123695D01*
X11900687Y-12323695D02*
X11900687Y-12218933D01*
X11900687Y-12218933D02*
X11891163Y-12199885D01*
X11891163Y-12199885D02*
X11872115Y-12190361D01*
X11872115Y-12190361D02*
X11843544Y-12190361D01*
X11843544Y-12190361D02*
X11824496Y-12199885D01*
X11824496Y-12199885D02*
X11814972Y-12209409D01*
X12024496Y-12323695D02*
X12005449Y-12314171D01*
X12005449Y-12314171D02*
X11995925Y-12304647D01*
X11995925Y-12304647D02*
X11986401Y-12285599D01*
X11986401Y-12285599D02*
X11986401Y-12228457D01*
X11986401Y-12228457D02*
X11995925Y-12209409D01*
X11995925Y-12209409D02*
X12005449Y-12199885D01*
X12005449Y-12199885D02*
X12024496Y-12190361D01*
X12024496Y-12190361D02*
X12053068Y-12190361D01*
X12053068Y-12190361D02*
X12072115Y-12199885D01*
X12072115Y-12199885D02*
X12081639Y-12209409D01*
X12081639Y-12209409D02*
X12091163Y-12228457D01*
X12091163Y-12228457D02*
X12091163Y-12285599D01*
X12091163Y-12285599D02*
X12081639Y-12304647D01*
X12081639Y-12304647D02*
X12072115Y-12314171D01*
X12072115Y-12314171D02*
X12053068Y-12323695D01*
X12053068Y-12323695D02*
X12024496Y-12323695D01*
X12205449Y-12323695D02*
X12186401Y-12314171D01*
X12186401Y-12314171D02*
X12176877Y-12295123D01*
X12176877Y-12295123D02*
X12176877Y-12123695D01*
X12357830Y-12314171D02*
X12338782Y-12323695D01*
X12338782Y-12323695D02*
X12300687Y-12323695D01*
X12300687Y-12323695D02*
X12281639Y-12314171D01*
X12281639Y-12314171D02*
X12272115Y-12295123D01*
X12272115Y-12295123D02*
X12272115Y-12218933D01*
X12272115Y-12218933D02*
X12281639Y-12199885D01*
X12281639Y-12199885D02*
X12300687Y-12190361D01*
X12300687Y-12190361D02*
X12338782Y-12190361D01*
X12338782Y-12190361D02*
X12357830Y-12199885D01*
X12357830Y-12199885D02*
X12367353Y-12218933D01*
X12367353Y-12218933D02*
X12367353Y-12237980D01*
X12367353Y-12237980D02*
X12272115Y-12257028D01*
X12443544Y-12314171D02*
X12462591Y-12323695D01*
X12462591Y-12323695D02*
X12500687Y-12323695D01*
X12500687Y-12323695D02*
X12519734Y-12314171D01*
X12519734Y-12314171D02*
X12529258Y-12295123D01*
X12529258Y-12295123D02*
X12529258Y-12285599D01*
X12529258Y-12285599D02*
X12519734Y-12266552D01*
X12519734Y-12266552D02*
X12500687Y-12257028D01*
X12500687Y-12257028D02*
X12472115Y-12257028D01*
X12472115Y-12257028D02*
X12453068Y-12247504D01*
X12453068Y-12247504D02*
X12443544Y-12228457D01*
X12443544Y-12228457D02*
X12443544Y-12218933D01*
X12443544Y-12218933D02*
X12453068Y-12199885D01*
X12453068Y-12199885D02*
X12472115Y-12190361D01*
X12472115Y-12190361D02*
X12500687Y-12190361D01*
X12500687Y-12190361D02*
X12519734Y-12199885D01*
X12595925Y-12399885D02*
X12605449Y-12390361D01*
X12605449Y-12390361D02*
X12624496Y-12361790D01*
X12624496Y-12361790D02*
X12634020Y-12342742D01*
X12634020Y-12342742D02*
X12643544Y-12314171D01*
X12643544Y-12314171D02*
X12653068Y-12266552D01*
X12653068Y-12266552D02*
X12653068Y-12228457D01*
X12653068Y-12228457D02*
X12643544Y-12180837D01*
X12643544Y-12180837D02*
X12634020Y-12152266D01*
X12634020Y-12152266D02*
X12624496Y-12133218D01*
X12624496Y-12133218D02*
X12605449Y-12104647D01*
X12605449Y-12104647D02*
X12595925Y-12095123D01*
X7339909Y-12596211D02*
X7439909Y-12496211D01*
X7339909Y-12396211D01*
X7239909Y-12496211D01*
X7339909Y-12596211D01*
X7691162Y-12406742D02*
X7700686Y-12397218D01*
X7700686Y-12397218D02*
X7719734Y-12387695D01*
X7719734Y-12387695D02*
X7767353Y-12387695D01*
X7767353Y-12387695D02*
X7786401Y-12397218D01*
X7786401Y-12397218D02*
X7795924Y-12406742D01*
X7795924Y-12406742D02*
X7805448Y-12425790D01*
X7805448Y-12425790D02*
X7805448Y-12444837D01*
X7805448Y-12444837D02*
X7795924Y-12473409D01*
X7795924Y-12473409D02*
X7681639Y-12587695D01*
X7681639Y-12587695D02*
X7805448Y-12587695D01*
X7891162Y-12568647D02*
X7900686Y-12578171D01*
X7900686Y-12578171D02*
X7891162Y-12587695D01*
X7891162Y-12587695D02*
X7881639Y-12578171D01*
X7881639Y-12578171D02*
X7891162Y-12568647D01*
X7891162Y-12568647D02*
X7891162Y-12587695D01*
X7976877Y-12406742D02*
X7986401Y-12397218D01*
X7986401Y-12397218D02*
X8005448Y-12387695D01*
X8005448Y-12387695D02*
X8053067Y-12387695D01*
X8053067Y-12387695D02*
X8072115Y-12397218D01*
X8072115Y-12397218D02*
X8081639Y-12406742D01*
X8081639Y-12406742D02*
X8091162Y-12425790D01*
X8091162Y-12425790D02*
X8091162Y-12444837D01*
X8091162Y-12444837D02*
X8081639Y-12473409D01*
X8081639Y-12473409D02*
X7967353Y-12587695D01*
X7967353Y-12587695D02*
X8091162Y-12587695D01*
X8214972Y-12387695D02*
X8234020Y-12387695D01*
X8234020Y-12387695D02*
X8253067Y-12397218D01*
X8253067Y-12397218D02*
X8262591Y-12406742D01*
X8262591Y-12406742D02*
X8272115Y-12425790D01*
X8272115Y-12425790D02*
X8281639Y-12463885D01*
X8281639Y-12463885D02*
X8281639Y-12511504D01*
X8281639Y-12511504D02*
X8272115Y-12549599D01*
X8272115Y-12549599D02*
X8262591Y-12568647D01*
X8262591Y-12568647D02*
X8253067Y-12578171D01*
X8253067Y-12578171D02*
X8234020Y-12587695D01*
X8234020Y-12587695D02*
X8214972Y-12587695D01*
X8214972Y-12587695D02*
X8195924Y-12578171D01*
X8195924Y-12578171D02*
X8186401Y-12568647D01*
X8186401Y-12568647D02*
X8176877Y-12549599D01*
X8176877Y-12549599D02*
X8167353Y-12511504D01*
X8167353Y-12511504D02*
X8167353Y-12463885D01*
X8167353Y-12463885D02*
X8176877Y-12425790D01*
X8176877Y-12425790D02*
X8186401Y-12406742D01*
X8186401Y-12406742D02*
X8195924Y-12397218D01*
X8195924Y-12397218D02*
X8214972Y-12387695D01*
X8405448Y-12387695D02*
X8424496Y-12387695D01*
X8424496Y-12387695D02*
X8443544Y-12397218D01*
X8443544Y-12397218D02*
X8453067Y-12406742D01*
X8453067Y-12406742D02*
X8462591Y-12425790D01*
X8462591Y-12425790D02*
X8472115Y-12463885D01*
X8472115Y-12463885D02*
X8472115Y-12511504D01*
X8472115Y-12511504D02*
X8462591Y-12549599D01*
X8462591Y-12549599D02*
X8453067Y-12568647D01*
X8453067Y-12568647D02*
X8443544Y-12578171D01*
X8443544Y-12578171D02*
X8424496Y-12587695D01*
X8424496Y-12587695D02*
X8405448Y-12587695D01*
X8405448Y-12587695D02*
X8386401Y-12578171D01*
X8386401Y-12578171D02*
X8376877Y-12568647D01*
X8376877Y-12568647D02*
X8367353Y-12549599D01*
X8367353Y-12549599D02*
X8357829Y-12511504D01*
X8357829Y-12511504D02*
X8357829Y-12463885D01*
X8357829Y-12463885D02*
X8367353Y-12425790D01*
X8367353Y-12425790D02*
X8376877Y-12406742D01*
X8376877Y-12406742D02*
X8386401Y-12397218D01*
X8386401Y-12397218D02*
X8405448Y-12387695D01*
X8557829Y-12587695D02*
X8557829Y-12454361D01*
X8557829Y-12473409D02*
X8567353Y-12463885D01*
X8567353Y-12463885D02*
X8586401Y-12454361D01*
X8586401Y-12454361D02*
X8614972Y-12454361D01*
X8614972Y-12454361D02*
X8634020Y-12463885D01*
X8634020Y-12463885D02*
X8643544Y-12482933D01*
X8643544Y-12482933D02*
X8643544Y-12587695D01*
X8643544Y-12482933D02*
X8653067Y-12463885D01*
X8653067Y-12463885D02*
X8672115Y-12454361D01*
X8672115Y-12454361D02*
X8700686Y-12454361D01*
X8700686Y-12454361D02*
X8719734Y-12463885D01*
X8719734Y-12463885D02*
X8729258Y-12482933D01*
X8729258Y-12482933D02*
X8729258Y-12587695D01*
X8824496Y-12587695D02*
X8824496Y-12454361D01*
X8824496Y-12473409D02*
X8834020Y-12463885D01*
X8834020Y-12463885D02*
X8853067Y-12454361D01*
X8853067Y-12454361D02*
X8881639Y-12454361D01*
X8881639Y-12454361D02*
X8900686Y-12463885D01*
X8900686Y-12463885D02*
X8910210Y-12482933D01*
X8910210Y-12482933D02*
X8910210Y-12587695D01*
X8910210Y-12482933D02*
X8919734Y-12463885D01*
X8919734Y-12463885D02*
X8938782Y-12454361D01*
X8938782Y-12454361D02*
X8967353Y-12454361D01*
X8967353Y-12454361D02*
X8986401Y-12463885D01*
X8986401Y-12463885D02*
X8995925Y-12482933D01*
X8995925Y-12482933D02*
X8995925Y-12587695D01*
X9386401Y-12378171D02*
X9214972Y-12635314D01*
X9643544Y-12387695D02*
X9662591Y-12387695D01*
X9662591Y-12387695D02*
X9681639Y-12397218D01*
X9681639Y-12397218D02*
X9691163Y-12406742D01*
X9691163Y-12406742D02*
X9700687Y-12425790D01*
X9700687Y-12425790D02*
X9710210Y-12463885D01*
X9710210Y-12463885D02*
X9710210Y-12511504D01*
X9710210Y-12511504D02*
X9700687Y-12549599D01*
X9700687Y-12549599D02*
X9691163Y-12568647D01*
X9691163Y-12568647D02*
X9681639Y-12578171D01*
X9681639Y-12578171D02*
X9662591Y-12587695D01*
X9662591Y-12587695D02*
X9643544Y-12587695D01*
X9643544Y-12587695D02*
X9624496Y-12578171D01*
X9624496Y-12578171D02*
X9614972Y-12568647D01*
X9614972Y-12568647D02*
X9605448Y-12549599D01*
X9605448Y-12549599D02*
X9595925Y-12511504D01*
X9595925Y-12511504D02*
X9595925Y-12463885D01*
X9595925Y-12463885D02*
X9605448Y-12425790D01*
X9605448Y-12425790D02*
X9614972Y-12406742D01*
X9614972Y-12406742D02*
X9624496Y-12397218D01*
X9624496Y-12397218D02*
X9643544Y-12387695D01*
X9795925Y-12568647D02*
X9805448Y-12578171D01*
X9805448Y-12578171D02*
X9795925Y-12587695D01*
X9795925Y-12587695D02*
X9786401Y-12578171D01*
X9786401Y-12578171D02*
X9795925Y-12568647D01*
X9795925Y-12568647D02*
X9795925Y-12587695D01*
X9929258Y-12387695D02*
X9948306Y-12387695D01*
X9948306Y-12387695D02*
X9967353Y-12397218D01*
X9967353Y-12397218D02*
X9976877Y-12406742D01*
X9976877Y-12406742D02*
X9986401Y-12425790D01*
X9986401Y-12425790D02*
X9995925Y-12463885D01*
X9995925Y-12463885D02*
X9995925Y-12511504D01*
X9995925Y-12511504D02*
X9986401Y-12549599D01*
X9986401Y-12549599D02*
X9976877Y-12568647D01*
X9976877Y-12568647D02*
X9967353Y-12578171D01*
X9967353Y-12578171D02*
X9948306Y-12587695D01*
X9948306Y-12587695D02*
X9929258Y-12587695D01*
X9929258Y-12587695D02*
X9910210Y-12578171D01*
X9910210Y-12578171D02*
X9900687Y-12568647D01*
X9900687Y-12568647D02*
X9891163Y-12549599D01*
X9891163Y-12549599D02*
X9881639Y-12511504D01*
X9881639Y-12511504D02*
X9881639Y-12463885D01*
X9881639Y-12463885D02*
X9891163Y-12425790D01*
X9891163Y-12425790D02*
X9900687Y-12406742D01*
X9900687Y-12406742D02*
X9910210Y-12397218D01*
X9910210Y-12397218D02*
X9929258Y-12387695D01*
X10110210Y-12473409D02*
X10091163Y-12463885D01*
X10091163Y-12463885D02*
X10081639Y-12454361D01*
X10081639Y-12454361D02*
X10072115Y-12435314D01*
X10072115Y-12435314D02*
X10072115Y-12425790D01*
X10072115Y-12425790D02*
X10081639Y-12406742D01*
X10081639Y-12406742D02*
X10091163Y-12397218D01*
X10091163Y-12397218D02*
X10110210Y-12387695D01*
X10110210Y-12387695D02*
X10148306Y-12387695D01*
X10148306Y-12387695D02*
X10167353Y-12397218D01*
X10167353Y-12397218D02*
X10176877Y-12406742D01*
X10176877Y-12406742D02*
X10186401Y-12425790D01*
X10186401Y-12425790D02*
X10186401Y-12435314D01*
X10186401Y-12435314D02*
X10176877Y-12454361D01*
X10176877Y-12454361D02*
X10167353Y-12463885D01*
X10167353Y-12463885D02*
X10148306Y-12473409D01*
X10148306Y-12473409D02*
X10110210Y-12473409D01*
X10110210Y-12473409D02*
X10091163Y-12482933D01*
X10091163Y-12482933D02*
X10081639Y-12492457D01*
X10081639Y-12492457D02*
X10072115Y-12511504D01*
X10072115Y-12511504D02*
X10072115Y-12549599D01*
X10072115Y-12549599D02*
X10081639Y-12568647D01*
X10081639Y-12568647D02*
X10091163Y-12578171D01*
X10091163Y-12578171D02*
X10110210Y-12587695D01*
X10110210Y-12587695D02*
X10148306Y-12587695D01*
X10148306Y-12587695D02*
X10167353Y-12578171D01*
X10167353Y-12578171D02*
X10176877Y-12568647D01*
X10176877Y-12568647D02*
X10186401Y-12549599D01*
X10186401Y-12549599D02*
X10186401Y-12511504D01*
X10186401Y-12511504D02*
X10176877Y-12492457D01*
X10176877Y-12492457D02*
X10167353Y-12482933D01*
X10167353Y-12482933D02*
X10148306Y-12473409D01*
X10357829Y-12387695D02*
X10319734Y-12387695D01*
X10319734Y-12387695D02*
X10300687Y-12397218D01*
X10300687Y-12397218D02*
X10291163Y-12406742D01*
X10291163Y-12406742D02*
X10272115Y-12435314D01*
X10272115Y-12435314D02*
X10262591Y-12473409D01*
X10262591Y-12473409D02*
X10262591Y-12549599D01*
X10262591Y-12549599D02*
X10272115Y-12568647D01*
X10272115Y-12568647D02*
X10281639Y-12578171D01*
X10281639Y-12578171D02*
X10300687Y-12587695D01*
X10300687Y-12587695D02*
X10338782Y-12587695D01*
X10338782Y-12587695D02*
X10357829Y-12578171D01*
X10357829Y-12578171D02*
X10367353Y-12568647D01*
X10367353Y-12568647D02*
X10376877Y-12549599D01*
X10376877Y-12549599D02*
X10376877Y-12501980D01*
X10376877Y-12501980D02*
X10367353Y-12482933D01*
X10367353Y-12482933D02*
X10357829Y-12473409D01*
X10357829Y-12473409D02*
X10338782Y-12463885D01*
X10338782Y-12463885D02*
X10300687Y-12463885D01*
X10300687Y-12463885D02*
X10281639Y-12473409D01*
X10281639Y-12473409D02*
X10272115Y-12482933D01*
X10272115Y-12482933D02*
X10262591Y-12501980D01*
X10548306Y-12387695D02*
X10510210Y-12387695D01*
X10510210Y-12387695D02*
X10491163Y-12397218D01*
X10491163Y-12397218D02*
X10481639Y-12406742D01*
X10481639Y-12406742D02*
X10462591Y-12435314D01*
X10462591Y-12435314D02*
X10453068Y-12473409D01*
X10453068Y-12473409D02*
X10453068Y-12549599D01*
X10453068Y-12549599D02*
X10462591Y-12568647D01*
X10462591Y-12568647D02*
X10472115Y-12578171D01*
X10472115Y-12578171D02*
X10491163Y-12587695D01*
X10491163Y-12587695D02*
X10529258Y-12587695D01*
X10529258Y-12587695D02*
X10548306Y-12578171D01*
X10548306Y-12578171D02*
X10557829Y-12568647D01*
X10557829Y-12568647D02*
X10567353Y-12549599D01*
X10567353Y-12549599D02*
X10567353Y-12501980D01*
X10567353Y-12501980D02*
X10557829Y-12482933D01*
X10557829Y-12482933D02*
X10548306Y-12473409D01*
X10548306Y-12473409D02*
X10529258Y-12463885D01*
X10529258Y-12463885D02*
X10491163Y-12463885D01*
X10491163Y-12463885D02*
X10472115Y-12473409D01*
X10472115Y-12473409D02*
X10462591Y-12482933D01*
X10462591Y-12482933D02*
X10453068Y-12501980D01*
X10643544Y-12387695D02*
X10643544Y-12425790D01*
X10719734Y-12387695D02*
X10719734Y-12425790D01*
X11014972Y-12663885D02*
X11005449Y-12654361D01*
X11005449Y-12654361D02*
X10986401Y-12625790D01*
X10986401Y-12625790D02*
X10976877Y-12606742D01*
X10976877Y-12606742D02*
X10967353Y-12578171D01*
X10967353Y-12578171D02*
X10957830Y-12530552D01*
X10957830Y-12530552D02*
X10957830Y-12492457D01*
X10957830Y-12492457D02*
X10967353Y-12444837D01*
X10967353Y-12444837D02*
X10976877Y-12416266D01*
X10976877Y-12416266D02*
X10986401Y-12397218D01*
X10986401Y-12397218D02*
X11005449Y-12368647D01*
X11005449Y-12368647D02*
X11014972Y-12359123D01*
X11176877Y-12454361D02*
X11176877Y-12587695D01*
X11129258Y-12378171D02*
X11081639Y-12521028D01*
X11081639Y-12521028D02*
X11205448Y-12521028D01*
X11434020Y-12587695D02*
X11434020Y-12387695D01*
X11519734Y-12587695D02*
X11519734Y-12482933D01*
X11519734Y-12482933D02*
X11510210Y-12463885D01*
X11510210Y-12463885D02*
X11491163Y-12454361D01*
X11491163Y-12454361D02*
X11462591Y-12454361D01*
X11462591Y-12454361D02*
X11443544Y-12463885D01*
X11443544Y-12463885D02*
X11434020Y-12473409D01*
X11643544Y-12587695D02*
X11624496Y-12578171D01*
X11624496Y-12578171D02*
X11614972Y-12568647D01*
X11614972Y-12568647D02*
X11605449Y-12549599D01*
X11605449Y-12549599D02*
X11605449Y-12492457D01*
X11605449Y-12492457D02*
X11614972Y-12473409D01*
X11614972Y-12473409D02*
X11624496Y-12463885D01*
X11624496Y-12463885D02*
X11643544Y-12454361D01*
X11643544Y-12454361D02*
X11672115Y-12454361D01*
X11672115Y-12454361D02*
X11691163Y-12463885D01*
X11691163Y-12463885D02*
X11700687Y-12473409D01*
X11700687Y-12473409D02*
X11710210Y-12492457D01*
X11710210Y-12492457D02*
X11710210Y-12549599D01*
X11710210Y-12549599D02*
X11700687Y-12568647D01*
X11700687Y-12568647D02*
X11691163Y-12578171D01*
X11691163Y-12578171D02*
X11672115Y-12587695D01*
X11672115Y-12587695D02*
X11643544Y-12587695D01*
X11824496Y-12587695D02*
X11805449Y-12578171D01*
X11805449Y-12578171D02*
X11795925Y-12559123D01*
X11795925Y-12559123D02*
X11795925Y-12387695D01*
X11976877Y-12578171D02*
X11957830Y-12587695D01*
X11957830Y-12587695D02*
X11919734Y-12587695D01*
X11919734Y-12587695D02*
X11900687Y-12578171D01*
X11900687Y-12578171D02*
X11891163Y-12559123D01*
X11891163Y-12559123D02*
X11891163Y-12482933D01*
X11891163Y-12482933D02*
X11900687Y-12463885D01*
X11900687Y-12463885D02*
X11919734Y-12454361D01*
X11919734Y-12454361D02*
X11957830Y-12454361D01*
X11957830Y-12454361D02*
X11976877Y-12463885D01*
X11976877Y-12463885D02*
X11986401Y-12482933D01*
X11986401Y-12482933D02*
X11986401Y-12501980D01*
X11986401Y-12501980D02*
X11891163Y-12521028D01*
X12062591Y-12578171D02*
X12081639Y-12587695D01*
X12081639Y-12587695D02*
X12119734Y-12587695D01*
X12119734Y-12587695D02*
X12138782Y-12578171D01*
X12138782Y-12578171D02*
X12148306Y-12559123D01*
X12148306Y-12559123D02*
X12148306Y-12549599D01*
X12148306Y-12549599D02*
X12138782Y-12530552D01*
X12138782Y-12530552D02*
X12119734Y-12521028D01*
X12119734Y-12521028D02*
X12091163Y-12521028D01*
X12091163Y-12521028D02*
X12072115Y-12511504D01*
X12072115Y-12511504D02*
X12062591Y-12492457D01*
X12062591Y-12492457D02*
X12062591Y-12482933D01*
X12062591Y-12482933D02*
X12072115Y-12463885D01*
X12072115Y-12463885D02*
X12091163Y-12454361D01*
X12091163Y-12454361D02*
X12119734Y-12454361D01*
X12119734Y-12454361D02*
X12138782Y-12463885D01*
X12214972Y-12663885D02*
X12224496Y-12654361D01*
X12224496Y-12654361D02*
X12243544Y-12625790D01*
X12243544Y-12625790D02*
X12253068Y-12606742D01*
X12253068Y-12606742D02*
X12262591Y-12578171D01*
X12262591Y-12578171D02*
X12272115Y-12530552D01*
X12272115Y-12530552D02*
X12272115Y-12492457D01*
X12272115Y-12492457D02*
X12262591Y-12444837D01*
X12262591Y-12444837D02*
X12253068Y-12416266D01*
X12253068Y-12416266D02*
X12243544Y-12397218D01*
X12243544Y-12397218D02*
X12224496Y-12368647D01*
X12224496Y-12368647D02*
X12214972Y-12359123D01*
M02*
