%TF.GenerationSoftware,KiCad,Pcbnew,8.0.5*%
%TF.CreationDate,2024-10-09T06:30:56+02:00*%
%TF.ProjectId,pocketboard,706f636b-6574-4626-9f61-72642e6b6963,rev?*%
%TF.SameCoordinates,Original*%
%TF.FileFunction,Legend,Top*%
%TF.FilePolarity,Positive*%
%FSLAX46Y46*%
G04 Gerber Fmt 4.6, Leading zero omitted, Abs format (unit mm)*
G04 Created by KiCad (PCBNEW 8.0.5) date 2024-10-09 06:30:56*
%MOMM*%
%LPD*%
G01*
G04 APERTURE LIST*
%ADD10C,0.150000*%
%ADD11C,0.300000*%
%ADD12C,0.120000*%
G04 APERTURE END LIST*
D10*
X114490571Y-45907438D02*
X115633428Y-45907438D01*
X115061999Y-47907438D02*
X115061999Y-45907438D01*
X147097714Y-58353438D02*
X147097714Y-59782009D01*
X147097714Y-59782009D02*
X147002475Y-60067723D01*
X147002475Y-60067723D02*
X146811999Y-60258200D01*
X146811999Y-60258200D02*
X146526285Y-60353438D01*
X146526285Y-60353438D02*
X146335809Y-60353438D01*
X163179047Y-60353438D02*
X162226666Y-60353438D01*
X162226666Y-60353438D02*
X162226666Y-58353438D01*
X154416190Y-60353438D02*
X154416190Y-58353438D01*
X155559047Y-60353438D02*
X154701904Y-59210580D01*
X155559047Y-58353438D02*
X154416190Y-59496295D01*
X170338762Y-58448676D02*
X170338762Y-58353438D01*
X170338762Y-58353438D02*
X170434000Y-58162961D01*
X170434000Y-58162961D02*
X170529238Y-58067723D01*
X138366571Y-60353438D02*
X138366571Y-58353438D01*
X138366571Y-59305819D02*
X139509428Y-59305819D01*
X139509428Y-60353438D02*
X139509428Y-58353438D01*
X138937999Y-46955057D02*
X138937999Y-47907438D01*
X138271333Y-45907438D02*
X138937999Y-46955057D01*
X138937999Y-46955057D02*
X139604666Y-45907438D01*
X107473714Y-59305819D02*
X106807047Y-59305819D01*
X106807047Y-60353438D02*
X106807047Y-58353438D01*
X106807047Y-58353438D02*
X107759428Y-58353438D01*
X115585809Y-58448676D02*
X115395333Y-58353438D01*
X115395333Y-58353438D02*
X115109619Y-58353438D01*
X115109619Y-58353438D02*
X114823904Y-58448676D01*
X114823904Y-58448676D02*
X114633428Y-58639152D01*
X114633428Y-58639152D02*
X114538190Y-58829628D01*
X114538190Y-58829628D02*
X114442952Y-59210580D01*
X114442952Y-59210580D02*
X114442952Y-59496295D01*
X114442952Y-59496295D02*
X114538190Y-59877247D01*
X114538190Y-59877247D02*
X114633428Y-60067723D01*
X114633428Y-60067723D02*
X114823904Y-60258200D01*
X114823904Y-60258200D02*
X115109619Y-60353438D01*
X115109619Y-60353438D02*
X115300095Y-60353438D01*
X115300095Y-60353438D02*
X115585809Y-60258200D01*
X115585809Y-60258200D02*
X115681047Y-60162961D01*
X115681047Y-60162961D02*
X115681047Y-59496295D01*
X115681047Y-59496295D02*
X115300095Y-59496295D01*
X138366571Y-72545438D02*
X138366571Y-70545438D01*
X138366571Y-70545438D02*
X139509428Y-72545438D01*
X139509428Y-72545438D02*
X139509428Y-70545438D01*
X146240571Y-45907438D02*
X146240571Y-47526485D01*
X146240571Y-47526485D02*
X146335809Y-47716961D01*
X146335809Y-47716961D02*
X146431047Y-47812200D01*
X146431047Y-47812200D02*
X146621523Y-47907438D01*
X146621523Y-47907438D02*
X147002476Y-47907438D01*
X147002476Y-47907438D02*
X147192952Y-47812200D01*
X147192952Y-47812200D02*
X147288190Y-47716961D01*
X147288190Y-47716961D02*
X147383428Y-47526485D01*
X147383428Y-47526485D02*
X147383428Y-45907438D01*
X169910190Y-47907438D02*
X169910190Y-45907438D01*
X169910190Y-45907438D02*
X170672095Y-45907438D01*
X170672095Y-45907438D02*
X170862571Y-46002676D01*
X170862571Y-46002676D02*
X170957809Y-46097914D01*
X170957809Y-46097914D02*
X171053047Y-46288390D01*
X171053047Y-46288390D02*
X171053047Y-46574104D01*
X171053047Y-46574104D02*
X170957809Y-46764580D01*
X170957809Y-46764580D02*
X170862571Y-46859819D01*
X170862571Y-46859819D02*
X170672095Y-46955057D01*
X170672095Y-46955057D02*
X169910190Y-46955057D01*
X155701905Y-71212104D02*
X154178095Y-71783533D01*
X154178095Y-71783533D02*
X155701905Y-72354961D01*
X106521333Y-70545438D02*
X107187999Y-72545438D01*
X107187999Y-72545438D02*
X107854666Y-70545438D01*
X154940000Y-47907438D02*
X154940000Y-45907438D01*
X146145333Y-72545438D02*
X146145333Y-70545438D01*
X146145333Y-70545438D02*
X146812000Y-71974009D01*
X146812000Y-71974009D02*
X147478666Y-70545438D01*
X147478666Y-70545438D02*
X147478666Y-72545438D01*
X99933047Y-72354961D02*
X99837809Y-72450200D01*
X99837809Y-72450200D02*
X99552095Y-72545438D01*
X99552095Y-72545438D02*
X99361619Y-72545438D01*
X99361619Y-72545438D02*
X99075904Y-72450200D01*
X99075904Y-72450200D02*
X98885428Y-72259723D01*
X98885428Y-72259723D02*
X98790190Y-72069247D01*
X98790190Y-72069247D02*
X98694952Y-71688295D01*
X98694952Y-71688295D02*
X98694952Y-71402580D01*
X98694952Y-71402580D02*
X98790190Y-71021628D01*
X98790190Y-71021628D02*
X98885428Y-70831152D01*
X98885428Y-70831152D02*
X99075904Y-70640676D01*
X99075904Y-70640676D02*
X99361619Y-70545438D01*
X99361619Y-70545438D02*
X99552095Y-70545438D01*
X99552095Y-70545438D02*
X99837809Y-70640676D01*
X99837809Y-70640676D02*
X99933047Y-70735914D01*
D11*
G36*
X98016468Y-102234890D02*
G01*
X98152588Y-102249702D01*
X98281453Y-102274389D01*
X98403061Y-102308950D01*
X98517414Y-102353386D01*
X98553919Y-102370392D01*
X98674053Y-102437879D01*
X98781740Y-102517988D01*
X98876980Y-102610719D01*
X98959773Y-102716072D01*
X99001494Y-102781942D01*
X99063592Y-102906863D01*
X99104679Y-103023985D01*
X99134561Y-103150381D01*
X99153237Y-103286050D01*
X99160707Y-103430993D01*
X99160863Y-103456052D01*
X99155253Y-103609610D01*
X99138423Y-103753379D01*
X99110373Y-103887360D01*
X99071103Y-104011552D01*
X99020614Y-104125955D01*
X98941724Y-104255193D01*
X98845303Y-104369136D01*
X98801826Y-104410431D01*
X98682766Y-104502782D01*
X98577365Y-104565393D01*
X98462938Y-104617986D01*
X98339486Y-104660562D01*
X98207008Y-104693120D01*
X98065505Y-104715660D01*
X97914976Y-104728182D01*
X97796156Y-104731000D01*
X97089073Y-104731000D01*
X97089073Y-104309681D01*
X97617248Y-104309681D01*
X97845004Y-104309681D01*
X97981953Y-104302312D01*
X98105431Y-104280207D01*
X98249114Y-104227809D01*
X98368850Y-104149213D01*
X98464639Y-104044417D01*
X98536481Y-103913423D01*
X98584376Y-103756230D01*
X98604581Y-103621142D01*
X98611316Y-103471317D01*
X98606874Y-103344231D01*
X98589815Y-103206330D01*
X98559962Y-103084356D01*
X98508963Y-102962185D01*
X98429355Y-102849108D01*
X98328109Y-102762555D01*
X98206331Y-102700731D01*
X98082933Y-102666921D01*
X97943815Y-102652044D01*
X97901180Y-102651272D01*
X97617248Y-102651272D01*
X97617248Y-104309681D01*
X97089073Y-104309681D01*
X97089073Y-102229953D01*
X97873092Y-102229953D01*
X98016468Y-102234890D01*
G37*
G36*
X101707094Y-104731000D02*
G01*
X101136787Y-104731000D01*
X100954826Y-104144817D01*
X100044411Y-104144817D01*
X99862450Y-104731000D01*
X99292143Y-104731000D01*
X99650341Y-103714949D01*
X100177524Y-103714949D01*
X100828431Y-103714949D01*
X100646470Y-103131209D01*
X100611431Y-103013009D01*
X100601285Y-102979778D01*
X100564420Y-102858250D01*
X100545109Y-102793543D01*
X100511683Y-102674401D01*
X100499924Y-102628069D01*
X100468161Y-102746359D01*
X100452297Y-102802092D01*
X100418059Y-102921698D01*
X100396121Y-102999318D01*
X100360942Y-103117685D01*
X100356431Y-103131209D01*
X100177524Y-103714949D01*
X99650341Y-103714949D01*
X100173860Y-102229953D01*
X100821714Y-102229953D01*
X101707094Y-104731000D01*
G37*
G36*
X102738410Y-104731000D02*
G01*
X102210235Y-104731000D01*
X102210235Y-102651272D01*
X101531240Y-102651272D01*
X101531240Y-102229953D01*
X103417405Y-102229953D01*
X103417405Y-102651272D01*
X102738410Y-102651272D01*
X102738410Y-104731000D01*
G37*
G36*
X105656501Y-104731000D02*
G01*
X105086194Y-104731000D01*
X104904233Y-104144817D01*
X103993818Y-104144817D01*
X103811857Y-104731000D01*
X103241550Y-104731000D01*
X103599748Y-103714949D01*
X104126930Y-103714949D01*
X104777838Y-103714949D01*
X104595877Y-103131209D01*
X104560838Y-103013009D01*
X104550692Y-102979778D01*
X104513826Y-102858250D01*
X104494516Y-102793543D01*
X104461090Y-102674401D01*
X104449331Y-102628069D01*
X104417567Y-102746359D01*
X104401704Y-102802092D01*
X104367465Y-102921698D01*
X104345528Y-102999318D01*
X104310349Y-103117685D01*
X104305838Y-103131209D01*
X104126930Y-103714949D01*
X103599748Y-103714949D01*
X104123267Y-102229953D01*
X104771121Y-102229953D01*
X105656501Y-104731000D01*
G37*
G36*
X107978640Y-104731000D02*
G01*
X107376581Y-104731000D01*
X106722011Y-103689914D01*
X106497918Y-103849283D01*
X106497918Y-104731000D01*
X105969743Y-104731000D01*
X105969743Y-102229953D01*
X106497918Y-102229953D01*
X106497918Y-103392549D01*
X106570122Y-103290119D01*
X106602942Y-103243561D01*
X106675147Y-103140580D01*
X106707967Y-103093962D01*
X107383909Y-102229953D01*
X107971923Y-102229953D01*
X107099976Y-103354691D01*
X107978640Y-104731000D01*
G37*
G36*
X109426436Y-102194780D02*
G01*
X109565253Y-102209778D01*
X109693982Y-102236024D01*
X109812621Y-102273519D01*
X109938281Y-102331480D01*
X109971662Y-102350853D01*
X110080075Y-102426800D01*
X110175574Y-102515195D01*
X110258158Y-102616036D01*
X110327827Y-102729324D01*
X110361840Y-102799649D01*
X110411565Y-102931066D01*
X110444467Y-103051336D01*
X110468395Y-103178648D01*
X110483350Y-103313000D01*
X110489332Y-103454394D01*
X110489457Y-103478644D01*
X110484970Y-103621212D01*
X110471510Y-103756738D01*
X110449078Y-103885223D01*
X110417672Y-104006667D01*
X110369691Y-104139452D01*
X110361840Y-104157639D01*
X110299550Y-104278157D01*
X110224346Y-104386462D01*
X110136227Y-104482553D01*
X110035194Y-104566431D01*
X109971662Y-104608878D01*
X109849750Y-104671690D01*
X109734044Y-104713249D01*
X109607992Y-104743474D01*
X109471593Y-104762365D01*
X109324847Y-104769921D01*
X109299383Y-104770078D01*
X109175950Y-104766143D01*
X109036961Y-104751030D01*
X108907932Y-104724583D01*
X108788863Y-104686802D01*
X108662539Y-104628398D01*
X108628937Y-104608878D01*
X108520018Y-104531891D01*
X108424073Y-104442516D01*
X108341101Y-104340752D01*
X108271102Y-104226600D01*
X108236927Y-104155808D01*
X108187201Y-104023677D01*
X108154300Y-103902935D01*
X108130372Y-103775280D01*
X108115417Y-103640712D01*
X108109435Y-103499233D01*
X108109338Y-103480476D01*
X108666184Y-103480476D01*
X108671465Y-103625820D01*
X108687307Y-103759142D01*
X108713711Y-103880443D01*
X108757864Y-104006767D01*
X108816393Y-104116729D01*
X108903137Y-104218242D01*
X109012551Y-104290752D01*
X109144633Y-104334258D01*
X109278800Y-104348533D01*
X109299383Y-104348759D01*
X109438710Y-104337656D01*
X109559628Y-104304347D01*
X109675281Y-104239089D01*
X109766891Y-104144826D01*
X109786037Y-104116729D01*
X109843376Y-104006767D01*
X109886632Y-103880443D01*
X109912500Y-103759142D01*
X109928020Y-103625820D01*
X109933193Y-103480476D01*
X109929601Y-103357526D01*
X109915805Y-103221399D01*
X109891662Y-103097722D01*
X109850418Y-102969169D01*
X109795091Y-102857563D01*
X109786037Y-102843002D01*
X109700667Y-102742023D01*
X109591711Y-102669895D01*
X109459172Y-102626618D01*
X109323852Y-102612418D01*
X109303047Y-102612193D01*
X109164973Y-102623237D01*
X109044605Y-102656371D01*
X108928723Y-102721286D01*
X108835968Y-102815053D01*
X108816393Y-102843002D01*
X108757864Y-102952188D01*
X108713711Y-103078320D01*
X108687307Y-103199921D01*
X108671465Y-103333973D01*
X108666184Y-103480476D01*
X108109338Y-103480476D01*
X108109310Y-103474981D01*
X108113797Y-103332478D01*
X108127256Y-103197145D01*
X108149689Y-103068982D01*
X108181095Y-102947989D01*
X108229075Y-102815892D01*
X108236927Y-102797817D01*
X108299513Y-102678130D01*
X108375072Y-102570714D01*
X108463604Y-102475571D01*
X108565109Y-102392699D01*
X108628937Y-102350853D01*
X108751563Y-102288517D01*
X108867740Y-102247273D01*
X108994136Y-102217277D01*
X109130750Y-102198529D01*
X109277582Y-102191030D01*
X109303047Y-102190874D01*
X109426436Y-102194780D01*
G37*
G36*
X113221313Y-104731000D02*
G01*
X112549645Y-104731000D01*
X111460933Y-102863763D01*
X111446889Y-102863763D01*
X111452556Y-102996112D01*
X111458566Y-103128461D01*
X111462764Y-103216694D01*
X111469004Y-103348671D01*
X111474900Y-103480820D01*
X111478640Y-103569014D01*
X111478640Y-104731000D01*
X111006030Y-104731000D01*
X111006030Y-102229953D01*
X111674645Y-102229953D01*
X112759694Y-104111844D01*
X112770074Y-104111844D01*
X112766811Y-103980468D01*
X112762518Y-103850122D01*
X112759083Y-103763798D01*
X112754046Y-103634282D01*
X112749008Y-103504939D01*
X112745650Y-103418805D01*
X112745650Y-102229953D01*
X113221313Y-102229953D01*
X113221313Y-104731000D01*
G37*
G36*
X115324854Y-104031854D02*
G01*
X115313371Y-104172800D01*
X115278923Y-104300715D01*
X115221508Y-104415598D01*
X115141128Y-104517449D01*
X115084886Y-104569799D01*
X114970525Y-104647838D01*
X114857152Y-104699472D01*
X114729611Y-104737024D01*
X114587903Y-104760495D01*
X114458990Y-104769296D01*
X114404669Y-104770078D01*
X114259254Y-104765055D01*
X114119764Y-104749986D01*
X113986198Y-104724870D01*
X113858558Y-104689707D01*
X113736842Y-104644498D01*
X113697586Y-104627196D01*
X113697586Y-104138100D01*
X113810215Y-104186078D01*
X113925228Y-104231551D01*
X114042627Y-104274521D01*
X114066393Y-104282814D01*
X114185605Y-104317590D01*
X114316186Y-104340967D01*
X114446191Y-104348759D01*
X114577223Y-104338026D01*
X114696095Y-104294422D01*
X114724628Y-104272434D01*
X114793455Y-104167589D01*
X114807060Y-104079482D01*
X114776467Y-103961231D01*
X114742335Y-103916450D01*
X114644256Y-103835830D01*
X114568923Y-103790665D01*
X114460185Y-103733832D01*
X114346350Y-103677398D01*
X114320406Y-103664879D01*
X114211551Y-103608741D01*
X114131117Y-103564129D01*
X114025834Y-103493920D01*
X113936944Y-103418805D01*
X113852528Y-103322787D01*
X113788638Y-103215856D01*
X113784903Y-103208145D01*
X113744415Y-103089802D01*
X113727120Y-102963168D01*
X113725674Y-102910169D01*
X113733660Y-102787931D01*
X113763162Y-102658722D01*
X113814403Y-102543948D01*
X113887383Y-102443607D01*
X113952820Y-102380773D01*
X114060323Y-102306779D01*
X114183546Y-102250959D01*
X114301677Y-102217578D01*
X114431357Y-102197550D01*
X114572586Y-102190874D01*
X114705031Y-102196141D01*
X114832858Y-102211942D01*
X114945057Y-102235448D01*
X115068600Y-102270494D01*
X115195751Y-102314343D01*
X115314474Y-102361844D01*
X115142893Y-102774614D01*
X115029044Y-102725485D01*
X114914226Y-102681436D01*
X114834537Y-102654935D01*
X114713990Y-102625717D01*
X114590637Y-102612861D01*
X114554879Y-102612193D01*
X114429353Y-102627756D01*
X114324069Y-102683023D01*
X114254804Y-102788258D01*
X114243469Y-102867427D01*
X114273236Y-102988174D01*
X114362538Y-103080528D01*
X114468068Y-103144127D01*
X114580803Y-103204735D01*
X114701537Y-103265195D01*
X114716079Y-103272259D01*
X114830628Y-103330601D01*
X114943545Y-103396429D01*
X115042754Y-103463990D01*
X115142218Y-103550702D01*
X115221325Y-103649104D01*
X115250971Y-103698463D01*
X115298808Y-103818291D01*
X115321319Y-103947864D01*
X115324854Y-104031854D01*
G37*
G36*
X117811857Y-103851115D02*
G01*
X117804759Y-103977701D01*
X117783464Y-104097953D01*
X117742538Y-104225663D01*
X117698284Y-104319450D01*
X117625222Y-104429961D01*
X117533807Y-104526561D01*
X117424037Y-104609250D01*
X117355123Y-104649178D01*
X117233040Y-104702072D01*
X117113757Y-104735957D01*
X116982846Y-104758272D01*
X116840305Y-104769016D01*
X116775657Y-104770078D01*
X116626309Y-104763877D01*
X116488528Y-104745272D01*
X116362316Y-104714265D01*
X116247673Y-104670855D01*
X116125370Y-104602390D01*
X116019725Y-104516066D01*
X115931741Y-104414851D01*
X115861960Y-104302172D01*
X115810382Y-104178030D01*
X115777009Y-104042425D01*
X115763103Y-103920665D01*
X115760828Y-103843787D01*
X115760828Y-102229953D01*
X116289614Y-102229953D01*
X116289614Y-103780895D01*
X116295633Y-103908818D01*
X116317252Y-104033334D01*
X116366387Y-104156457D01*
X116415399Y-104221143D01*
X116516378Y-104293799D01*
X116633348Y-104333680D01*
X116759116Y-104348261D01*
X116789701Y-104348759D01*
X116924420Y-104337844D01*
X117047710Y-104300110D01*
X117151235Y-104227473D01*
X117166445Y-104210762D01*
X117233192Y-104096998D01*
X117267196Y-103976442D01*
X117281850Y-103848520D01*
X117283682Y-103777231D01*
X117283682Y-102229953D01*
X117811857Y-102229953D01*
X117811857Y-103851115D01*
G37*
G36*
X118423685Y-104731000D02*
G01*
X118423685Y-102229953D01*
X118951861Y-102229953D01*
X118951861Y-104309681D01*
X119967300Y-104309681D01*
X119967300Y-104731000D01*
X118423685Y-104731000D01*
G37*
G36*
X121293539Y-104731000D02*
G01*
X120765364Y-104731000D01*
X120765364Y-102651272D01*
X120086369Y-102651272D01*
X120086369Y-102229953D01*
X121972534Y-102229953D01*
X121972534Y-102651272D01*
X121293539Y-102651272D01*
X121293539Y-104731000D01*
G37*
G36*
X123794586Y-104731000D02*
G01*
X122355995Y-104731000D01*
X122355995Y-102229953D01*
X123794586Y-102229953D01*
X123794586Y-102651272D01*
X122884170Y-102651272D01*
X122884170Y-103215473D01*
X123731693Y-103215473D01*
X123731693Y-103636792D01*
X122884170Y-103636792D01*
X122884170Y-104309681D01*
X123794586Y-104309681D01*
X123794586Y-104731000D01*
G37*
G36*
X126530106Y-104731000D02*
G01*
X125858438Y-104731000D01*
X124769725Y-102863763D01*
X124755681Y-102863763D01*
X124761348Y-102996112D01*
X124767359Y-103128461D01*
X124771557Y-103216694D01*
X124777797Y-103348671D01*
X124783693Y-103480820D01*
X124787433Y-103569014D01*
X124787433Y-104731000D01*
X124314823Y-104731000D01*
X124314823Y-102229953D01*
X124983438Y-102229953D01*
X126068487Y-104111844D01*
X126078867Y-104111844D01*
X126075604Y-103980468D01*
X126071311Y-103850122D01*
X126067876Y-103763798D01*
X126062838Y-103634282D01*
X126057801Y-103504939D01*
X126054443Y-103418805D01*
X126054443Y-102229953D01*
X126530106Y-102229953D01*
X126530106Y-104731000D01*
G37*
D10*
X83089809Y-59782009D02*
X84042190Y-59782009D01*
X82899333Y-60353438D02*
X83565999Y-58353438D01*
X83565999Y-58353438D02*
X84232666Y-60353438D01*
X84327904Y-48097914D02*
X84137428Y-48002676D01*
X84137428Y-48002676D02*
X83946952Y-47812200D01*
X83946952Y-47812200D02*
X83661238Y-47526485D01*
X83661238Y-47526485D02*
X83470761Y-47431247D01*
X83470761Y-47431247D02*
X83280285Y-47431247D01*
X83375523Y-47907438D02*
X83185047Y-47812200D01*
X83185047Y-47812200D02*
X82994571Y-47621723D01*
X82994571Y-47621723D02*
X82899333Y-47240771D01*
X82899333Y-47240771D02*
X82899333Y-46574104D01*
X82899333Y-46574104D02*
X82994571Y-46193152D01*
X82994571Y-46193152D02*
X83185047Y-46002676D01*
X83185047Y-46002676D02*
X83375523Y-45907438D01*
X83375523Y-45907438D02*
X83756476Y-45907438D01*
X83756476Y-45907438D02*
X83946952Y-46002676D01*
X83946952Y-46002676D02*
X84137428Y-46193152D01*
X84137428Y-46193152D02*
X84232666Y-46574104D01*
X84232666Y-46574104D02*
X84232666Y-47240771D01*
X84232666Y-47240771D02*
X84137428Y-47621723D01*
X84137428Y-47621723D02*
X83946952Y-47812200D01*
X83946952Y-47812200D02*
X83756476Y-47907438D01*
X83756476Y-47907438D02*
X83375523Y-47907438D01*
X115204857Y-71497819D02*
X115490571Y-71593057D01*
X115490571Y-71593057D02*
X115585809Y-71688295D01*
X115585809Y-71688295D02*
X115681047Y-71878771D01*
X115681047Y-71878771D02*
X115681047Y-72164485D01*
X115681047Y-72164485D02*
X115585809Y-72354961D01*
X115585809Y-72354961D02*
X115490571Y-72450200D01*
X115490571Y-72450200D02*
X115300095Y-72545438D01*
X115300095Y-72545438D02*
X114538190Y-72545438D01*
X114538190Y-72545438D02*
X114538190Y-70545438D01*
X114538190Y-70545438D02*
X115204857Y-70545438D01*
X115204857Y-70545438D02*
X115395333Y-70640676D01*
X115395333Y-70640676D02*
X115490571Y-70735914D01*
X115490571Y-70735914D02*
X115585809Y-70926390D01*
X115585809Y-70926390D02*
X115585809Y-71116866D01*
X115585809Y-71116866D02*
X115490571Y-71307342D01*
X115490571Y-71307342D02*
X115395333Y-71402580D01*
X115395333Y-71402580D02*
X115204857Y-71497819D01*
X115204857Y-71497819D02*
X114538190Y-71497819D01*
X98790190Y-60226438D02*
X98790190Y-58226438D01*
X98790190Y-58226438D02*
X99266380Y-58226438D01*
X99266380Y-58226438D02*
X99552095Y-58321676D01*
X99552095Y-58321676D02*
X99742571Y-58512152D01*
X99742571Y-58512152D02*
X99837809Y-58702628D01*
X99837809Y-58702628D02*
X99933047Y-59083580D01*
X99933047Y-59083580D02*
X99933047Y-59369295D01*
X99933047Y-59369295D02*
X99837809Y-59750247D01*
X99837809Y-59750247D02*
X99742571Y-59940723D01*
X99742571Y-59940723D02*
X99552095Y-60131200D01*
X99552095Y-60131200D02*
X99266380Y-60226438D01*
X99266380Y-60226438D02*
X98790190Y-60226438D01*
X161798095Y-71212104D02*
X163321905Y-71783533D01*
X163321905Y-71783533D02*
X161798095Y-72354961D01*
X90868571Y-60258200D02*
X91154285Y-60353438D01*
X91154285Y-60353438D02*
X91630476Y-60353438D01*
X91630476Y-60353438D02*
X91820952Y-60258200D01*
X91820952Y-60258200D02*
X91916190Y-60162961D01*
X91916190Y-60162961D02*
X92011428Y-59972485D01*
X92011428Y-59972485D02*
X92011428Y-59782009D01*
X92011428Y-59782009D02*
X91916190Y-59591533D01*
X91916190Y-59591533D02*
X91820952Y-59496295D01*
X91820952Y-59496295D02*
X91630476Y-59401057D01*
X91630476Y-59401057D02*
X91249523Y-59305819D01*
X91249523Y-59305819D02*
X91059047Y-59210580D01*
X91059047Y-59210580D02*
X90963809Y-59115342D01*
X90963809Y-59115342D02*
X90868571Y-58924866D01*
X90868571Y-58924866D02*
X90868571Y-58734390D01*
X90868571Y-58734390D02*
X90963809Y-58543914D01*
X90963809Y-58543914D02*
X91059047Y-58448676D01*
X91059047Y-58448676D02*
X91249523Y-58353438D01*
X91249523Y-58353438D02*
X91725714Y-58353438D01*
X91725714Y-58353438D02*
X92011428Y-58448676D01*
X90582857Y-45907438D02*
X91059047Y-47907438D01*
X91059047Y-47907438D02*
X91440000Y-46478866D01*
X91440000Y-46478866D02*
X91820952Y-47907438D01*
X91820952Y-47907438D02*
X92297143Y-45907438D01*
X170338761Y-72354961D02*
X170433999Y-72450200D01*
X170433999Y-72450200D02*
X170338761Y-72545438D01*
X170338761Y-72545438D02*
X170243523Y-72450200D01*
X170243523Y-72450200D02*
X170338761Y-72354961D01*
X170338761Y-72354961D02*
X170338761Y-72545438D01*
X169957809Y-70640676D02*
X170148285Y-70545438D01*
X170148285Y-70545438D02*
X170624476Y-70545438D01*
X170624476Y-70545438D02*
X170814952Y-70640676D01*
X170814952Y-70640676D02*
X170910190Y-70831152D01*
X170910190Y-70831152D02*
X170910190Y-71021628D01*
X170910190Y-71021628D02*
X170814952Y-71212104D01*
X170814952Y-71212104D02*
X170719714Y-71307342D01*
X170719714Y-71307342D02*
X170529237Y-71402580D01*
X170529237Y-71402580D02*
X170433999Y-71497819D01*
X170433999Y-71497819D02*
X170338761Y-71688295D01*
X170338761Y-71688295D02*
X170338761Y-71783533D01*
D11*
G36*
X149344623Y-101625413D02*
G01*
X149423726Y-101634536D01*
X149508566Y-101653512D01*
X149582407Y-101681247D01*
X149654653Y-101724674D01*
X149681032Y-101746935D01*
X149732994Y-101805725D01*
X149772194Y-101873420D01*
X149798631Y-101950021D01*
X149811133Y-102022767D01*
X149814389Y-102088387D01*
X149809058Y-102167906D01*
X149793065Y-102244349D01*
X149766411Y-102317715D01*
X149759801Y-102332019D01*
X149718599Y-102398830D01*
X149663229Y-102456840D01*
X149601283Y-102501524D01*
X149578084Y-102514835D01*
X149508818Y-102544968D01*
X149428149Y-102566492D01*
X149348210Y-102578263D01*
X149272742Y-102583106D01*
X149232602Y-102583711D01*
X149095949Y-102583711D01*
X149095949Y-103123000D01*
X148779043Y-103123000D01*
X148779043Y-102330920D01*
X149095949Y-102330920D01*
X149201095Y-102330920D01*
X149279692Y-102325589D01*
X149353586Y-102307411D01*
X149414319Y-102276332D01*
X149465319Y-102220495D01*
X149489318Y-102149097D01*
X149493087Y-102098645D01*
X149484226Y-102022696D01*
X149451488Y-101953949D01*
X149394627Y-101906590D01*
X149313643Y-101880619D01*
X149241029Y-101875163D01*
X149095949Y-101875163D01*
X149095949Y-102330920D01*
X148779043Y-102330920D01*
X148779043Y-101622371D01*
X149257882Y-101622371D01*
X149344623Y-101625413D01*
G37*
G36*
X150820819Y-101601268D02*
G01*
X150904110Y-101610266D01*
X150981347Y-101626014D01*
X151052530Y-101648511D01*
X151127926Y-101683288D01*
X151147955Y-101694912D01*
X151213003Y-101740480D01*
X151270302Y-101793517D01*
X151319852Y-101854021D01*
X151361654Y-101921994D01*
X151382062Y-101964189D01*
X151411897Y-102043039D01*
X151431638Y-102115202D01*
X151445995Y-102191588D01*
X151454968Y-102272200D01*
X151458557Y-102357036D01*
X151458632Y-102371586D01*
X151455940Y-102457127D01*
X151447864Y-102538442D01*
X151434404Y-102615533D01*
X151415561Y-102688400D01*
X151386772Y-102768071D01*
X151382062Y-102778983D01*
X151344688Y-102851294D01*
X151299565Y-102916277D01*
X151246694Y-102973932D01*
X151186074Y-103024259D01*
X151147955Y-103049727D01*
X151074808Y-103087414D01*
X151005384Y-103112349D01*
X150929753Y-103130484D01*
X150847914Y-103141819D01*
X150759866Y-103146352D01*
X150744588Y-103146447D01*
X150670528Y-103144085D01*
X150587134Y-103135018D01*
X150509717Y-103119150D01*
X150438276Y-103096481D01*
X150362481Y-103061439D01*
X150342320Y-103049727D01*
X150276969Y-103003535D01*
X150219402Y-102949910D01*
X150169618Y-102888851D01*
X150127619Y-102820360D01*
X150107114Y-102777884D01*
X150077279Y-102698606D01*
X150057538Y-102626161D01*
X150043181Y-102549568D01*
X150034208Y-102468827D01*
X150030619Y-102383939D01*
X150030561Y-102372685D01*
X150364668Y-102372685D01*
X150367837Y-102459892D01*
X150377342Y-102539885D01*
X150393184Y-102612666D01*
X150419676Y-102688460D01*
X150454794Y-102754437D01*
X150506840Y-102815345D01*
X150572488Y-102858851D01*
X150651737Y-102884954D01*
X150732238Y-102893520D01*
X150744588Y-102893655D01*
X150828184Y-102886994D01*
X150900735Y-102867008D01*
X150970126Y-102827853D01*
X151025093Y-102771296D01*
X151036580Y-102754437D01*
X151070984Y-102688460D01*
X151096937Y-102612666D01*
X151112458Y-102539885D01*
X151121770Y-102459892D01*
X151124874Y-102372685D01*
X151122718Y-102298915D01*
X151114441Y-102217239D01*
X151099955Y-102143033D01*
X151075209Y-102065901D01*
X151042012Y-101998937D01*
X151036580Y-101990201D01*
X150985358Y-101929614D01*
X150919985Y-101886337D01*
X150840461Y-101860371D01*
X150759269Y-101851851D01*
X150746786Y-101851715D01*
X150663941Y-101858342D01*
X150591721Y-101878223D01*
X150522192Y-101917172D01*
X150466539Y-101973431D01*
X150454794Y-101990201D01*
X150419676Y-102055712D01*
X150393184Y-102131392D01*
X150377342Y-102204353D01*
X150367837Y-102284784D01*
X150364668Y-102372685D01*
X150030561Y-102372685D01*
X150030544Y-102369388D01*
X150033236Y-102283887D01*
X150041311Y-102202687D01*
X150054771Y-102125789D01*
X150073615Y-102053193D01*
X150102403Y-101973935D01*
X150107114Y-101963090D01*
X150144666Y-101891278D01*
X150190001Y-101826828D01*
X150243120Y-101769742D01*
X150304023Y-101720019D01*
X150342320Y-101694912D01*
X150415895Y-101657510D01*
X150485602Y-101632763D01*
X150561439Y-101614766D01*
X150643408Y-101603517D01*
X150731507Y-101599018D01*
X150746786Y-101598924D01*
X150820819Y-101601268D01*
G37*
G36*
X152404951Y-101851715D02*
G01*
X152329089Y-101858447D01*
X152252478Y-101882627D01*
X152186630Y-101924393D01*
X152131544Y-101983744D01*
X152125415Y-101992399D01*
X152087871Y-102058767D01*
X152059548Y-102135093D01*
X152042611Y-102208440D01*
X152032448Y-102289103D01*
X152029061Y-102377082D01*
X152031234Y-102451308D01*
X152039581Y-102533225D01*
X152054187Y-102607336D01*
X152079138Y-102683935D01*
X152112610Y-102749909D01*
X152118087Y-102758467D01*
X152169539Y-102817612D01*
X152234500Y-102859858D01*
X152312970Y-102885206D01*
X152392714Y-102893523D01*
X152404951Y-102893655D01*
X152479782Y-102890149D01*
X152554251Y-102879628D01*
X152588499Y-102872406D01*
X152665456Y-102852062D01*
X152741002Y-102828346D01*
X152787069Y-102812323D01*
X152787069Y-103072808D01*
X152713189Y-103098327D01*
X152639928Y-103118283D01*
X152591430Y-103128495D01*
X152515867Y-103139434D01*
X152440809Y-103145027D01*
X152375275Y-103146447D01*
X152291555Y-103143072D01*
X152213502Y-103132949D01*
X152141117Y-103116076D01*
X152063830Y-103087861D01*
X151994256Y-103050459D01*
X151932309Y-103004748D01*
X151877900Y-102951604D01*
X151831029Y-102891027D01*
X151791697Y-102823016D01*
X151772606Y-102780815D01*
X151744769Y-102701910D01*
X151726351Y-102629868D01*
X151712955Y-102553756D01*
X151704583Y-102473574D01*
X151701235Y-102389321D01*
X151701165Y-102374884D01*
X151704050Y-102291297D01*
X151712705Y-102211445D01*
X151727131Y-102135329D01*
X151747327Y-102062947D01*
X151773293Y-101994301D01*
X151783230Y-101972249D01*
X151822693Y-101899280D01*
X151869273Y-101833603D01*
X151922971Y-101775220D01*
X151983786Y-101724129D01*
X152021734Y-101698209D01*
X152093541Y-101659523D01*
X152172080Y-101630338D01*
X152244758Y-101612886D01*
X152322381Y-101602415D01*
X152404951Y-101598924D01*
X152481442Y-101602214D01*
X152558280Y-101612085D01*
X152628433Y-101626768D01*
X152704633Y-101647996D01*
X152778582Y-101673900D01*
X152843855Y-101701506D01*
X152740907Y-101962357D01*
X152672498Y-101927976D01*
X152603606Y-101897465D01*
X152571646Y-101884688D01*
X152497906Y-101862148D01*
X152420298Y-101852005D01*
X152404951Y-101851715D01*
G37*
G36*
X154310411Y-103123000D02*
G01*
X153949176Y-103123000D01*
X153556434Y-102498348D01*
X153421978Y-102593969D01*
X153421978Y-103123000D01*
X153105073Y-103123000D01*
X153105073Y-101622371D01*
X153421978Y-101622371D01*
X153421978Y-102319929D01*
X153465300Y-102258471D01*
X153484993Y-102230536D01*
X153528315Y-102168748D01*
X153548007Y-102140777D01*
X153953572Y-101622371D01*
X154306381Y-101622371D01*
X153783213Y-102297214D01*
X154310411Y-103123000D01*
G37*
G36*
X155361877Y-103123000D02*
G01*
X154498722Y-103123000D01*
X154498722Y-101622371D01*
X155361877Y-101622371D01*
X155361877Y-101875163D01*
X154815628Y-101875163D01*
X154815628Y-102213683D01*
X155324141Y-102213683D01*
X155324141Y-102466475D01*
X154815628Y-102466475D01*
X154815628Y-102870208D01*
X155361877Y-102870208D01*
X155361877Y-103123000D01*
G37*
G36*
X156251409Y-103123000D02*
G01*
X155934504Y-103123000D01*
X155934504Y-101875163D01*
X155527107Y-101875163D01*
X155527107Y-101622371D01*
X156658806Y-101622371D01*
X156658806Y-101875163D01*
X156251409Y-101875163D01*
X156251409Y-103123000D01*
G37*
G36*
X157445183Y-101624420D02*
G01*
X157528277Y-101630565D01*
X157604180Y-101640806D01*
X157685770Y-101658503D01*
X157757005Y-101682099D01*
X157808457Y-101706269D01*
X157868271Y-101748932D01*
X157918640Y-101812674D01*
X157946973Y-101881558D01*
X157960615Y-101962680D01*
X157961964Y-102001192D01*
X157956096Y-102077206D01*
X157936088Y-102151812D01*
X157901880Y-102216981D01*
X157849828Y-102273189D01*
X157783247Y-102309923D01*
X157730788Y-102323593D01*
X157730788Y-102334217D01*
X157802870Y-102354734D01*
X157867442Y-102386974D01*
X157924925Y-102436684D01*
X157963796Y-102496517D01*
X157988339Y-102568184D01*
X157998437Y-102643678D01*
X157999699Y-102686293D01*
X157994535Y-102759975D01*
X157975453Y-102838059D01*
X157942312Y-102907657D01*
X157895111Y-102968771D01*
X157852787Y-103007228D01*
X157783272Y-103052338D01*
X157715342Y-103082186D01*
X157639711Y-103103893D01*
X157556378Y-103117460D01*
X157481049Y-103122547D01*
X157449420Y-103123000D01*
X156888883Y-103123000D01*
X156888883Y-102870208D01*
X157205788Y-102870208D01*
X157413883Y-102870208D01*
X157487415Y-102865658D01*
X157558711Y-102847740D01*
X157613185Y-102812689D01*
X157653945Y-102750393D01*
X157669472Y-102677143D01*
X157669972Y-102659549D01*
X157657253Y-102585553D01*
X157615647Y-102522951D01*
X157612086Y-102519598D01*
X157543805Y-102483283D01*
X157464968Y-102469017D01*
X157403258Y-102466475D01*
X157205788Y-102466475D01*
X157205788Y-102870208D01*
X156888883Y-102870208D01*
X156888883Y-102213683D01*
X157205788Y-102213683D01*
X157390802Y-102213683D01*
X157469055Y-102209318D01*
X157541046Y-102192557D01*
X157582777Y-102168987D01*
X157626028Y-102105836D01*
X157636266Y-102038928D01*
X157620512Y-101964006D01*
X157573251Y-101913631D01*
X157504269Y-101887334D01*
X157430194Y-101877004D01*
X157373949Y-101875163D01*
X157205788Y-101875163D01*
X157205788Y-102213683D01*
X156888883Y-102213683D01*
X156888883Y-101622371D01*
X157354898Y-101622371D01*
X157445183Y-101624420D01*
G37*
G36*
X159022982Y-101601268D02*
G01*
X159106273Y-101610266D01*
X159183510Y-101626014D01*
X159254693Y-101648511D01*
X159330090Y-101683288D01*
X159350118Y-101694912D01*
X159415166Y-101740480D01*
X159472465Y-101793517D01*
X159522016Y-101854021D01*
X159563817Y-101921994D01*
X159584225Y-101964189D01*
X159614060Y-102043039D01*
X159633801Y-102115202D01*
X159648158Y-102191588D01*
X159657131Y-102272200D01*
X159660720Y-102357036D01*
X159660795Y-102371586D01*
X159658103Y-102457127D01*
X159650027Y-102538442D01*
X159636568Y-102615533D01*
X159617724Y-102688400D01*
X159588936Y-102768071D01*
X159584225Y-102778983D01*
X159546851Y-102851294D01*
X159501729Y-102916277D01*
X159448857Y-102973932D01*
X159388237Y-103024259D01*
X159350118Y-103049727D01*
X159276971Y-103087414D01*
X159207548Y-103112349D01*
X159131916Y-103130484D01*
X159050077Y-103141819D01*
X158962029Y-103146352D01*
X158946751Y-103146447D01*
X158872691Y-103144085D01*
X158789297Y-103135018D01*
X158711880Y-103119150D01*
X158640439Y-103096481D01*
X158564645Y-103061439D01*
X158544483Y-103049727D01*
X158479132Y-103003535D01*
X158421565Y-102949910D01*
X158371782Y-102888851D01*
X158329782Y-102820360D01*
X158309277Y-102777884D01*
X158279442Y-102698606D01*
X158259701Y-102626161D01*
X158245344Y-102549568D01*
X158236371Y-102468827D01*
X158232782Y-102383939D01*
X158232724Y-102372685D01*
X158566831Y-102372685D01*
X158570000Y-102459892D01*
X158579505Y-102539885D01*
X158595348Y-102612666D01*
X158621840Y-102688460D01*
X158656957Y-102754437D01*
X158709004Y-102815345D01*
X158774651Y-102858851D01*
X158853901Y-102884954D01*
X158934401Y-102893520D01*
X158946751Y-102893655D01*
X159030347Y-102886994D01*
X159102898Y-102867008D01*
X159172290Y-102827853D01*
X159227256Y-102771296D01*
X159238743Y-102754437D01*
X159273147Y-102688460D01*
X159299100Y-102612666D01*
X159314621Y-102539885D01*
X159323933Y-102459892D01*
X159327037Y-102372685D01*
X159324882Y-102298915D01*
X159316604Y-102217239D01*
X159302118Y-102143033D01*
X159277372Y-102065901D01*
X159244176Y-101998937D01*
X159238743Y-101990201D01*
X159187521Y-101929614D01*
X159122148Y-101886337D01*
X159042624Y-101860371D01*
X158961432Y-101851851D01*
X158948949Y-101851715D01*
X158866105Y-101858342D01*
X158793884Y-101878223D01*
X158724355Y-101917172D01*
X158668702Y-101973431D01*
X158656957Y-101990201D01*
X158621840Y-102055712D01*
X158595348Y-102131392D01*
X158579505Y-102204353D01*
X158570000Y-102284784D01*
X158566831Y-102372685D01*
X158232724Y-102372685D01*
X158232707Y-102369388D01*
X158235399Y-102283887D01*
X158243475Y-102202687D01*
X158256934Y-102125789D01*
X158275778Y-102053193D01*
X158304566Y-101973935D01*
X158309277Y-101963090D01*
X158346829Y-101891278D01*
X158392164Y-101826828D01*
X158445284Y-101769742D01*
X158506187Y-101720019D01*
X158544483Y-101694912D01*
X158618059Y-101657510D01*
X158687765Y-101632763D01*
X158763603Y-101614766D01*
X158845571Y-101603517D01*
X158933670Y-101599018D01*
X158948949Y-101598924D01*
X159022982Y-101601268D01*
G37*
G36*
X161189633Y-103123000D02*
G01*
X160847449Y-103123000D01*
X160738272Y-102771290D01*
X160192023Y-102771290D01*
X160082847Y-103123000D01*
X159740662Y-103123000D01*
X159955581Y-102513369D01*
X160271891Y-102513369D01*
X160662435Y-102513369D01*
X160553258Y-102163125D01*
X160532235Y-102092205D01*
X160526147Y-102072267D01*
X160504028Y-101999350D01*
X160492442Y-101960526D01*
X160472386Y-101889040D01*
X160465331Y-101861241D01*
X160446273Y-101932215D01*
X160436755Y-101965655D01*
X160416212Y-102037419D01*
X160403049Y-102083990D01*
X160381942Y-102155011D01*
X160379235Y-102163125D01*
X160271891Y-102513369D01*
X159955581Y-102513369D01*
X160269692Y-101622371D01*
X160658405Y-101622371D01*
X161189633Y-103123000D01*
G37*
G36*
X161888433Y-101624095D02*
G01*
X161974051Y-101631094D01*
X162051816Y-101643479D01*
X162134767Y-101665448D01*
X162206410Y-101695171D01*
X162266744Y-101732647D01*
X162323703Y-101786380D01*
X162366671Y-101851087D01*
X162395650Y-101926769D01*
X162409355Y-102000374D01*
X162412923Y-102067870D01*
X162406514Y-102146390D01*
X162385277Y-102221484D01*
X162374089Y-102245923D01*
X162332127Y-102312030D01*
X162279056Y-102368155D01*
X162271140Y-102374884D01*
X162208941Y-102420339D01*
X162142555Y-102457101D01*
X162133387Y-102461346D01*
X162574490Y-103123000D01*
X162221681Y-103123000D01*
X161864842Y-102536817D01*
X161694483Y-102536817D01*
X161694483Y-103123000D01*
X161377578Y-103123000D01*
X161377578Y-102284025D01*
X161694483Y-102284025D01*
X161797431Y-102284025D01*
X161878975Y-102279852D01*
X161952992Y-102265427D01*
X162023112Y-102231269D01*
X162072287Y-102170357D01*
X162091020Y-102093461D01*
X162091622Y-102074465D01*
X162079650Y-101996991D01*
X162036083Y-101933294D01*
X162019082Y-101920958D01*
X161946478Y-101891308D01*
X161872032Y-101878785D01*
X161791203Y-101875163D01*
X161694483Y-101875163D01*
X161694483Y-102284025D01*
X161377578Y-102284025D01*
X161377578Y-101622371D01*
X161814284Y-101622371D01*
X161888433Y-101624095D01*
G37*
G36*
X163318872Y-101625334D02*
G01*
X163400544Y-101634221D01*
X163477863Y-101649033D01*
X163550828Y-101669770D01*
X163619440Y-101696431D01*
X163641343Y-101706635D01*
X163713423Y-101747127D01*
X163778035Y-101795192D01*
X163835179Y-101850831D01*
X163884855Y-101914043D01*
X163909888Y-101953565D01*
X163947146Y-102028518D01*
X163971799Y-102098791D01*
X163989728Y-102174628D01*
X164000933Y-102256030D01*
X164005416Y-102342996D01*
X164005509Y-102358031D01*
X164002143Y-102450166D01*
X163992045Y-102536427D01*
X163975215Y-102616816D01*
X163951653Y-102691331D01*
X163921360Y-102759973D01*
X163874026Y-102837516D01*
X163816173Y-102905881D01*
X163790087Y-102930658D01*
X163718651Y-102986069D01*
X163655410Y-103023636D01*
X163586754Y-103055192D01*
X163512683Y-103080737D01*
X163433196Y-103100272D01*
X163348294Y-103113796D01*
X163257977Y-103121309D01*
X163186685Y-103123000D01*
X162762435Y-103123000D01*
X162762435Y-102870208D01*
X163079340Y-102870208D01*
X163215994Y-102870208D01*
X163298163Y-102865787D01*
X163372250Y-102852524D01*
X163458460Y-102821085D01*
X163530302Y-102773927D01*
X163587775Y-102711050D01*
X163630880Y-102632453D01*
X163659617Y-102538138D01*
X163671740Y-102457085D01*
X163675781Y-102367190D01*
X163673116Y-102290939D01*
X163662880Y-102208198D01*
X163644969Y-102135013D01*
X163614369Y-102061711D01*
X163566605Y-101993865D01*
X163505857Y-101941933D01*
X163432790Y-101904838D01*
X163358751Y-101884552D01*
X163275281Y-101875626D01*
X163249699Y-101875163D01*
X163079340Y-101875163D01*
X163079340Y-102870208D01*
X162762435Y-102870208D01*
X162762435Y-101622371D01*
X163232847Y-101622371D01*
X163318872Y-101625334D01*
G37*
G36*
X137341225Y-103709122D02*
G01*
X137424515Y-103718120D01*
X137501752Y-103733868D01*
X137572936Y-103756365D01*
X137648332Y-103791142D01*
X137668360Y-103802766D01*
X137733408Y-103848334D01*
X137790708Y-103901371D01*
X137840258Y-103961875D01*
X137882060Y-104029848D01*
X137902467Y-104072043D01*
X137932303Y-104150893D01*
X137952043Y-104223056D01*
X137966400Y-104299442D01*
X137975373Y-104380054D01*
X137978963Y-104464890D01*
X137979037Y-104479440D01*
X137976345Y-104564981D01*
X137968270Y-104646296D01*
X137954810Y-104723387D01*
X137935967Y-104796254D01*
X137907178Y-104875925D01*
X137902467Y-104886837D01*
X137865093Y-104959148D01*
X137819971Y-105024131D01*
X137767100Y-105081786D01*
X137706480Y-105132113D01*
X137668360Y-105157581D01*
X137595213Y-105195268D01*
X137525790Y-105220203D01*
X137450159Y-105238338D01*
X137368319Y-105249673D01*
X137280272Y-105254206D01*
X137264993Y-105254301D01*
X137190933Y-105251939D01*
X137107540Y-105242872D01*
X137030122Y-105227004D01*
X136958681Y-105204335D01*
X136882887Y-105169293D01*
X136862725Y-105157581D01*
X136797374Y-105111389D01*
X136739807Y-105057764D01*
X136690024Y-104996705D01*
X136648025Y-104928214D01*
X136627520Y-104885738D01*
X136597684Y-104806460D01*
X136577943Y-104734015D01*
X136563587Y-104657422D01*
X136554613Y-104576681D01*
X136551024Y-104491793D01*
X136550966Y-104480539D01*
X136885074Y-104480539D01*
X136888242Y-104567746D01*
X136897748Y-104647739D01*
X136913590Y-104720520D01*
X136940082Y-104796314D01*
X136975199Y-104862291D01*
X137027246Y-104923199D01*
X137092894Y-104966705D01*
X137172143Y-104992808D01*
X137252643Y-105001374D01*
X137264993Y-105001509D01*
X137348589Y-104994848D01*
X137421140Y-104974862D01*
X137490532Y-104935707D01*
X137545498Y-104879150D01*
X137556986Y-104862291D01*
X137591389Y-104796314D01*
X137617343Y-104720520D01*
X137632863Y-104647739D01*
X137642175Y-104567746D01*
X137645280Y-104480539D01*
X137643124Y-104406769D01*
X137634846Y-104325093D01*
X137620361Y-104250887D01*
X137595614Y-104173755D01*
X137562418Y-104106791D01*
X137556986Y-104098055D01*
X137505763Y-104037468D01*
X137440390Y-103994191D01*
X137360866Y-103968225D01*
X137279675Y-103959705D01*
X137267192Y-103959569D01*
X137184347Y-103966196D01*
X137112126Y-103986077D01*
X137042597Y-104025026D01*
X136986944Y-104081285D01*
X136975199Y-104098055D01*
X136940082Y-104163566D01*
X136913590Y-104239246D01*
X136897748Y-104312207D01*
X136888242Y-104392638D01*
X136885074Y-104480539D01*
X136550966Y-104480539D01*
X136550949Y-104477242D01*
X136553641Y-104391741D01*
X136561717Y-104310541D01*
X136575177Y-104233643D01*
X136594020Y-104161047D01*
X136622809Y-104081789D01*
X136627520Y-104070944D01*
X136665071Y-103999132D01*
X136710407Y-103934682D01*
X136763526Y-103877596D01*
X136824429Y-103827873D01*
X136862725Y-103802766D01*
X136936301Y-103765364D01*
X137006007Y-103740617D01*
X137081845Y-103722620D01*
X137163813Y-103711371D01*
X137251912Y-103706872D01*
X137267192Y-103706778D01*
X137341225Y-103709122D01*
G37*
G36*
X138799836Y-103731949D02*
G01*
X138885454Y-103738948D01*
X138963219Y-103751333D01*
X139046171Y-103773302D01*
X139117813Y-103803025D01*
X139178148Y-103840501D01*
X139235106Y-103894234D01*
X139278075Y-103958941D01*
X139307054Y-104034623D01*
X139320758Y-104108228D01*
X139324327Y-104175724D01*
X139317918Y-104254244D01*
X139296680Y-104329338D01*
X139285492Y-104353777D01*
X139243530Y-104419884D01*
X139190459Y-104476009D01*
X139182544Y-104482738D01*
X139120344Y-104528193D01*
X139053959Y-104564955D01*
X139044791Y-104569200D01*
X139485894Y-105230854D01*
X139133085Y-105230854D01*
X138776246Y-104644671D01*
X138605887Y-104644671D01*
X138605887Y-105230854D01*
X138288982Y-105230854D01*
X138288982Y-104391879D01*
X138605887Y-104391879D01*
X138708835Y-104391879D01*
X138790378Y-104387706D01*
X138864395Y-104373281D01*
X138934515Y-104339123D01*
X138983690Y-104278211D01*
X139002423Y-104201315D01*
X139003026Y-104182319D01*
X138991054Y-104104845D01*
X138947487Y-104041148D01*
X138930485Y-104028812D01*
X138857882Y-103999162D01*
X138783435Y-103986639D01*
X138702607Y-103983017D01*
X138605887Y-103983017D01*
X138605887Y-104391879D01*
X138288982Y-104391879D01*
X138288982Y-103730225D01*
X138725688Y-103730225D01*
X138799836Y-103731949D01*
G37*
G36*
X140234376Y-105230854D02*
G01*
X139551839Y-105230854D01*
X139551839Y-105052434D01*
X139734655Y-104969636D01*
X139734655Y-104010860D01*
X139551839Y-103927329D01*
X139551839Y-103730225D01*
X140234376Y-103730225D01*
X140234376Y-103927329D01*
X140051926Y-104010860D01*
X140051926Y-104969636D01*
X140234376Y-105052434D01*
X140234376Y-105230854D01*
G37*
G36*
X141059062Y-104391879D02*
G01*
X141653305Y-104391879D01*
X141653305Y-105172602D01*
X141578873Y-105194648D01*
X141502580Y-105213617D01*
X141424427Y-105229510D01*
X141408573Y-105232319D01*
X141334488Y-105242945D01*
X141254838Y-105250093D01*
X141179367Y-105253528D01*
X141119878Y-105254301D01*
X141038316Y-105251204D01*
X140961609Y-105241913D01*
X140889756Y-105226429D01*
X140806766Y-105198363D01*
X140731360Y-105160619D01*
X140663540Y-105113197D01*
X140603305Y-105056098D01*
X140551271Y-104989732D01*
X140508057Y-104914511D01*
X140473662Y-104830435D01*
X140452496Y-104756799D01*
X140436974Y-104677495D01*
X140427097Y-104592524D01*
X140422863Y-104501886D01*
X140422687Y-104478341D01*
X140425894Y-104392080D01*
X140435516Y-104310249D01*
X140451551Y-104232849D01*
X140474001Y-104159879D01*
X140502865Y-104091340D01*
X140513912Y-104069479D01*
X140557945Y-103997559D01*
X140609902Y-103933107D01*
X140669783Y-103876123D01*
X140737589Y-103826608D01*
X140779892Y-103801666D01*
X140848006Y-103769419D01*
X140921555Y-103743844D01*
X141000539Y-103724940D01*
X141084959Y-103712709D01*
X141159461Y-103707612D01*
X141205974Y-103706778D01*
X141280420Y-103709211D01*
X141354008Y-103716510D01*
X141426737Y-103728674D01*
X141441180Y-103731691D01*
X141518261Y-103750515D01*
X141590321Y-103773235D01*
X141651473Y-103797270D01*
X141546326Y-104048596D01*
X141477225Y-104015248D01*
X141405177Y-103989642D01*
X141388790Y-103984849D01*
X141315721Y-103968481D01*
X141239991Y-103960458D01*
X141204142Y-103959569D01*
X141128965Y-103964699D01*
X141052300Y-103982430D01*
X140982863Y-104012827D01*
X140963441Y-104024416D01*
X140904293Y-104070133D01*
X140854161Y-104126225D01*
X140813045Y-104192693D01*
X140805904Y-104207232D01*
X140779162Y-104276745D01*
X140761172Y-104352982D01*
X140752528Y-104426392D01*
X140750583Y-104484936D01*
X140753056Y-104558438D01*
X140761750Y-104635982D01*
X140776704Y-104708077D01*
X140790150Y-104753114D01*
X140819617Y-104820992D01*
X140862444Y-104884252D01*
X140916180Y-104935564D01*
X140981604Y-104973109D01*
X141059497Y-104995069D01*
X141132501Y-105001445D01*
X141141127Y-105001509D01*
X141217205Y-104998933D01*
X141255433Y-104994915D01*
X141329970Y-104981864D01*
X141342628Y-104979161D01*
X141342628Y-104644671D01*
X141059062Y-104644671D01*
X141059062Y-104391879D01*
G37*
G36*
X142570314Y-105230854D02*
G01*
X141887778Y-105230854D01*
X141887778Y-105052434D01*
X142070594Y-104969636D01*
X142070594Y-104010860D01*
X141887778Y-103927329D01*
X141887778Y-103730225D01*
X142570314Y-103730225D01*
X142570314Y-103927329D01*
X142387865Y-104010860D01*
X142387865Y-104969636D01*
X142570314Y-105052434D01*
X142570314Y-105230854D01*
G37*
G36*
X144155206Y-105230854D02*
G01*
X143752206Y-105230854D01*
X143098978Y-104110512D01*
X143090552Y-104110512D01*
X143093952Y-104189921D01*
X143097558Y-104269330D01*
X143100077Y-104322270D01*
X143103821Y-104401456D01*
X143107359Y-104480746D01*
X143109603Y-104533662D01*
X143109603Y-105230854D01*
X142826037Y-105230854D01*
X142826037Y-103730225D01*
X143227206Y-103730225D01*
X143878235Y-104859360D01*
X143884463Y-104859360D01*
X143882505Y-104780535D01*
X143879929Y-104702327D01*
X143877868Y-104650532D01*
X143874846Y-104572823D01*
X143871823Y-104495217D01*
X143869808Y-104443537D01*
X143869808Y-103730225D01*
X144155206Y-103730225D01*
X144155206Y-105230854D01*
G37*
G36*
X145793221Y-105230854D02*
G01*
X145451037Y-105230854D01*
X145341860Y-104879144D01*
X144795611Y-104879144D01*
X144686434Y-105230854D01*
X144344250Y-105230854D01*
X144559169Y-104621223D01*
X144875478Y-104621223D01*
X145266023Y-104621223D01*
X145156846Y-104270979D01*
X145135823Y-104200059D01*
X145129735Y-104180121D01*
X145107616Y-104107204D01*
X145096030Y-104068380D01*
X145075974Y-103996894D01*
X145068919Y-103969095D01*
X145049861Y-104040069D01*
X145040342Y-104073509D01*
X145019799Y-104145273D01*
X145006637Y-104191844D01*
X144985530Y-104262865D01*
X144982823Y-104270979D01*
X144875478Y-104621223D01*
X144559169Y-104621223D01*
X144873280Y-103730225D01*
X145261993Y-103730225D01*
X145793221Y-105230854D01*
G37*
G36*
X145981166Y-105230854D02*
G01*
X145981166Y-103730225D01*
X146298071Y-103730225D01*
X146298071Y-104978062D01*
X146907335Y-104978062D01*
X146907335Y-105230854D01*
X145981166Y-105230854D01*
G37*
G36*
X148268308Y-103733188D02*
G01*
X148349980Y-103742075D01*
X148427298Y-103756887D01*
X148500264Y-103777624D01*
X148568875Y-103804285D01*
X148590778Y-103814489D01*
X148662859Y-103854981D01*
X148727471Y-103903046D01*
X148784615Y-103958685D01*
X148834290Y-104021897D01*
X148859323Y-104061419D01*
X148896582Y-104136372D01*
X148921234Y-104206645D01*
X148939163Y-104282482D01*
X148950369Y-104363884D01*
X148954851Y-104450850D01*
X148954945Y-104465885D01*
X148951579Y-104558020D01*
X148941481Y-104644281D01*
X148924651Y-104724670D01*
X148901089Y-104799185D01*
X148870795Y-104867827D01*
X148823461Y-104945370D01*
X148765609Y-105013735D01*
X148739522Y-105038512D01*
X148668087Y-105093923D01*
X148604846Y-105131490D01*
X148536190Y-105163046D01*
X148462118Y-105188591D01*
X148382632Y-105208126D01*
X148297730Y-105221650D01*
X148207412Y-105229163D01*
X148136120Y-105230854D01*
X147711871Y-105230854D01*
X147711871Y-104978062D01*
X148028776Y-104978062D01*
X148165430Y-104978062D01*
X148247599Y-104973641D01*
X148321685Y-104960378D01*
X148407895Y-104928939D01*
X148479737Y-104881781D01*
X148537211Y-104818904D01*
X148580316Y-104740307D01*
X148609052Y-104645992D01*
X148621176Y-104564939D01*
X148625217Y-104475044D01*
X148622551Y-104398793D01*
X148612316Y-104316052D01*
X148594404Y-104242867D01*
X148563805Y-104169565D01*
X148516040Y-104101719D01*
X148455292Y-104049787D01*
X148382226Y-104012692D01*
X148308187Y-103992406D01*
X148224716Y-103983480D01*
X148199135Y-103983017D01*
X148028776Y-103983017D01*
X148028776Y-104978062D01*
X147711871Y-104978062D01*
X147711871Y-103730225D01*
X148182282Y-103730225D01*
X148268308Y-103733188D01*
G37*
G36*
X150128409Y-105230854D02*
G01*
X149265255Y-105230854D01*
X149265255Y-103730225D01*
X150128409Y-103730225D01*
X150128409Y-103983017D01*
X149582160Y-103983017D01*
X149582160Y-104321537D01*
X150090674Y-104321537D01*
X150090674Y-104574329D01*
X149582160Y-104574329D01*
X149582160Y-104978062D01*
X150128409Y-104978062D01*
X150128409Y-105230854D01*
G37*
G36*
X151324589Y-104811366D02*
G01*
X151317699Y-104895934D01*
X151297030Y-104972683D01*
X151262581Y-105041612D01*
X151214353Y-105102723D01*
X151180607Y-105134133D01*
X151111991Y-105180956D01*
X151043967Y-105211937D01*
X150967443Y-105234468D01*
X150882418Y-105248551D01*
X150805070Y-105253831D01*
X150772478Y-105254301D01*
X150685229Y-105251287D01*
X150601534Y-105242245D01*
X150521395Y-105227176D01*
X150444811Y-105206078D01*
X150371781Y-105178953D01*
X150348228Y-105168572D01*
X150348228Y-104875114D01*
X150415805Y-104903901D01*
X150484813Y-104931185D01*
X150555252Y-104956966D01*
X150569512Y-104961942D01*
X150641039Y-104982808D01*
X150719388Y-104996834D01*
X150797390Y-105001509D01*
X150876010Y-104995069D01*
X150947333Y-104968907D01*
X150964453Y-104955714D01*
X151005749Y-104892807D01*
X151013912Y-104839943D01*
X150995556Y-104768993D01*
X150975077Y-104742124D01*
X150916230Y-104693752D01*
X150871030Y-104666653D01*
X150805787Y-104632553D01*
X150737486Y-104598693D01*
X150721919Y-104591181D01*
X150656606Y-104557499D01*
X150608347Y-104530731D01*
X150545177Y-104488606D01*
X150491843Y-104443537D01*
X150441193Y-104385926D01*
X150402859Y-104321767D01*
X150400618Y-104317141D01*
X150376325Y-104246135D01*
X150365948Y-104170155D01*
X150365081Y-104138355D01*
X150369872Y-104065012D01*
X150387573Y-103987487D01*
X150418318Y-103918623D01*
X150462106Y-103858418D01*
X150501368Y-103820717D01*
X150565870Y-103776321D01*
X150639804Y-103742829D01*
X150710682Y-103722801D01*
X150788490Y-103710784D01*
X150873228Y-103706778D01*
X150952695Y-103709938D01*
X151029391Y-103719419D01*
X151096710Y-103733523D01*
X151170836Y-103754550D01*
X151247127Y-103780860D01*
X151318360Y-103809360D01*
X151215412Y-104057022D01*
X151147103Y-104027545D01*
X151078212Y-104001115D01*
X151030398Y-103985215D01*
X150958070Y-103967684D01*
X150884059Y-103959970D01*
X150862603Y-103959569D01*
X150787288Y-103968907D01*
X150724118Y-104002068D01*
X150682558Y-104065208D01*
X150675758Y-104112710D01*
X150693618Y-104185158D01*
X150747199Y-104240571D01*
X150810517Y-104278730D01*
X150878158Y-104315095D01*
X150950598Y-104351371D01*
X150959323Y-104355609D01*
X151028053Y-104390614D01*
X151095803Y-104430111D01*
X151155328Y-104470648D01*
X151215007Y-104522675D01*
X151262471Y-104581716D01*
X151280259Y-104611332D01*
X151308961Y-104683228D01*
X151322467Y-104760972D01*
X151324589Y-104811366D01*
G37*
G36*
X152157335Y-105230854D02*
G01*
X151474798Y-105230854D01*
X151474798Y-105052434D01*
X151657614Y-104969636D01*
X151657614Y-104010860D01*
X151474798Y-103927329D01*
X151474798Y-103730225D01*
X152157335Y-103730225D01*
X152157335Y-103927329D01*
X151974885Y-104010860D01*
X151974885Y-104969636D01*
X152157335Y-105052434D01*
X152157335Y-105230854D01*
G37*
G36*
X152982021Y-104391879D02*
G01*
X153576263Y-104391879D01*
X153576263Y-105172602D01*
X153501831Y-105194648D01*
X153425539Y-105213617D01*
X153347386Y-105229510D01*
X153331532Y-105232319D01*
X153257446Y-105242945D01*
X153177797Y-105250093D01*
X153102325Y-105253528D01*
X153042837Y-105254301D01*
X152961275Y-105251204D01*
X152884568Y-105241913D01*
X152812715Y-105226429D01*
X152729724Y-105198363D01*
X152654319Y-105160619D01*
X152586499Y-105113197D01*
X152526263Y-105056098D01*
X152474230Y-104989732D01*
X152431016Y-104914511D01*
X152396621Y-104830435D01*
X152375455Y-104756799D01*
X152359933Y-104677495D01*
X152350055Y-104592524D01*
X152345822Y-104501886D01*
X152345646Y-104478341D01*
X152348853Y-104392080D01*
X152358474Y-104310249D01*
X152374510Y-104232849D01*
X152396960Y-104159879D01*
X152425824Y-104091340D01*
X152436871Y-104069479D01*
X152480904Y-103997559D01*
X152532861Y-103933107D01*
X152592742Y-103876123D01*
X152660547Y-103826608D01*
X152702851Y-103801666D01*
X152770965Y-103769419D01*
X152844514Y-103743844D01*
X152923498Y-103724940D01*
X153007918Y-103712709D01*
X153082420Y-103707612D01*
X153128933Y-103706778D01*
X153203379Y-103709211D01*
X153276967Y-103716510D01*
X153349696Y-103728674D01*
X153364139Y-103731691D01*
X153441220Y-103750515D01*
X153513280Y-103773235D01*
X153574432Y-103797270D01*
X153469285Y-104048596D01*
X153400184Y-104015248D01*
X153328136Y-103989642D01*
X153311748Y-103984849D01*
X153238680Y-103968481D01*
X153162950Y-103960458D01*
X153127101Y-103959569D01*
X153051924Y-103964699D01*
X152975259Y-103982430D01*
X152905822Y-104012827D01*
X152886400Y-104024416D01*
X152827252Y-104070133D01*
X152777120Y-104126225D01*
X152736004Y-104192693D01*
X152728863Y-104207232D01*
X152702121Y-104276745D01*
X152684131Y-104352982D01*
X152675487Y-104426392D01*
X152673542Y-104484936D01*
X152676015Y-104558438D01*
X152684709Y-104635982D01*
X152699663Y-104708077D01*
X152713109Y-104753114D01*
X152742576Y-104820992D01*
X152785403Y-104884252D01*
X152839139Y-104935564D01*
X152904563Y-104973109D01*
X152982456Y-104995069D01*
X153055459Y-105001445D01*
X153064086Y-105001509D01*
X153140164Y-104998933D01*
X153178392Y-104994915D01*
X153252928Y-104981864D01*
X153265587Y-104979161D01*
X153265587Y-104644671D01*
X152982021Y-104644671D01*
X152982021Y-104391879D01*
G37*
G36*
X155261905Y-105230854D02*
G01*
X154858905Y-105230854D01*
X154205677Y-104110512D01*
X154197251Y-104110512D01*
X154200651Y-104189921D01*
X154204258Y-104269330D01*
X154206776Y-104322270D01*
X154210520Y-104401456D01*
X154214058Y-104480746D01*
X154216302Y-104533662D01*
X154216302Y-105230854D01*
X153932736Y-105230854D01*
X153932736Y-103730225D01*
X154333905Y-103730225D01*
X154984934Y-104859360D01*
X154991162Y-104859360D01*
X154989205Y-104780535D01*
X154986629Y-104702327D01*
X154984568Y-104650532D01*
X154981545Y-104572823D01*
X154978523Y-104495217D01*
X154976508Y-104443537D01*
X154976508Y-103730225D01*
X155261905Y-103730225D01*
X155261905Y-105230854D01*
G37*
G36*
X156741444Y-103732274D02*
G01*
X156824538Y-103738419D01*
X156900440Y-103748660D01*
X156982031Y-103766357D01*
X157053266Y-103789953D01*
X157104718Y-103814123D01*
X157164531Y-103856786D01*
X157214901Y-103920528D01*
X157243234Y-103989412D01*
X157256875Y-104070534D01*
X157258224Y-104109046D01*
X157252357Y-104185060D01*
X157232348Y-104259666D01*
X157198141Y-104324835D01*
X157146088Y-104381043D01*
X157079507Y-104417777D01*
X157027049Y-104431447D01*
X157027049Y-104442071D01*
X157099131Y-104462588D01*
X157163702Y-104494828D01*
X157221185Y-104544538D01*
X157260056Y-104604371D01*
X157284600Y-104676038D01*
X157294698Y-104751532D01*
X157295960Y-104794147D01*
X157290795Y-104867829D01*
X157271714Y-104945913D01*
X157238572Y-105015511D01*
X157191371Y-105076625D01*
X157149048Y-105115082D01*
X157079532Y-105160192D01*
X157011603Y-105190040D01*
X156935972Y-105211747D01*
X156852638Y-105225314D01*
X156777310Y-105230401D01*
X156745681Y-105230854D01*
X156185143Y-105230854D01*
X156185143Y-104978062D01*
X156502049Y-104978062D01*
X156710143Y-104978062D01*
X156783675Y-104973512D01*
X156854972Y-104955594D01*
X156909446Y-104920543D01*
X156950205Y-104858247D01*
X156965733Y-104784997D01*
X156966232Y-104767403D01*
X156953513Y-104693407D01*
X156911908Y-104630805D01*
X156908347Y-104627452D01*
X156840065Y-104591137D01*
X156761228Y-104576871D01*
X156699519Y-104574329D01*
X156502049Y-104574329D01*
X156502049Y-104978062D01*
X156185143Y-104978062D01*
X156185143Y-104321537D01*
X156502049Y-104321537D01*
X156687062Y-104321537D01*
X156765316Y-104317172D01*
X156837306Y-104300411D01*
X156879037Y-104276841D01*
X156922288Y-104213690D01*
X156932527Y-104146782D01*
X156916773Y-104071860D01*
X156869512Y-104021485D01*
X156800530Y-103995188D01*
X156726455Y-103984858D01*
X156670210Y-103983017D01*
X156502049Y-103983017D01*
X156502049Y-104321537D01*
X156185143Y-104321537D01*
X156185143Y-103730225D01*
X156651159Y-103730225D01*
X156741444Y-103732274D01*
G37*
G36*
X158062394Y-104347916D02*
G01*
X158375269Y-103730225D01*
X158717820Y-103730225D01*
X158219931Y-104654196D01*
X158219931Y-105230854D01*
X157904857Y-105230854D01*
X157904857Y-104664454D01*
X157407335Y-103730225D01*
X157751717Y-103730225D01*
X158062394Y-104347916D01*
G37*
G36*
X160351080Y-103733368D02*
G01*
X160429966Y-103742796D01*
X160505297Y-103758510D01*
X160577073Y-103780509D01*
X160645294Y-103808793D01*
X160667244Y-103819618D01*
X160739963Y-103862409D01*
X160805529Y-103912563D01*
X160863943Y-103970080D01*
X160915204Y-104034960D01*
X160941284Y-104075341D01*
X160980256Y-104151090D01*
X161006042Y-104220762D01*
X161024795Y-104294814D01*
X161036516Y-104373244D01*
X161041204Y-104456054D01*
X161041302Y-104470281D01*
X161037493Y-104547671D01*
X161026065Y-104624456D01*
X161018221Y-104659692D01*
X160995477Y-104732877D01*
X160964752Y-104800620D01*
X160947879Y-104830051D01*
X160901897Y-104891199D01*
X160846659Y-104940006D01*
X160829177Y-104951684D01*
X160761898Y-104982238D01*
X160685081Y-104995682D01*
X160661382Y-104996380D01*
X160588109Y-104987221D01*
X160524362Y-104959744D01*
X160467281Y-104908054D01*
X160442663Y-104863757D01*
X160426176Y-104863757D01*
X160373449Y-104916191D01*
X160313702Y-104956447D01*
X160241478Y-104985110D01*
X160168725Y-104995756D01*
X160144442Y-104996380D01*
X160066764Y-104990998D01*
X159987950Y-104971667D01*
X159919761Y-104938276D01*
X159862196Y-104890826D01*
X159855747Y-104883907D01*
X159811188Y-104823090D01*
X159779360Y-104753481D01*
X159760263Y-104675079D01*
X159753997Y-104599264D01*
X159753933Y-104591914D01*
X159991302Y-104591914D01*
X159998102Y-104669572D01*
X160025730Y-104740852D01*
X160039662Y-104758244D01*
X160103920Y-104799125D01*
X160167523Y-104808802D01*
X160242676Y-104796286D01*
X160303845Y-104750739D01*
X160315534Y-104732964D01*
X160344915Y-104663668D01*
X160361840Y-104586070D01*
X160367192Y-104534761D01*
X160379648Y-104310546D01*
X160327258Y-104298456D01*
X160262045Y-104292961D01*
X160188320Y-104300096D01*
X160119031Y-104326060D01*
X160103409Y-104336192D01*
X160049369Y-104389259D01*
X160017314Y-104447933D01*
X159997017Y-104522507D01*
X159991302Y-104591914D01*
X159753933Y-104591914D01*
X159753898Y-104587884D01*
X159758708Y-104510946D01*
X159775338Y-104431576D01*
X159803846Y-104358647D01*
X159814714Y-104338024D01*
X159857819Y-104274790D01*
X159910656Y-104220644D01*
X159973224Y-104175586D01*
X159986905Y-104167664D01*
X160060414Y-104134820D01*
X160133241Y-104115661D01*
X160212386Y-104106356D01*
X160249589Y-104105382D01*
X160324533Y-104107907D01*
X160401538Y-104115480D01*
X160454020Y-104123334D01*
X160527058Y-104137210D01*
X160599664Y-104155715D01*
X160619250Y-104162169D01*
X160598367Y-104597043D01*
X160596169Y-104639908D01*
X160596169Y-104667752D01*
X160602994Y-104742034D01*
X160620349Y-104780958D01*
X160673838Y-104808802D01*
X160741298Y-104777844D01*
X160753706Y-104761907D01*
X160785567Y-104695241D01*
X160800967Y-104636977D01*
X160812274Y-104560357D01*
X160816582Y-104482599D01*
X160816721Y-104465152D01*
X160813302Y-104391239D01*
X160801023Y-104312991D01*
X160779814Y-104241384D01*
X160745280Y-104168763D01*
X160701008Y-104104689D01*
X160648564Y-104049714D01*
X160587947Y-104003838D01*
X160550740Y-103982284D01*
X160478950Y-103951114D01*
X160401654Y-103930146D01*
X160328324Y-103920071D01*
X160270471Y-103917804D01*
X160190238Y-103921024D01*
X160114950Y-103930684D01*
X160033365Y-103950093D01*
X159958512Y-103978268D01*
X159899711Y-104009395D01*
X159837608Y-104052639D01*
X159782413Y-104102230D01*
X159734125Y-104158166D01*
X159692744Y-104220449D01*
X159672199Y-104258889D01*
X159641935Y-104330038D01*
X159619104Y-104405639D01*
X159603707Y-104485694D01*
X159595743Y-104570201D01*
X159594529Y-104620491D01*
X159598241Y-104705991D01*
X159609377Y-104785033D01*
X159627937Y-104857617D01*
X159660008Y-104936193D01*
X159702770Y-105005470D01*
X159746571Y-105056098D01*
X159808399Y-105107519D01*
X159879578Y-105148301D01*
X159960108Y-105178445D01*
X160034359Y-105195437D01*
X160115104Y-105205042D01*
X160184376Y-105207406D01*
X160261627Y-105204651D01*
X160340882Y-105196387D01*
X160413924Y-105184238D01*
X160438633Y-105179196D01*
X160511202Y-105162285D01*
X160587551Y-105141047D01*
X160659393Y-105117233D01*
X160680067Y-105109587D01*
X160680067Y-105307057D01*
X160608074Y-105332607D01*
X160530626Y-105354347D01*
X160455485Y-105370805D01*
X160376624Y-105383556D01*
X160303140Y-105390994D01*
X160227281Y-105394607D01*
X160192802Y-105394985D01*
X160113349Y-105392740D01*
X160037562Y-105386004D01*
X159951460Y-105371995D01*
X159870638Y-105351520D01*
X159795097Y-105324580D01*
X159747670Y-105303027D01*
X159681479Y-105265847D01*
X159621394Y-105223000D01*
X159559011Y-105165848D01*
X159504938Y-105100983D01*
X159465203Y-105039245D01*
X159432084Y-104972226D01*
X159405817Y-104900313D01*
X159386403Y-104823505D01*
X159373841Y-104741803D01*
X159368131Y-104655207D01*
X159367750Y-104625253D01*
X159370765Y-104543523D01*
X159379811Y-104464388D01*
X159394888Y-104387847D01*
X159415995Y-104313901D01*
X159430765Y-104272811D01*
X159460981Y-104203448D01*
X159496491Y-104138012D01*
X159537296Y-104076503D01*
X159583395Y-104018920D01*
X159612115Y-103987780D01*
X159666308Y-103936999D01*
X159725025Y-103891409D01*
X159788265Y-103851007D01*
X159856028Y-103815794D01*
X159896780Y-103798003D01*
X159971300Y-103771593D01*
X160049641Y-103751671D01*
X160131804Y-103738234D01*
X160205272Y-103731880D01*
X160268640Y-103730225D01*
X160351080Y-103733368D01*
G37*
G36*
X161891060Y-103732274D02*
G01*
X161974154Y-103738419D01*
X162050057Y-103748660D01*
X162131647Y-103766357D01*
X162202882Y-103789953D01*
X162254334Y-103814123D01*
X162314148Y-103856786D01*
X162364517Y-103920528D01*
X162392850Y-103989412D01*
X162406491Y-104070534D01*
X162407841Y-104109046D01*
X162401973Y-104185060D01*
X162381965Y-104259666D01*
X162347757Y-104324835D01*
X162295704Y-104381043D01*
X162229124Y-104417777D01*
X162176665Y-104431447D01*
X162176665Y-104442071D01*
X162248747Y-104462588D01*
X162313319Y-104494828D01*
X162370802Y-104544538D01*
X162409672Y-104604371D01*
X162434216Y-104676038D01*
X162444314Y-104751532D01*
X162445576Y-104794147D01*
X162440411Y-104867829D01*
X162421330Y-104945913D01*
X162388189Y-105015511D01*
X162340987Y-105076625D01*
X162298664Y-105115082D01*
X162229148Y-105160192D01*
X162161219Y-105190040D01*
X162085588Y-105211747D01*
X162002254Y-105225314D01*
X161926926Y-105230401D01*
X161895297Y-105230854D01*
X161334760Y-105230854D01*
X161334760Y-104978062D01*
X161651665Y-104978062D01*
X161859760Y-104978062D01*
X161933292Y-104973512D01*
X162004588Y-104955594D01*
X162059062Y-104920543D01*
X162099822Y-104858247D01*
X162115349Y-104784997D01*
X162115848Y-104767403D01*
X162103129Y-104693407D01*
X162061524Y-104630805D01*
X162057963Y-104627452D01*
X161989682Y-104591137D01*
X161910845Y-104576871D01*
X161849135Y-104574329D01*
X161651665Y-104574329D01*
X161651665Y-104978062D01*
X161334760Y-104978062D01*
X161334760Y-104321537D01*
X161651665Y-104321537D01*
X161836679Y-104321537D01*
X161914932Y-104317172D01*
X161986922Y-104300411D01*
X162028654Y-104276841D01*
X162071905Y-104213690D01*
X162082143Y-104146782D01*
X162066389Y-104071860D01*
X162019128Y-104021485D01*
X161950146Y-103995188D01*
X161876071Y-103984858D01*
X161819826Y-103983017D01*
X161651665Y-103983017D01*
X161651665Y-104321537D01*
X161334760Y-104321537D01*
X161334760Y-103730225D01*
X161800775Y-103730225D01*
X161891060Y-103732274D01*
G37*
G36*
X163256850Y-103731949D02*
G01*
X163342468Y-103738948D01*
X163420232Y-103751333D01*
X163503184Y-103773302D01*
X163574827Y-103803025D01*
X163635161Y-103840501D01*
X163692119Y-103894234D01*
X163735088Y-103958941D01*
X163764067Y-104034623D01*
X163777771Y-104108228D01*
X163781340Y-104175724D01*
X163774931Y-104254244D01*
X163753693Y-104329338D01*
X163742506Y-104353777D01*
X163700544Y-104419884D01*
X163647473Y-104476009D01*
X163639557Y-104482738D01*
X163577358Y-104528193D01*
X163510972Y-104564955D01*
X163501804Y-104569200D01*
X163942907Y-105230854D01*
X163590098Y-105230854D01*
X163233259Y-104644671D01*
X163062900Y-104644671D01*
X163062900Y-105230854D01*
X162745995Y-105230854D01*
X162745995Y-104391879D01*
X163062900Y-104391879D01*
X163165848Y-104391879D01*
X163247391Y-104387706D01*
X163321409Y-104373281D01*
X163391529Y-104339123D01*
X163440703Y-104278211D01*
X163459437Y-104201315D01*
X163460039Y-104182319D01*
X163448067Y-104104845D01*
X163404500Y-104041148D01*
X163387499Y-104028812D01*
X163314895Y-103999162D01*
X163240448Y-103986639D01*
X163159620Y-103983017D01*
X163062900Y-103983017D01*
X163062900Y-104391879D01*
X162745995Y-104391879D01*
X162745995Y-103730225D01*
X163182701Y-103730225D01*
X163256850Y-103731949D01*
G37*
G36*
X164691389Y-105230854D02*
G01*
X164008852Y-105230854D01*
X164008852Y-105052434D01*
X164191668Y-104969636D01*
X164191668Y-104010860D01*
X164008852Y-103927329D01*
X164008852Y-103730225D01*
X164691389Y-103730225D01*
X164691389Y-103927329D01*
X164508940Y-104010860D01*
X164508940Y-104969636D01*
X164691389Y-105052434D01*
X164691389Y-105230854D01*
G37*
G36*
X165583486Y-103959569D02*
G01*
X165507624Y-103966301D01*
X165431014Y-103990481D01*
X165365166Y-104032247D01*
X165310079Y-104091598D01*
X165303950Y-104100253D01*
X165266406Y-104166621D01*
X165238083Y-104242947D01*
X165221146Y-104316294D01*
X165210984Y-104396957D01*
X165207596Y-104484936D01*
X165209770Y-104559162D01*
X165218116Y-104641079D01*
X165232722Y-104715190D01*
X165257674Y-104791789D01*
X165291146Y-104857763D01*
X165296623Y-104866321D01*
X165348074Y-104925466D01*
X165413035Y-104967712D01*
X165491506Y-104993060D01*
X165571250Y-105001377D01*
X165583486Y-105001509D01*
X165658318Y-104998003D01*
X165732787Y-104987482D01*
X165767035Y-104980260D01*
X165843992Y-104959916D01*
X165919537Y-104936200D01*
X165965604Y-104920177D01*
X165965604Y-105180662D01*
X165891724Y-105206181D01*
X165818463Y-105226137D01*
X165769965Y-105236349D01*
X165694403Y-105247288D01*
X165619344Y-105252881D01*
X165553811Y-105254301D01*
X165470091Y-105250926D01*
X165392038Y-105240803D01*
X165319652Y-105223930D01*
X165242365Y-105195715D01*
X165172792Y-105158313D01*
X165110844Y-105112602D01*
X165056435Y-105059458D01*
X165009565Y-104998881D01*
X164970232Y-104930870D01*
X164951141Y-104888669D01*
X164923304Y-104809764D01*
X164904886Y-104737722D01*
X164891491Y-104661610D01*
X164883119Y-104581428D01*
X164879770Y-104497175D01*
X164879700Y-104482738D01*
X164882585Y-104399151D01*
X164891241Y-104319299D01*
X164905666Y-104243183D01*
X164925862Y-104170801D01*
X164951828Y-104102155D01*
X164961766Y-104080103D01*
X165001228Y-104007134D01*
X165047809Y-103941457D01*
X165101506Y-103883074D01*
X165162322Y-103831983D01*
X165200269Y-103806063D01*
X165272076Y-103767377D01*
X165350616Y-103738192D01*
X165423293Y-103720740D01*
X165500917Y-103710269D01*
X165583486Y-103706778D01*
X165659977Y-103710068D01*
X165736815Y-103719939D01*
X165806968Y-103734622D01*
X165883168Y-103755850D01*
X165957118Y-103781754D01*
X166022390Y-103809360D01*
X165919442Y-104070211D01*
X165851034Y-104035830D01*
X165782141Y-104005319D01*
X165750182Y-103992542D01*
X165676441Y-103970002D01*
X165598834Y-103959859D01*
X165583486Y-103959569D01*
G37*
G36*
X167488947Y-105230854D02*
G01*
X167127711Y-105230854D01*
X166734969Y-104606202D01*
X166600513Y-104701823D01*
X166600513Y-105230854D01*
X166283608Y-105230854D01*
X166283608Y-103730225D01*
X166600513Y-103730225D01*
X166600513Y-104427783D01*
X166643836Y-104366325D01*
X166663528Y-104338390D01*
X166706851Y-104276602D01*
X166726543Y-104248631D01*
X167132108Y-103730225D01*
X167484917Y-103730225D01*
X166961748Y-104405068D01*
X167488947Y-105230854D01*
G37*
G36*
X168233558Y-103732274D02*
G01*
X168316652Y-103738419D01*
X168392555Y-103748660D01*
X168474145Y-103766357D01*
X168545380Y-103789953D01*
X168596832Y-103814123D01*
X168656646Y-103856786D01*
X168707015Y-103920528D01*
X168735348Y-103989412D01*
X168748990Y-104070534D01*
X168750339Y-104109046D01*
X168744471Y-104185060D01*
X168724463Y-104259666D01*
X168690255Y-104324835D01*
X168638203Y-104381043D01*
X168571622Y-104417777D01*
X168519163Y-104431447D01*
X168519163Y-104442071D01*
X168591245Y-104462588D01*
X168655817Y-104494828D01*
X168713300Y-104544538D01*
X168752171Y-104604371D01*
X168776714Y-104676038D01*
X168786812Y-104751532D01*
X168788074Y-104794147D01*
X168782909Y-104867829D01*
X168763828Y-104945913D01*
X168730687Y-105015511D01*
X168683486Y-105076625D01*
X168641162Y-105115082D01*
X168571646Y-105160192D01*
X168503717Y-105190040D01*
X168428086Y-105211747D01*
X168344752Y-105225314D01*
X168269424Y-105230401D01*
X168237795Y-105230854D01*
X167677258Y-105230854D01*
X167677258Y-104978062D01*
X167994163Y-104978062D01*
X168202258Y-104978062D01*
X168275790Y-104973512D01*
X168347086Y-104955594D01*
X168401560Y-104920543D01*
X168442320Y-104858247D01*
X168457847Y-104784997D01*
X168458347Y-104767403D01*
X168445628Y-104693407D01*
X168404022Y-104630805D01*
X168400461Y-104627452D01*
X168332180Y-104591137D01*
X168253343Y-104576871D01*
X168191633Y-104574329D01*
X167994163Y-104574329D01*
X167994163Y-104978062D01*
X167677258Y-104978062D01*
X167677258Y-104321537D01*
X167994163Y-104321537D01*
X168179177Y-104321537D01*
X168257430Y-104317172D01*
X168329421Y-104300411D01*
X168371152Y-104276841D01*
X168414403Y-104213690D01*
X168424641Y-104146782D01*
X168408887Y-104071860D01*
X168361626Y-104021485D01*
X168292644Y-103995188D01*
X168218569Y-103984858D01*
X168162324Y-103983017D01*
X167994163Y-103983017D01*
X167994163Y-104321537D01*
X167677258Y-104321537D01*
X167677258Y-103730225D01*
X168143273Y-103730225D01*
X168233558Y-103732274D01*
G37*
G36*
X169811357Y-103709122D02*
G01*
X169894648Y-103718120D01*
X169971885Y-103733868D01*
X170043068Y-103756365D01*
X170118465Y-103791142D01*
X170138493Y-103802766D01*
X170203541Y-103848334D01*
X170260840Y-103901371D01*
X170310391Y-103961875D01*
X170352192Y-104029848D01*
X170372600Y-104072043D01*
X170402435Y-104150893D01*
X170422176Y-104223056D01*
X170436533Y-104299442D01*
X170445506Y-104380054D01*
X170449095Y-104464890D01*
X170449170Y-104479440D01*
X170446478Y-104564981D01*
X170438402Y-104646296D01*
X170424943Y-104723387D01*
X170406099Y-104796254D01*
X170377311Y-104875925D01*
X170372600Y-104886837D01*
X170335226Y-104959148D01*
X170290103Y-105024131D01*
X170237232Y-105081786D01*
X170176612Y-105132113D01*
X170138493Y-105157581D01*
X170065346Y-105195268D01*
X169995923Y-105220203D01*
X169920291Y-105238338D01*
X169838452Y-105249673D01*
X169750404Y-105254206D01*
X169735126Y-105254301D01*
X169661066Y-105251939D01*
X169577672Y-105242872D01*
X169500255Y-105227004D01*
X169428814Y-105204335D01*
X169353020Y-105169293D01*
X169332858Y-105157581D01*
X169267507Y-105111389D01*
X169209940Y-105057764D01*
X169160157Y-104996705D01*
X169118157Y-104928214D01*
X169097652Y-104885738D01*
X169067817Y-104806460D01*
X169048076Y-104734015D01*
X169033719Y-104657422D01*
X169024746Y-104576681D01*
X169021157Y-104491793D01*
X169021099Y-104480539D01*
X169355206Y-104480539D01*
X169358375Y-104567746D01*
X169367880Y-104647739D01*
X169383723Y-104720520D01*
X169410215Y-104796314D01*
X169445332Y-104862291D01*
X169497378Y-104923199D01*
X169563026Y-104966705D01*
X169642276Y-104992808D01*
X169722776Y-105001374D01*
X169735126Y-105001509D01*
X169818722Y-104994848D01*
X169891273Y-104974862D01*
X169960665Y-104935707D01*
X170015631Y-104879150D01*
X170027118Y-104862291D01*
X170061522Y-104796314D01*
X170087475Y-104720520D01*
X170102996Y-104647739D01*
X170112308Y-104567746D01*
X170115412Y-104480539D01*
X170113256Y-104406769D01*
X170104979Y-104325093D01*
X170090493Y-104250887D01*
X170065747Y-104173755D01*
X170032550Y-104106791D01*
X170027118Y-104098055D01*
X169975896Y-104037468D01*
X169910523Y-103994191D01*
X169830999Y-103968225D01*
X169749807Y-103959705D01*
X169737324Y-103959569D01*
X169654480Y-103966196D01*
X169582259Y-103986077D01*
X169512730Y-104025026D01*
X169457077Y-104081285D01*
X169445332Y-104098055D01*
X169410215Y-104163566D01*
X169383723Y-104239246D01*
X169367880Y-104312207D01*
X169358375Y-104392638D01*
X169355206Y-104480539D01*
X169021099Y-104480539D01*
X169021082Y-104477242D01*
X169023774Y-104391741D01*
X169031850Y-104310541D01*
X169045309Y-104233643D01*
X169064153Y-104161047D01*
X169092941Y-104081789D01*
X169097652Y-104070944D01*
X169135204Y-103999132D01*
X169180539Y-103934682D01*
X169233658Y-103877596D01*
X169294562Y-103827873D01*
X169332858Y-103802766D01*
X169406434Y-103765364D01*
X169476140Y-103740617D01*
X169551977Y-103722620D01*
X169633946Y-103711371D01*
X169722045Y-103706872D01*
X169737324Y-103706778D01*
X169811357Y-103709122D01*
G37*
G36*
X171273490Y-105230854D02*
G01*
X170956584Y-105230854D01*
X170956584Y-103983017D01*
X170549187Y-103983017D01*
X170549187Y-103730225D01*
X171680887Y-103730225D01*
X171680887Y-103983017D01*
X171273490Y-103983017D01*
X171273490Y-105230854D01*
G37*
G36*
X172795000Y-104811366D02*
G01*
X172788111Y-104895934D01*
X172767441Y-104972683D01*
X172732993Y-105041612D01*
X172684765Y-105102723D01*
X172651019Y-105134133D01*
X172582402Y-105180956D01*
X172514379Y-105211937D01*
X172437855Y-105234468D01*
X172352829Y-105248551D01*
X172275482Y-105253831D01*
X172242889Y-105254301D01*
X172155640Y-105251287D01*
X172071946Y-105242245D01*
X171991807Y-105227176D01*
X171915222Y-105206078D01*
X171842193Y-105178953D01*
X171818640Y-105168572D01*
X171818640Y-104875114D01*
X171886217Y-104903901D01*
X171955225Y-104931185D01*
X172025664Y-104956966D01*
X172039924Y-104961942D01*
X172111451Y-104982808D01*
X172189800Y-104996834D01*
X172267802Y-105001509D01*
X172346422Y-104995069D01*
X172417745Y-104968907D01*
X172434864Y-104955714D01*
X172476161Y-104892807D01*
X172484323Y-104839943D01*
X172465968Y-104768993D01*
X172445489Y-104742124D01*
X172386642Y-104693752D01*
X172341441Y-104666653D01*
X172276199Y-104632553D01*
X172207898Y-104598693D01*
X172192331Y-104591181D01*
X172127018Y-104557499D01*
X172078758Y-104530731D01*
X172015588Y-104488606D01*
X171962254Y-104443537D01*
X171911605Y-104385926D01*
X171873270Y-104321767D01*
X171871030Y-104317141D01*
X171846737Y-104246135D01*
X171836360Y-104170155D01*
X171835492Y-104138355D01*
X171840284Y-104065012D01*
X171857985Y-103987487D01*
X171888730Y-103918623D01*
X171932517Y-103858418D01*
X171971780Y-103820717D01*
X172036282Y-103776321D01*
X172110215Y-103742829D01*
X172181094Y-103722801D01*
X172258902Y-103710784D01*
X172343640Y-103706778D01*
X172423106Y-103709938D01*
X172499802Y-103719419D01*
X172567122Y-103733523D01*
X172641248Y-103754550D01*
X172717539Y-103780860D01*
X172788772Y-103809360D01*
X172685824Y-104057022D01*
X172617514Y-104027545D01*
X172548624Y-104001115D01*
X172500810Y-103985215D01*
X172428482Y-103967684D01*
X172354470Y-103959970D01*
X172333015Y-103959569D01*
X172257699Y-103968907D01*
X172194529Y-104002068D01*
X172152970Y-104065208D01*
X172146169Y-104112710D01*
X172164030Y-104185158D01*
X172217610Y-104240571D01*
X172280928Y-104278730D01*
X172348570Y-104315095D01*
X172421010Y-104351371D01*
X172429735Y-104355609D01*
X172498464Y-104390614D01*
X172566215Y-104430111D01*
X172625740Y-104470648D01*
X172685418Y-104522675D01*
X172732883Y-104581716D01*
X172750670Y-104611332D01*
X172779372Y-104683228D01*
X172792879Y-104760972D01*
X172795000Y-104811366D01*
G37*
D10*
X107807047Y-47907438D02*
X107140380Y-46955057D01*
X106664190Y-47907438D02*
X106664190Y-45907438D01*
X106664190Y-45907438D02*
X107426095Y-45907438D01*
X107426095Y-45907438D02*
X107616571Y-46002676D01*
X107616571Y-46002676D02*
X107711809Y-46097914D01*
X107711809Y-46097914D02*
X107807047Y-46288390D01*
X107807047Y-46288390D02*
X107807047Y-46574104D01*
X107807047Y-46574104D02*
X107711809Y-46764580D01*
X107711809Y-46764580D02*
X107616571Y-46859819D01*
X107616571Y-46859819D02*
X107426095Y-46955057D01*
X107426095Y-46955057D02*
X106664190Y-46955057D01*
X104997523Y-84261200D02*
X105187999Y-84356438D01*
X105187999Y-84356438D02*
X105568951Y-84356438D01*
X105568951Y-84356438D02*
X105759428Y-84261200D01*
X105759428Y-84261200D02*
X105854666Y-84070723D01*
X105854666Y-84070723D02*
X105854666Y-83975485D01*
X105854666Y-83975485D02*
X105759428Y-83785009D01*
X105759428Y-83785009D02*
X105568951Y-83689771D01*
X105568951Y-83689771D02*
X105283237Y-83689771D01*
X105283237Y-83689771D02*
X105092761Y-83594533D01*
X105092761Y-83594533D02*
X104997523Y-83404057D01*
X104997523Y-83404057D02*
X104997523Y-83308819D01*
X104997523Y-83308819D02*
X105092761Y-83118342D01*
X105092761Y-83118342D02*
X105283237Y-83023104D01*
X105283237Y-83023104D02*
X105568951Y-83023104D01*
X105568951Y-83023104D02*
X105759428Y-83118342D01*
X106711809Y-83023104D02*
X106711809Y-85023104D01*
X106711809Y-83118342D02*
X106902285Y-83023104D01*
X106902285Y-83023104D02*
X107283238Y-83023104D01*
X107283238Y-83023104D02*
X107473714Y-83118342D01*
X107473714Y-83118342D02*
X107568952Y-83213580D01*
X107568952Y-83213580D02*
X107664190Y-83404057D01*
X107664190Y-83404057D02*
X107664190Y-83975485D01*
X107664190Y-83975485D02*
X107568952Y-84165961D01*
X107568952Y-84165961D02*
X107473714Y-84261200D01*
X107473714Y-84261200D02*
X107283238Y-84356438D01*
X107283238Y-84356438D02*
X106902285Y-84356438D01*
X106902285Y-84356438D02*
X106711809Y-84261200D01*
X109378476Y-84261200D02*
X109188000Y-84356438D01*
X109188000Y-84356438D02*
X108807047Y-84356438D01*
X108807047Y-84356438D02*
X108616571Y-84261200D01*
X108616571Y-84261200D02*
X108521333Y-84165961D01*
X108521333Y-84165961D02*
X108426095Y-83975485D01*
X108426095Y-83975485D02*
X108426095Y-83404057D01*
X108426095Y-83404057D02*
X108521333Y-83213580D01*
X108521333Y-83213580D02*
X108616571Y-83118342D01*
X108616571Y-83118342D02*
X108807047Y-83023104D01*
X108807047Y-83023104D02*
X109188000Y-83023104D01*
X109188000Y-83023104D02*
X109378476Y-83118342D01*
X144669142Y-84356438D02*
X144669142Y-82356438D01*
X144669142Y-83118342D02*
X144859618Y-83023104D01*
X144859618Y-83023104D02*
X145240571Y-83023104D01*
X145240571Y-83023104D02*
X145431047Y-83118342D01*
X145431047Y-83118342D02*
X145526285Y-83213580D01*
X145526285Y-83213580D02*
X145621523Y-83404057D01*
X145621523Y-83404057D02*
X145621523Y-83975485D01*
X145621523Y-83975485D02*
X145526285Y-84165961D01*
X145526285Y-84165961D02*
X145431047Y-84261200D01*
X145431047Y-84261200D02*
X145240571Y-84356438D01*
X145240571Y-84356438D02*
X144859618Y-84356438D01*
X144859618Y-84356438D02*
X144669142Y-84261200D01*
X146383428Y-84261200D02*
X146573904Y-84356438D01*
X146573904Y-84356438D02*
X146954856Y-84356438D01*
X146954856Y-84356438D02*
X147145333Y-84261200D01*
X147145333Y-84261200D02*
X147240571Y-84070723D01*
X147240571Y-84070723D02*
X147240571Y-83975485D01*
X147240571Y-83975485D02*
X147145333Y-83785009D01*
X147145333Y-83785009D02*
X146954856Y-83689771D01*
X146954856Y-83689771D02*
X146669142Y-83689771D01*
X146669142Y-83689771D02*
X146478666Y-83594533D01*
X146478666Y-83594533D02*
X146383428Y-83404057D01*
X146383428Y-83404057D02*
X146383428Y-83308819D01*
X146383428Y-83308819D02*
X146478666Y-83118342D01*
X146478666Y-83118342D02*
X146669142Y-83023104D01*
X146669142Y-83023104D02*
X146954856Y-83023104D01*
X146954856Y-83023104D02*
X147145333Y-83118342D01*
X148097714Y-83023104D02*
X148097714Y-85023104D01*
X148097714Y-83118342D02*
X148288190Y-83023104D01*
X148288190Y-83023104D02*
X148669143Y-83023104D01*
X148669143Y-83023104D02*
X148859619Y-83118342D01*
X148859619Y-83118342D02*
X148954857Y-83213580D01*
X148954857Y-83213580D02*
X149050095Y-83404057D01*
X149050095Y-83404057D02*
X149050095Y-83975485D01*
X149050095Y-83975485D02*
X148954857Y-84165961D01*
X148954857Y-84165961D02*
X148859619Y-84261200D01*
X148859619Y-84261200D02*
X148669143Y-84356438D01*
X148669143Y-84356438D02*
X148288190Y-84356438D01*
X148288190Y-84356438D02*
X148097714Y-84261200D01*
X153352619Y-84356438D02*
X153352619Y-82356438D01*
X153352619Y-84261200D02*
X153162143Y-84356438D01*
X153162143Y-84356438D02*
X152781190Y-84356438D01*
X152781190Y-84356438D02*
X152590714Y-84261200D01*
X152590714Y-84261200D02*
X152495476Y-84165961D01*
X152495476Y-84165961D02*
X152400238Y-83975485D01*
X152400238Y-83975485D02*
X152400238Y-83404057D01*
X152400238Y-83404057D02*
X152495476Y-83213580D01*
X152495476Y-83213580D02*
X152590714Y-83118342D01*
X152590714Y-83118342D02*
X152781190Y-83023104D01*
X152781190Y-83023104D02*
X153162143Y-83023104D01*
X153162143Y-83023104D02*
X153352619Y-83118342D01*
X155066905Y-84261200D02*
X154876429Y-84356438D01*
X154876429Y-84356438D02*
X154495476Y-84356438D01*
X154495476Y-84356438D02*
X154305000Y-84261200D01*
X154305000Y-84261200D02*
X154209762Y-84070723D01*
X154209762Y-84070723D02*
X154209762Y-83308819D01*
X154209762Y-83308819D02*
X154305000Y-83118342D01*
X154305000Y-83118342D02*
X154495476Y-83023104D01*
X154495476Y-83023104D02*
X154876429Y-83023104D01*
X154876429Y-83023104D02*
X155066905Y-83118342D01*
X155066905Y-83118342D02*
X155162143Y-83308819D01*
X155162143Y-83308819D02*
X155162143Y-83499295D01*
X155162143Y-83499295D02*
X154209762Y-83689771D01*
X156305000Y-84356438D02*
X156114524Y-84261200D01*
X156114524Y-84261200D02*
X156019286Y-84070723D01*
X156019286Y-84070723D02*
X156019286Y-82356438D01*
X82899333Y-70545438D02*
X84232666Y-70545438D01*
X84232666Y-70545438D02*
X82899333Y-72545438D01*
X82899333Y-72545438D02*
X84232666Y-72545438D01*
X137588762Y-84261200D02*
X137398286Y-84356438D01*
X137398286Y-84356438D02*
X137017333Y-84356438D01*
X137017333Y-84356438D02*
X136826857Y-84261200D01*
X136826857Y-84261200D02*
X136731619Y-84070723D01*
X136731619Y-84070723D02*
X136731619Y-83308819D01*
X136731619Y-83308819D02*
X136826857Y-83118342D01*
X136826857Y-83118342D02*
X137017333Y-83023104D01*
X137017333Y-83023104D02*
X137398286Y-83023104D01*
X137398286Y-83023104D02*
X137588762Y-83118342D01*
X137588762Y-83118342D02*
X137684000Y-83308819D01*
X137684000Y-83308819D02*
X137684000Y-83499295D01*
X137684000Y-83499295D02*
X136731619Y-83689771D01*
X138541143Y-83023104D02*
X138541143Y-84356438D01*
X138541143Y-83213580D02*
X138636381Y-83118342D01*
X138636381Y-83118342D02*
X138826857Y-83023104D01*
X138826857Y-83023104D02*
X139112572Y-83023104D01*
X139112572Y-83023104D02*
X139303048Y-83118342D01*
X139303048Y-83118342D02*
X139398286Y-83308819D01*
X139398286Y-83308819D02*
X139398286Y-84356438D01*
X140064953Y-83023104D02*
X140826857Y-83023104D01*
X140350667Y-82356438D02*
X140350667Y-84070723D01*
X140350667Y-84070723D02*
X140445905Y-84261200D01*
X140445905Y-84261200D02*
X140636381Y-84356438D01*
X140636381Y-84356438D02*
X140826857Y-84356438D01*
X98028285Y-84261200D02*
X97837809Y-84356438D01*
X97837809Y-84356438D02*
X97456856Y-84356438D01*
X97456856Y-84356438D02*
X97266380Y-84261200D01*
X97266380Y-84261200D02*
X97171142Y-84070723D01*
X97171142Y-84070723D02*
X97171142Y-83308819D01*
X97171142Y-83308819D02*
X97266380Y-83118342D01*
X97266380Y-83118342D02*
X97456856Y-83023104D01*
X97456856Y-83023104D02*
X97837809Y-83023104D01*
X97837809Y-83023104D02*
X98028285Y-83118342D01*
X98028285Y-83118342D02*
X98123523Y-83308819D01*
X98123523Y-83308819D02*
X98123523Y-83499295D01*
X98123523Y-83499295D02*
X97171142Y-83689771D01*
X98885428Y-84261200D02*
X99075904Y-84356438D01*
X99075904Y-84356438D02*
X99456856Y-84356438D01*
X99456856Y-84356438D02*
X99647333Y-84261200D01*
X99647333Y-84261200D02*
X99742571Y-84070723D01*
X99742571Y-84070723D02*
X99742571Y-83975485D01*
X99742571Y-83975485D02*
X99647333Y-83785009D01*
X99647333Y-83785009D02*
X99456856Y-83689771D01*
X99456856Y-83689771D02*
X99171142Y-83689771D01*
X99171142Y-83689771D02*
X98980666Y-83594533D01*
X98980666Y-83594533D02*
X98885428Y-83404057D01*
X98885428Y-83404057D02*
X98885428Y-83308819D01*
X98885428Y-83308819D02*
X98980666Y-83118342D01*
X98980666Y-83118342D02*
X99171142Y-83023104D01*
X99171142Y-83023104D02*
X99456856Y-83023104D01*
X99456856Y-83023104D02*
X99647333Y-83118342D01*
X101456857Y-84261200D02*
X101266381Y-84356438D01*
X101266381Y-84356438D02*
X100885428Y-84356438D01*
X100885428Y-84356438D02*
X100694952Y-84261200D01*
X100694952Y-84261200D02*
X100599714Y-84165961D01*
X100599714Y-84165961D02*
X100504476Y-83975485D01*
X100504476Y-83975485D02*
X100504476Y-83404057D01*
X100504476Y-83404057D02*
X100599714Y-83213580D01*
X100599714Y-83213580D02*
X100694952Y-83118342D01*
X100694952Y-83118342D02*
X100885428Y-83023104D01*
X100885428Y-83023104D02*
X101266381Y-83023104D01*
X101266381Y-83023104D02*
X101456857Y-83118342D01*
X98885428Y-46859819D02*
X99552095Y-46859819D01*
X99837809Y-47907438D02*
X98885428Y-47907438D01*
X98885428Y-47907438D02*
X98885428Y-45907438D01*
X98885428Y-45907438D02*
X99837809Y-45907438D01*
X113125524Y-83023104D02*
X113887428Y-83023104D01*
X113411238Y-82356438D02*
X113411238Y-84070723D01*
X113411238Y-84070723D02*
X113506476Y-84261200D01*
X113506476Y-84261200D02*
X113696952Y-84356438D01*
X113696952Y-84356438D02*
X113887428Y-84356438D01*
X115411238Y-84356438D02*
X115411238Y-83308819D01*
X115411238Y-83308819D02*
X115316000Y-83118342D01*
X115316000Y-83118342D02*
X115125524Y-83023104D01*
X115125524Y-83023104D02*
X114744571Y-83023104D01*
X114744571Y-83023104D02*
X114554095Y-83118342D01*
X115411238Y-84261200D02*
X115220762Y-84356438D01*
X115220762Y-84356438D02*
X114744571Y-84356438D01*
X114744571Y-84356438D02*
X114554095Y-84261200D01*
X114554095Y-84261200D02*
X114458857Y-84070723D01*
X114458857Y-84070723D02*
X114458857Y-83880247D01*
X114458857Y-83880247D02*
X114554095Y-83689771D01*
X114554095Y-83689771D02*
X114744571Y-83594533D01*
X114744571Y-83594533D02*
X115220762Y-83594533D01*
X115220762Y-83594533D02*
X115411238Y-83499295D01*
X116363619Y-84356438D02*
X116363619Y-82356438D01*
X116363619Y-83118342D02*
X116554095Y-83023104D01*
X116554095Y-83023104D02*
X116935048Y-83023104D01*
X116935048Y-83023104D02*
X117125524Y-83118342D01*
X117125524Y-83118342D02*
X117220762Y-83213580D01*
X117220762Y-83213580D02*
X117316000Y-83404057D01*
X117316000Y-83404057D02*
X117316000Y-83975485D01*
X117316000Y-83975485D02*
X117220762Y-84165961D01*
X117220762Y-84165961D02*
X117125524Y-84261200D01*
X117125524Y-84261200D02*
X116935048Y-84356438D01*
X116935048Y-84356438D02*
X116554095Y-84356438D01*
X116554095Y-84356438D02*
X116363619Y-84261200D01*
X162369523Y-45907438D02*
X162750476Y-45907438D01*
X162750476Y-45907438D02*
X162940952Y-46002676D01*
X162940952Y-46002676D02*
X163131428Y-46193152D01*
X163131428Y-46193152D02*
X163226666Y-46574104D01*
X163226666Y-46574104D02*
X163226666Y-47240771D01*
X163226666Y-47240771D02*
X163131428Y-47621723D01*
X163131428Y-47621723D02*
X162940952Y-47812200D01*
X162940952Y-47812200D02*
X162750476Y-47907438D01*
X162750476Y-47907438D02*
X162369523Y-47907438D01*
X162369523Y-47907438D02*
X162179047Y-47812200D01*
X162179047Y-47812200D02*
X161988571Y-47621723D01*
X161988571Y-47621723D02*
X161893333Y-47240771D01*
X161893333Y-47240771D02*
X161893333Y-46574104D01*
X161893333Y-46574104D02*
X161988571Y-46193152D01*
X161988571Y-46193152D02*
X162179047Y-46002676D01*
X162179047Y-46002676D02*
X162369523Y-45907438D01*
X90773333Y-70545438D02*
X92106666Y-72545438D01*
X92106666Y-70545438D02*
X90773333Y-72545438D01*
D12*
%TO.C,R1*%
X124297997Y-54811536D02*
X124297997Y-55286052D01*
X125342997Y-54811536D02*
X125342997Y-55286052D01*
%TO.C,R2*%
X124318500Y-50816742D02*
X124318500Y-51291258D01*
X125363500Y-50816742D02*
X125363500Y-51291258D01*
%TO.C,R3*%
X128382500Y-51291258D02*
X128382500Y-50816742D01*
X129427500Y-51291258D02*
X129427500Y-50816742D01*
%TO.C,R4*%
X126350500Y-51291258D02*
X126350500Y-50816742D01*
X127395500Y-51291258D02*
X127395500Y-50816742D01*
%TO.C,C3*%
X121862589Y-54900955D02*
X121862589Y-55423461D01*
X123332589Y-54900955D02*
X123332589Y-55423461D01*
%TO.C,C4*%
X126240000Y-54912000D02*
X126240000Y-55193162D01*
X127260000Y-54912000D02*
X127260000Y-55193162D01*
%TO.C,C5*%
X128597535Y-54908213D02*
X128597535Y-55189375D01*
X129617535Y-54908213D02*
X129617535Y-55189375D01*
%TO.C,SW11*%
X80280000Y-62318000D02*
X80280000Y-66818000D01*
X82780000Y-68068000D02*
X84280000Y-68068000D01*
X84280000Y-61068000D02*
X82780000Y-61068000D01*
X86780000Y-66818000D02*
X86780000Y-62318000D01*
%TO.C,SW21*%
X80280000Y-74660000D02*
X80280000Y-79160000D01*
X82780000Y-80410000D02*
X84280000Y-80410000D01*
X84280000Y-73410000D02*
X82780000Y-73410000D01*
X86780000Y-79160000D02*
X86780000Y-74660000D01*
%TO.C,SW2*%
X88154000Y-49872000D02*
X88154000Y-54372000D01*
X90654000Y-55622000D02*
X92154000Y-55622000D01*
X92154000Y-48622000D02*
X90654000Y-48622000D01*
X94654000Y-54372000D02*
X94654000Y-49872000D01*
%TO.C,SW12*%
X88154000Y-62318000D02*
X88154000Y-66818000D01*
X90654000Y-68068000D02*
X92154000Y-68068000D01*
X92154000Y-61068000D02*
X90654000Y-61068000D01*
X94654000Y-66818000D02*
X94654000Y-62318000D01*
%TO.C,SW22*%
X88154000Y-74660000D02*
X88154000Y-79160000D01*
X90654000Y-80410000D02*
X92154000Y-80410000D01*
X92154000Y-73410000D02*
X90654000Y-73410000D01*
X94654000Y-79160000D02*
X94654000Y-74660000D01*
%TO.C,SW3*%
X96028000Y-49872000D02*
X96028000Y-54372000D01*
X98528000Y-55622000D02*
X100028000Y-55622000D01*
X100028000Y-48622000D02*
X98528000Y-48622000D01*
X102528000Y-54372000D02*
X102528000Y-49872000D01*
%TO.C,SW13*%
X96028000Y-62318000D02*
X96028000Y-66818000D01*
X98528000Y-68068000D02*
X100028000Y-68068000D01*
X100028000Y-61068000D02*
X98528000Y-61068000D01*
X102528000Y-66818000D02*
X102528000Y-62318000D01*
%TO.C,SW23*%
X96028000Y-74660000D02*
X96028000Y-79160000D01*
X98528000Y-80410000D02*
X100028000Y-80410000D01*
X100028000Y-73410000D02*
X98528000Y-73410000D01*
X102528000Y-79160000D02*
X102528000Y-74660000D01*
%TO.C,SW31*%
X96028000Y-86956000D02*
X96028000Y-91456000D01*
X98528000Y-92706000D02*
X100028000Y-92706000D01*
X100028000Y-85706000D02*
X98528000Y-85706000D01*
X102528000Y-91456000D02*
X102528000Y-86956000D01*
%TO.C,SW4*%
X103902000Y-49872000D02*
X103902000Y-54372000D01*
X106402000Y-55622000D02*
X107902000Y-55622000D01*
X107902000Y-48622000D02*
X106402000Y-48622000D01*
X110402000Y-54372000D02*
X110402000Y-49872000D01*
%TO.C,SW14*%
X103902000Y-62318000D02*
X103902000Y-66818000D01*
X106402000Y-68068000D02*
X107902000Y-68068000D01*
X107902000Y-61068000D02*
X106402000Y-61068000D01*
X110402000Y-66818000D02*
X110402000Y-62318000D01*
%TO.C,SW24*%
X103902000Y-74660000D02*
X103902000Y-79160000D01*
X106402000Y-80410000D02*
X107902000Y-80410000D01*
X107902000Y-73410000D02*
X106402000Y-73410000D01*
X110402000Y-79160000D02*
X110402000Y-74660000D01*
%TO.C,SW32*%
X103902000Y-86956000D02*
X103902000Y-91456000D01*
X106402000Y-92706000D02*
X107902000Y-92706000D01*
X107902000Y-85706000D02*
X106402000Y-85706000D01*
X110402000Y-91456000D02*
X110402000Y-86956000D01*
%TO.C,SW1*%
X80280000Y-49872000D02*
X80280000Y-54372000D01*
X82780000Y-55622000D02*
X84280000Y-55622000D01*
X84280000Y-48622000D02*
X82780000Y-48622000D01*
X86780000Y-54372000D02*
X86780000Y-49872000D01*
%TO.C,SW7*%
X143526000Y-49872000D02*
X143526000Y-54372000D01*
X146026000Y-55622000D02*
X147526000Y-55622000D01*
X147526000Y-48622000D02*
X146026000Y-48622000D01*
X150026000Y-54372000D02*
X150026000Y-49872000D01*
%TO.C,SW17*%
X143526000Y-62318000D02*
X143526000Y-66818000D01*
X146026000Y-68068000D02*
X147526000Y-68068000D01*
X147526000Y-61068000D02*
X146026000Y-61068000D01*
X150026000Y-66818000D02*
X150026000Y-62318000D01*
%TO.C,SW27*%
X143526000Y-74660000D02*
X143526000Y-79160000D01*
X146026000Y-80410000D02*
X147526000Y-80410000D01*
X147526000Y-73410000D02*
X146026000Y-73410000D01*
X150026000Y-79160000D02*
X150026000Y-74660000D01*
%TO.C,SW35*%
X143526000Y-86956000D02*
X143526000Y-91456000D01*
X146026000Y-92706000D02*
X147526000Y-92706000D01*
X147526000Y-85706000D02*
X146026000Y-85706000D01*
X150026000Y-91456000D02*
X150026000Y-86956000D01*
%TO.C,SW8*%
X151400000Y-49872000D02*
X151400000Y-54372000D01*
X153900000Y-55622000D02*
X155400000Y-55622000D01*
X155400000Y-48622000D02*
X153900000Y-48622000D01*
X157900000Y-54372000D02*
X157900000Y-49872000D01*
%TO.C,SW18*%
X151472000Y-62318000D02*
X151472000Y-66818000D01*
X153972000Y-68068000D02*
X155472000Y-68068000D01*
X155472000Y-61068000D02*
X153972000Y-61068000D01*
X157972000Y-66818000D02*
X157972000Y-62318000D01*
%TO.C,SW28*%
X151400000Y-74660000D02*
X151400000Y-79160000D01*
X153900000Y-80410000D02*
X155400000Y-80410000D01*
X155400000Y-73410000D02*
X153900000Y-73410000D01*
X157900000Y-79160000D02*
X157900000Y-74660000D01*
%TO.C,SW36*%
X151400000Y-86956000D02*
X151400000Y-91456000D01*
X153900000Y-92706000D02*
X155400000Y-92706000D01*
X155400000Y-85706000D02*
X153900000Y-85706000D01*
X157900000Y-91456000D02*
X157900000Y-86956000D01*
%TO.C,SW9*%
X159274000Y-49872000D02*
X159274000Y-54372000D01*
X161774000Y-55622000D02*
X163274000Y-55622000D01*
X163274000Y-48622000D02*
X161774000Y-48622000D01*
X165774000Y-54372000D02*
X165774000Y-49872000D01*
%TO.C,SW19*%
X159346000Y-62318000D02*
X159346000Y-66818000D01*
X161846000Y-68068000D02*
X163346000Y-68068000D01*
X163346000Y-61068000D02*
X161846000Y-61068000D01*
X165846000Y-66818000D02*
X165846000Y-62318000D01*
%TO.C,SW29*%
X159274000Y-74660000D02*
X159274000Y-79160000D01*
X161774000Y-80410000D02*
X163274000Y-80410000D01*
X163274000Y-73410000D02*
X161774000Y-73410000D01*
X165774000Y-79160000D02*
X165774000Y-74660000D01*
%TO.C,SW10*%
X167148000Y-49872000D02*
X167148000Y-54372000D01*
X169648000Y-55622000D02*
X171148000Y-55622000D01*
X171148000Y-48622000D02*
X169648000Y-48622000D01*
X173648000Y-54372000D02*
X173648000Y-49872000D01*
%TO.C,SW5*%
X111776000Y-49872000D02*
X111776000Y-54372000D01*
X114276000Y-55622000D02*
X115776000Y-55622000D01*
X115776000Y-48622000D02*
X114276000Y-48622000D01*
X118276000Y-54372000D02*
X118276000Y-49872000D01*
%TO.C,SW33*%
X111776000Y-86956000D02*
X111776000Y-91456000D01*
X114276000Y-92706000D02*
X115776000Y-92706000D01*
X115776000Y-85706000D02*
X114276000Y-85706000D01*
X118276000Y-91456000D02*
X118276000Y-86956000D01*
%TO.C,SW6*%
X135652000Y-49872000D02*
X135652000Y-54372000D01*
X138152000Y-55622000D02*
X139652000Y-55622000D01*
X139652000Y-48622000D02*
X138152000Y-48622000D01*
X142152000Y-54372000D02*
X142152000Y-49872000D01*
%TO.C,SW15*%
X111776000Y-62318000D02*
X111776000Y-66818000D01*
X114276000Y-68068000D02*
X115776000Y-68068000D01*
X115776000Y-61068000D02*
X114276000Y-61068000D01*
X118276000Y-66818000D02*
X118276000Y-62318000D01*
%TO.C,SW16*%
X135652000Y-62318000D02*
X135652000Y-66818000D01*
X138152000Y-68068000D02*
X139652000Y-68068000D01*
X139652000Y-61068000D02*
X138152000Y-61068000D01*
X142152000Y-66818000D02*
X142152000Y-62318000D01*
%TO.C,SW20*%
X167148000Y-62318000D02*
X167148000Y-66818000D01*
X169648000Y-68068000D02*
X171148000Y-68068000D01*
X171148000Y-61068000D02*
X169648000Y-61068000D01*
X173648000Y-66818000D02*
X173648000Y-62318000D01*
%TO.C,SW26*%
X135652000Y-74660000D02*
X135652000Y-79160000D01*
X138152000Y-80410000D02*
X139652000Y-80410000D01*
X139652000Y-73410000D02*
X138152000Y-73410000D01*
X142152000Y-79160000D02*
X142152000Y-74660000D01*
%TO.C,SW30*%
X167148000Y-74660000D02*
X167148000Y-79160000D01*
X169648000Y-80410000D02*
X171148000Y-80410000D01*
X171148000Y-73410000D02*
X169648000Y-73410000D01*
X173648000Y-79160000D02*
X173648000Y-74660000D01*
%TO.C,SW34*%
X135652000Y-86956000D02*
X135652000Y-91456000D01*
X138152000Y-92706000D02*
X139652000Y-92706000D01*
X139652000Y-85706000D02*
X138152000Y-85706000D01*
X142152000Y-91456000D02*
X142152000Y-86956000D01*
%TO.C,U1*%
X124350000Y-60402000D02*
X124350000Y-96082000D01*
X124350000Y-96082000D02*
X129650000Y-96082000D01*
X126000000Y-60402000D02*
X124350000Y-60402000D01*
X129650000Y-60402000D02*
X128000000Y-60402000D01*
X129650000Y-96082000D02*
X129650000Y-60402000D01*
X128000000Y-60402000D02*
G75*
G02*
X126000000Y-60402000I-1000000J0D01*
G01*
%TO.C,C1*%
X123690000Y-101034419D02*
X123690000Y-101315581D01*
X124710000Y-101034419D02*
X124710000Y-101315581D01*
%TO.C,C2*%
X129490000Y-101034419D02*
X129490000Y-101315581D01*
X130510000Y-101034419D02*
X130510000Y-101315581D01*
%TO.C,SW25*%
X111776000Y-74660000D02*
X111776000Y-79160000D01*
X114276000Y-80410000D02*
X115776000Y-80410000D01*
X115776000Y-73410000D02*
X114276000Y-73410000D01*
X118276000Y-79160000D02*
X118276000Y-74660000D01*
%TO.C,D37*%
X126058000Y-45863000D02*
X122048000Y-45863000D01*
X126058000Y-47863000D02*
X122048000Y-47863000D01*
X126058000Y-47863000D02*
X126058000Y-45863000D01*
%TO.C,D38*%
X127815000Y-45863000D02*
X127815000Y-47863000D01*
X127815000Y-45863000D02*
X131825000Y-45863000D01*
X127815000Y-47863000D02*
X131825000Y-47863000D01*
%TO.C,R5*%
X130414500Y-51291258D02*
X130414500Y-50816742D01*
X131459500Y-51291258D02*
X131459500Y-50816742D01*
%TO.C,Y2*%
X125400000Y-98950000D02*
X125400000Y-102950000D01*
X128700000Y-98950000D02*
X125400000Y-98950000D01*
%TO.C,J4*%
X122330000Y-39089000D02*
X122330000Y-40789000D01*
X131670000Y-39089000D02*
X131670000Y-40789000D01*
%TO.C,J3*%
X144038127Y-42164001D02*
X144038127Y-42799000D01*
X144038127Y-42799000D02*
X143403127Y-42799000D01*
%TO.C,R6*%
X122286500Y-51291258D02*
X122286500Y-50816742D01*
X123331500Y-51291258D02*
X123331500Y-50816742D01*
%TD*%
M02*
