%TF.GenerationSoftware,KiCad,Pcbnew,8.0.5*%
%TF.CreationDate,2024-10-09T06:28:00+02:00*%
%TF.ProjectId,pocketboard,706f636b-6574-4626-9f61-72642e6b6963,rev?*%
%TF.SameCoordinates,Original*%
%TF.FileFunction,Drillmap*%
%TF.FilePolarity,Positive*%
%FSLAX45Y45*%
G04 Gerber Fmt 4.5, Leading zero omitted, Abs format (unit mm)*
G04 Created by KiCad (PCBNEW 8.0.5) date 2024-10-09 06:28:00*
%MOMM*%
%LPD*%
G01*
G04 APERTURE LIST*
%ADD10C,0.050000*%
%ADD11C,0.200000*%
%ADD12C,0.100000*%
G04 APERTURE END LIST*
D10*
X7763232Y-3531677D02*
X17612178Y-3530190D01*
X17933000Y-3851012D02*
X17931547Y-9004031D01*
X17803181Y-9274916D02*
X16410113Y-10668248D01*
X16139228Y-10796614D02*
X9275000Y-10795974D01*
X8992686Y-10695198D02*
X7571184Y-9270885D01*
X7442817Y-9000000D02*
X7442409Y-3852499D01*
X16410113Y-10668248D02*
G75*
G02*
X16139228Y-10796615I-270883J221628D01*
G01*
X9275000Y-10795974D02*
G75*
G02*
X8992688Y-10695196I-34830J348244D01*
G01*
X7442409Y-3852499D02*
G75*
G02*
X7763232Y-3531679I320821J-1D01*
G01*
X7571184Y-9270885D02*
G75*
G02*
X7442822Y-9000000I221646J270885D01*
G01*
X17612178Y-3530190D02*
G75*
G02*
X17933000Y-3851012I2J-320820D01*
G01*
X17931546Y-9004031D02*
G75*
G02*
X17803181Y-9274916I-350006J1D01*
G01*
D11*
D12*
X12378500Y-4126900D02*
X12443500Y-4191900D01*
X12443500Y-4126900D02*
X12378500Y-4191900D01*
X12956500Y-4126900D02*
X13021500Y-4191900D01*
X13021500Y-4126900D02*
X12956500Y-4191900D01*
X14224743Y-3835400D02*
G75*
G02*
X14125683Y-3835400I-49530J0D01*
G01*
X14125683Y-3835400D02*
G75*
G02*
X14224743Y-3835400I49530J0D01*
G01*
X14326343Y-4343400D02*
G75*
G02*
X14227283Y-4343400I-49530J0D01*
G01*
X14227283Y-4343400D02*
G75*
G02*
X14326343Y-4343400I49530J0D01*
G01*
X14427943Y-3835400D02*
G75*
G02*
X14328883Y-3835400I-49530J0D01*
G01*
X14328883Y-3835400D02*
G75*
G02*
X14427943Y-3835400I49530J0D01*
G01*
D11*
X7700686Y-11111695D02*
X7700686Y-10911695D01*
X7700686Y-10911695D02*
X7748305Y-10911695D01*
X7748305Y-10911695D02*
X7776877Y-10921219D01*
X7776877Y-10921219D02*
X7795924Y-10940266D01*
X7795924Y-10940266D02*
X7805448Y-10959314D01*
X7805448Y-10959314D02*
X7814972Y-10997409D01*
X7814972Y-10997409D02*
X7814972Y-11025980D01*
X7814972Y-11025980D02*
X7805448Y-11064076D01*
X7805448Y-11064076D02*
X7795924Y-11083123D01*
X7795924Y-11083123D02*
X7776877Y-11102171D01*
X7776877Y-11102171D02*
X7748305Y-11111695D01*
X7748305Y-11111695D02*
X7700686Y-11111695D01*
X7900686Y-11111695D02*
X7900686Y-10978361D01*
X7900686Y-11016457D02*
X7910210Y-10997409D01*
X7910210Y-10997409D02*
X7919734Y-10987885D01*
X7919734Y-10987885D02*
X7938781Y-10978361D01*
X7938781Y-10978361D02*
X7957829Y-10978361D01*
X8024496Y-11111695D02*
X8024496Y-10978361D01*
X8024496Y-10911695D02*
X8014972Y-10921219D01*
X8014972Y-10921219D02*
X8024496Y-10930742D01*
X8024496Y-10930742D02*
X8034020Y-10921219D01*
X8034020Y-10921219D02*
X8024496Y-10911695D01*
X8024496Y-10911695D02*
X8024496Y-10930742D01*
X8148305Y-11111695D02*
X8129258Y-11102171D01*
X8129258Y-11102171D02*
X8119734Y-11083123D01*
X8119734Y-11083123D02*
X8119734Y-10911695D01*
X8253067Y-11111695D02*
X8234020Y-11102171D01*
X8234020Y-11102171D02*
X8224496Y-11083123D01*
X8224496Y-11083123D02*
X8224496Y-10911695D01*
X8481639Y-11111695D02*
X8481639Y-10911695D01*
X8481639Y-10911695D02*
X8548305Y-11054552D01*
X8548305Y-11054552D02*
X8614972Y-10911695D01*
X8614972Y-10911695D02*
X8614972Y-11111695D01*
X8795924Y-11111695D02*
X8795924Y-11006933D01*
X8795924Y-11006933D02*
X8786401Y-10987885D01*
X8786401Y-10987885D02*
X8767353Y-10978361D01*
X8767353Y-10978361D02*
X8729258Y-10978361D01*
X8729258Y-10978361D02*
X8710210Y-10987885D01*
X8795924Y-11102171D02*
X8776877Y-11111695D01*
X8776877Y-11111695D02*
X8729258Y-11111695D01*
X8729258Y-11111695D02*
X8710210Y-11102171D01*
X8710210Y-11102171D02*
X8700686Y-11083123D01*
X8700686Y-11083123D02*
X8700686Y-11064076D01*
X8700686Y-11064076D02*
X8710210Y-11045028D01*
X8710210Y-11045028D02*
X8729258Y-11035504D01*
X8729258Y-11035504D02*
X8776877Y-11035504D01*
X8776877Y-11035504D02*
X8795924Y-11025980D01*
X8891163Y-10978361D02*
X8891163Y-11178361D01*
X8891163Y-10987885D02*
X8910210Y-10978361D01*
X8910210Y-10978361D02*
X8948305Y-10978361D01*
X8948305Y-10978361D02*
X8967353Y-10987885D01*
X8967353Y-10987885D02*
X8976877Y-10997409D01*
X8976877Y-10997409D02*
X8986401Y-11016457D01*
X8986401Y-11016457D02*
X8986401Y-11073599D01*
X8986401Y-11073599D02*
X8976877Y-11092647D01*
X8976877Y-11092647D02*
X8967353Y-11102171D01*
X8967353Y-11102171D02*
X8948305Y-11111695D01*
X8948305Y-11111695D02*
X8910210Y-11111695D01*
X8910210Y-11111695D02*
X8891163Y-11102171D01*
X9072115Y-11092647D02*
X9081639Y-11102171D01*
X9081639Y-11102171D02*
X9072115Y-11111695D01*
X9072115Y-11111695D02*
X9062591Y-11102171D01*
X9062591Y-11102171D02*
X9072115Y-11092647D01*
X9072115Y-11092647D02*
X9072115Y-11111695D01*
X9072115Y-10987885D02*
X9081639Y-10997409D01*
X9081639Y-10997409D02*
X9072115Y-11006933D01*
X9072115Y-11006933D02*
X9062591Y-10997409D01*
X9062591Y-10997409D02*
X9072115Y-10987885D01*
X9072115Y-10987885D02*
X9072115Y-11006933D01*
D12*
X7374909Y-11407711D02*
X7439909Y-11472711D01*
X7439909Y-11407711D02*
X7374909Y-11472711D01*
D11*
X7738781Y-11331695D02*
X7757829Y-11331695D01*
X7757829Y-11331695D02*
X7776877Y-11341218D01*
X7776877Y-11341218D02*
X7786401Y-11350742D01*
X7786401Y-11350742D02*
X7795924Y-11369790D01*
X7795924Y-11369790D02*
X7805448Y-11407885D01*
X7805448Y-11407885D02*
X7805448Y-11455504D01*
X7805448Y-11455504D02*
X7795924Y-11493599D01*
X7795924Y-11493599D02*
X7786401Y-11512647D01*
X7786401Y-11512647D02*
X7776877Y-11522171D01*
X7776877Y-11522171D02*
X7757829Y-11531695D01*
X7757829Y-11531695D02*
X7738781Y-11531695D01*
X7738781Y-11531695D02*
X7719734Y-11522171D01*
X7719734Y-11522171D02*
X7710210Y-11512647D01*
X7710210Y-11512647D02*
X7700686Y-11493599D01*
X7700686Y-11493599D02*
X7691162Y-11455504D01*
X7691162Y-11455504D02*
X7691162Y-11407885D01*
X7691162Y-11407885D02*
X7700686Y-11369790D01*
X7700686Y-11369790D02*
X7710210Y-11350742D01*
X7710210Y-11350742D02*
X7719734Y-11341218D01*
X7719734Y-11341218D02*
X7738781Y-11331695D01*
X7891162Y-11512647D02*
X7900686Y-11522171D01*
X7900686Y-11522171D02*
X7891162Y-11531695D01*
X7891162Y-11531695D02*
X7881639Y-11522171D01*
X7881639Y-11522171D02*
X7891162Y-11512647D01*
X7891162Y-11512647D02*
X7891162Y-11531695D01*
X8072115Y-11331695D02*
X8034020Y-11331695D01*
X8034020Y-11331695D02*
X8014972Y-11341218D01*
X8014972Y-11341218D02*
X8005448Y-11350742D01*
X8005448Y-11350742D02*
X7986401Y-11379314D01*
X7986401Y-11379314D02*
X7976877Y-11417409D01*
X7976877Y-11417409D02*
X7976877Y-11493599D01*
X7976877Y-11493599D02*
X7986401Y-11512647D01*
X7986401Y-11512647D02*
X7995924Y-11522171D01*
X7995924Y-11522171D02*
X8014972Y-11531695D01*
X8014972Y-11531695D02*
X8053067Y-11531695D01*
X8053067Y-11531695D02*
X8072115Y-11522171D01*
X8072115Y-11522171D02*
X8081639Y-11512647D01*
X8081639Y-11512647D02*
X8091162Y-11493599D01*
X8091162Y-11493599D02*
X8091162Y-11445980D01*
X8091162Y-11445980D02*
X8081639Y-11426933D01*
X8081639Y-11426933D02*
X8072115Y-11417409D01*
X8072115Y-11417409D02*
X8053067Y-11407885D01*
X8053067Y-11407885D02*
X8014972Y-11407885D01*
X8014972Y-11407885D02*
X7995924Y-11417409D01*
X7995924Y-11417409D02*
X7986401Y-11426933D01*
X7986401Y-11426933D02*
X7976877Y-11445980D01*
X8272115Y-11331695D02*
X8176877Y-11331695D01*
X8176877Y-11331695D02*
X8167353Y-11426933D01*
X8167353Y-11426933D02*
X8176877Y-11417409D01*
X8176877Y-11417409D02*
X8195924Y-11407885D01*
X8195924Y-11407885D02*
X8243543Y-11407885D01*
X8243543Y-11407885D02*
X8262591Y-11417409D01*
X8262591Y-11417409D02*
X8272115Y-11426933D01*
X8272115Y-11426933D02*
X8281639Y-11445980D01*
X8281639Y-11445980D02*
X8281639Y-11493599D01*
X8281639Y-11493599D02*
X8272115Y-11512647D01*
X8272115Y-11512647D02*
X8262591Y-11522171D01*
X8262591Y-11522171D02*
X8243543Y-11531695D01*
X8243543Y-11531695D02*
X8195924Y-11531695D01*
X8195924Y-11531695D02*
X8176877Y-11522171D01*
X8176877Y-11522171D02*
X8167353Y-11512647D01*
X8405448Y-11331695D02*
X8424496Y-11331695D01*
X8424496Y-11331695D02*
X8443544Y-11341218D01*
X8443544Y-11341218D02*
X8453067Y-11350742D01*
X8453067Y-11350742D02*
X8462591Y-11369790D01*
X8462591Y-11369790D02*
X8472115Y-11407885D01*
X8472115Y-11407885D02*
X8472115Y-11455504D01*
X8472115Y-11455504D02*
X8462591Y-11493599D01*
X8462591Y-11493599D02*
X8453067Y-11512647D01*
X8453067Y-11512647D02*
X8443544Y-11522171D01*
X8443544Y-11522171D02*
X8424496Y-11531695D01*
X8424496Y-11531695D02*
X8405448Y-11531695D01*
X8405448Y-11531695D02*
X8386401Y-11522171D01*
X8386401Y-11522171D02*
X8376877Y-11512647D01*
X8376877Y-11512647D02*
X8367353Y-11493599D01*
X8367353Y-11493599D02*
X8357829Y-11455504D01*
X8357829Y-11455504D02*
X8357829Y-11407885D01*
X8357829Y-11407885D02*
X8367353Y-11369790D01*
X8367353Y-11369790D02*
X8376877Y-11350742D01*
X8376877Y-11350742D02*
X8386401Y-11341218D01*
X8386401Y-11341218D02*
X8405448Y-11331695D01*
X8557829Y-11531695D02*
X8557829Y-11398361D01*
X8557829Y-11417409D02*
X8567353Y-11407885D01*
X8567353Y-11407885D02*
X8586401Y-11398361D01*
X8586401Y-11398361D02*
X8614972Y-11398361D01*
X8614972Y-11398361D02*
X8634020Y-11407885D01*
X8634020Y-11407885D02*
X8643544Y-11426933D01*
X8643544Y-11426933D02*
X8643544Y-11531695D01*
X8643544Y-11426933D02*
X8653067Y-11407885D01*
X8653067Y-11407885D02*
X8672115Y-11398361D01*
X8672115Y-11398361D02*
X8700686Y-11398361D01*
X8700686Y-11398361D02*
X8719734Y-11407885D01*
X8719734Y-11407885D02*
X8729258Y-11426933D01*
X8729258Y-11426933D02*
X8729258Y-11531695D01*
X8824496Y-11531695D02*
X8824496Y-11398361D01*
X8824496Y-11417409D02*
X8834020Y-11407885D01*
X8834020Y-11407885D02*
X8853067Y-11398361D01*
X8853067Y-11398361D02*
X8881639Y-11398361D01*
X8881639Y-11398361D02*
X8900686Y-11407885D01*
X8900686Y-11407885D02*
X8910210Y-11426933D01*
X8910210Y-11426933D02*
X8910210Y-11531695D01*
X8910210Y-11426933D02*
X8919734Y-11407885D01*
X8919734Y-11407885D02*
X8938782Y-11398361D01*
X8938782Y-11398361D02*
X8967353Y-11398361D01*
X8967353Y-11398361D02*
X8986401Y-11407885D01*
X8986401Y-11407885D02*
X8995925Y-11426933D01*
X8995925Y-11426933D02*
X8995925Y-11531695D01*
X9386401Y-11322171D02*
X9214972Y-11579314D01*
X9643544Y-11331695D02*
X9662591Y-11331695D01*
X9662591Y-11331695D02*
X9681639Y-11341218D01*
X9681639Y-11341218D02*
X9691163Y-11350742D01*
X9691163Y-11350742D02*
X9700687Y-11369790D01*
X9700687Y-11369790D02*
X9710210Y-11407885D01*
X9710210Y-11407885D02*
X9710210Y-11455504D01*
X9710210Y-11455504D02*
X9700687Y-11493599D01*
X9700687Y-11493599D02*
X9691163Y-11512647D01*
X9691163Y-11512647D02*
X9681639Y-11522171D01*
X9681639Y-11522171D02*
X9662591Y-11531695D01*
X9662591Y-11531695D02*
X9643544Y-11531695D01*
X9643544Y-11531695D02*
X9624496Y-11522171D01*
X9624496Y-11522171D02*
X9614972Y-11512647D01*
X9614972Y-11512647D02*
X9605448Y-11493599D01*
X9605448Y-11493599D02*
X9595925Y-11455504D01*
X9595925Y-11455504D02*
X9595925Y-11407885D01*
X9595925Y-11407885D02*
X9605448Y-11369790D01*
X9605448Y-11369790D02*
X9614972Y-11350742D01*
X9614972Y-11350742D02*
X9624496Y-11341218D01*
X9624496Y-11341218D02*
X9643544Y-11331695D01*
X9795925Y-11512647D02*
X9805448Y-11522171D01*
X9805448Y-11522171D02*
X9795925Y-11531695D01*
X9795925Y-11531695D02*
X9786401Y-11522171D01*
X9786401Y-11522171D02*
X9795925Y-11512647D01*
X9795925Y-11512647D02*
X9795925Y-11531695D01*
X9929258Y-11331695D02*
X9948306Y-11331695D01*
X9948306Y-11331695D02*
X9967353Y-11341218D01*
X9967353Y-11341218D02*
X9976877Y-11350742D01*
X9976877Y-11350742D02*
X9986401Y-11369790D01*
X9986401Y-11369790D02*
X9995925Y-11407885D01*
X9995925Y-11407885D02*
X9995925Y-11455504D01*
X9995925Y-11455504D02*
X9986401Y-11493599D01*
X9986401Y-11493599D02*
X9976877Y-11512647D01*
X9976877Y-11512647D02*
X9967353Y-11522171D01*
X9967353Y-11522171D02*
X9948306Y-11531695D01*
X9948306Y-11531695D02*
X9929258Y-11531695D01*
X9929258Y-11531695D02*
X9910210Y-11522171D01*
X9910210Y-11522171D02*
X9900687Y-11512647D01*
X9900687Y-11512647D02*
X9891163Y-11493599D01*
X9891163Y-11493599D02*
X9881639Y-11455504D01*
X9881639Y-11455504D02*
X9881639Y-11407885D01*
X9881639Y-11407885D02*
X9891163Y-11369790D01*
X9891163Y-11369790D02*
X9900687Y-11350742D01*
X9900687Y-11350742D02*
X9910210Y-11341218D01*
X9910210Y-11341218D02*
X9929258Y-11331695D01*
X10072115Y-11350742D02*
X10081639Y-11341218D01*
X10081639Y-11341218D02*
X10100687Y-11331695D01*
X10100687Y-11331695D02*
X10148306Y-11331695D01*
X10148306Y-11331695D02*
X10167353Y-11341218D01*
X10167353Y-11341218D02*
X10176877Y-11350742D01*
X10176877Y-11350742D02*
X10186401Y-11369790D01*
X10186401Y-11369790D02*
X10186401Y-11388837D01*
X10186401Y-11388837D02*
X10176877Y-11417409D01*
X10176877Y-11417409D02*
X10062591Y-11531695D01*
X10062591Y-11531695D02*
X10186401Y-11531695D01*
X10367353Y-11331695D02*
X10272115Y-11331695D01*
X10272115Y-11331695D02*
X10262591Y-11426933D01*
X10262591Y-11426933D02*
X10272115Y-11417409D01*
X10272115Y-11417409D02*
X10291163Y-11407885D01*
X10291163Y-11407885D02*
X10338782Y-11407885D01*
X10338782Y-11407885D02*
X10357829Y-11417409D01*
X10357829Y-11417409D02*
X10367353Y-11426933D01*
X10367353Y-11426933D02*
X10376877Y-11445980D01*
X10376877Y-11445980D02*
X10376877Y-11493599D01*
X10376877Y-11493599D02*
X10367353Y-11512647D01*
X10367353Y-11512647D02*
X10357829Y-11522171D01*
X10357829Y-11522171D02*
X10338782Y-11531695D01*
X10338782Y-11531695D02*
X10291163Y-11531695D01*
X10291163Y-11531695D02*
X10272115Y-11522171D01*
X10272115Y-11522171D02*
X10262591Y-11512647D01*
X10548306Y-11331695D02*
X10510210Y-11331695D01*
X10510210Y-11331695D02*
X10491163Y-11341218D01*
X10491163Y-11341218D02*
X10481639Y-11350742D01*
X10481639Y-11350742D02*
X10462591Y-11379314D01*
X10462591Y-11379314D02*
X10453068Y-11417409D01*
X10453068Y-11417409D02*
X10453068Y-11493599D01*
X10453068Y-11493599D02*
X10462591Y-11512647D01*
X10462591Y-11512647D02*
X10472115Y-11522171D01*
X10472115Y-11522171D02*
X10491163Y-11531695D01*
X10491163Y-11531695D02*
X10529258Y-11531695D01*
X10529258Y-11531695D02*
X10548306Y-11522171D01*
X10548306Y-11522171D02*
X10557829Y-11512647D01*
X10557829Y-11512647D02*
X10567353Y-11493599D01*
X10567353Y-11493599D02*
X10567353Y-11445980D01*
X10567353Y-11445980D02*
X10557829Y-11426933D01*
X10557829Y-11426933D02*
X10548306Y-11417409D01*
X10548306Y-11417409D02*
X10529258Y-11407885D01*
X10529258Y-11407885D02*
X10491163Y-11407885D01*
X10491163Y-11407885D02*
X10472115Y-11417409D01*
X10472115Y-11417409D02*
X10462591Y-11426933D01*
X10462591Y-11426933D02*
X10453068Y-11445980D01*
X10643544Y-11331695D02*
X10643544Y-11369790D01*
X10719734Y-11331695D02*
X10719734Y-11369790D01*
X11014972Y-11607885D02*
X11005449Y-11598361D01*
X11005449Y-11598361D02*
X10986401Y-11569790D01*
X10986401Y-11569790D02*
X10976877Y-11550742D01*
X10976877Y-11550742D02*
X10967353Y-11522171D01*
X10967353Y-11522171D02*
X10957830Y-11474552D01*
X10957830Y-11474552D02*
X10957830Y-11436457D01*
X10957830Y-11436457D02*
X10967353Y-11388837D01*
X10967353Y-11388837D02*
X10976877Y-11360266D01*
X10976877Y-11360266D02*
X10986401Y-11341218D01*
X10986401Y-11341218D02*
X11005449Y-11312647D01*
X11005449Y-11312647D02*
X11014972Y-11303123D01*
X11081639Y-11350742D02*
X11091163Y-11341218D01*
X11091163Y-11341218D02*
X11110210Y-11331695D01*
X11110210Y-11331695D02*
X11157830Y-11331695D01*
X11157830Y-11331695D02*
X11176877Y-11341218D01*
X11176877Y-11341218D02*
X11186401Y-11350742D01*
X11186401Y-11350742D02*
X11195925Y-11369790D01*
X11195925Y-11369790D02*
X11195925Y-11388837D01*
X11195925Y-11388837D02*
X11186401Y-11417409D01*
X11186401Y-11417409D02*
X11072115Y-11531695D01*
X11072115Y-11531695D02*
X11195925Y-11531695D01*
X11434020Y-11531695D02*
X11434020Y-11331695D01*
X11519734Y-11531695D02*
X11519734Y-11426933D01*
X11519734Y-11426933D02*
X11510210Y-11407885D01*
X11510210Y-11407885D02*
X11491163Y-11398361D01*
X11491163Y-11398361D02*
X11462591Y-11398361D01*
X11462591Y-11398361D02*
X11443544Y-11407885D01*
X11443544Y-11407885D02*
X11434020Y-11417409D01*
X11643544Y-11531695D02*
X11624496Y-11522171D01*
X11624496Y-11522171D02*
X11614972Y-11512647D01*
X11614972Y-11512647D02*
X11605449Y-11493599D01*
X11605449Y-11493599D02*
X11605449Y-11436457D01*
X11605449Y-11436457D02*
X11614972Y-11417409D01*
X11614972Y-11417409D02*
X11624496Y-11407885D01*
X11624496Y-11407885D02*
X11643544Y-11398361D01*
X11643544Y-11398361D02*
X11672115Y-11398361D01*
X11672115Y-11398361D02*
X11691163Y-11407885D01*
X11691163Y-11407885D02*
X11700687Y-11417409D01*
X11700687Y-11417409D02*
X11710210Y-11436457D01*
X11710210Y-11436457D02*
X11710210Y-11493599D01*
X11710210Y-11493599D02*
X11700687Y-11512647D01*
X11700687Y-11512647D02*
X11691163Y-11522171D01*
X11691163Y-11522171D02*
X11672115Y-11531695D01*
X11672115Y-11531695D02*
X11643544Y-11531695D01*
X11824496Y-11531695D02*
X11805449Y-11522171D01*
X11805449Y-11522171D02*
X11795925Y-11503123D01*
X11795925Y-11503123D02*
X11795925Y-11331695D01*
X11976877Y-11522171D02*
X11957830Y-11531695D01*
X11957830Y-11531695D02*
X11919734Y-11531695D01*
X11919734Y-11531695D02*
X11900687Y-11522171D01*
X11900687Y-11522171D02*
X11891163Y-11503123D01*
X11891163Y-11503123D02*
X11891163Y-11426933D01*
X11891163Y-11426933D02*
X11900687Y-11407885D01*
X11900687Y-11407885D02*
X11919734Y-11398361D01*
X11919734Y-11398361D02*
X11957830Y-11398361D01*
X11957830Y-11398361D02*
X11976877Y-11407885D01*
X11976877Y-11407885D02*
X11986401Y-11426933D01*
X11986401Y-11426933D02*
X11986401Y-11445980D01*
X11986401Y-11445980D02*
X11891163Y-11465028D01*
X12062591Y-11522171D02*
X12081639Y-11531695D01*
X12081639Y-11531695D02*
X12119734Y-11531695D01*
X12119734Y-11531695D02*
X12138782Y-11522171D01*
X12138782Y-11522171D02*
X12148306Y-11503123D01*
X12148306Y-11503123D02*
X12148306Y-11493599D01*
X12148306Y-11493599D02*
X12138782Y-11474552D01*
X12138782Y-11474552D02*
X12119734Y-11465028D01*
X12119734Y-11465028D02*
X12091163Y-11465028D01*
X12091163Y-11465028D02*
X12072115Y-11455504D01*
X12072115Y-11455504D02*
X12062591Y-11436457D01*
X12062591Y-11436457D02*
X12062591Y-11426933D01*
X12062591Y-11426933D02*
X12072115Y-11407885D01*
X12072115Y-11407885D02*
X12091163Y-11398361D01*
X12091163Y-11398361D02*
X12119734Y-11398361D01*
X12119734Y-11398361D02*
X12138782Y-11407885D01*
X12214972Y-11607885D02*
X12224496Y-11598361D01*
X12224496Y-11598361D02*
X12243544Y-11569790D01*
X12243544Y-11569790D02*
X12253068Y-11550742D01*
X12253068Y-11550742D02*
X12262591Y-11522171D01*
X12262591Y-11522171D02*
X12272115Y-11474552D01*
X12272115Y-11474552D02*
X12272115Y-11436457D01*
X12272115Y-11436457D02*
X12262591Y-11388837D01*
X12262591Y-11388837D02*
X12253068Y-11360266D01*
X12253068Y-11360266D02*
X12243544Y-11341218D01*
X12243544Y-11341218D02*
X12224496Y-11312647D01*
X12224496Y-11312647D02*
X12214972Y-11303123D01*
X12576877Y-11607885D02*
X12567353Y-11598361D01*
X12567353Y-11598361D02*
X12548306Y-11569790D01*
X12548306Y-11569790D02*
X12538782Y-11550742D01*
X12538782Y-11550742D02*
X12529258Y-11522171D01*
X12529258Y-11522171D02*
X12519734Y-11474552D01*
X12519734Y-11474552D02*
X12519734Y-11436457D01*
X12519734Y-11436457D02*
X12529258Y-11388837D01*
X12529258Y-11388837D02*
X12538782Y-11360266D01*
X12538782Y-11360266D02*
X12548306Y-11341218D01*
X12548306Y-11341218D02*
X12567353Y-11312647D01*
X12567353Y-11312647D02*
X12576877Y-11303123D01*
X12653068Y-11398361D02*
X12653068Y-11531695D01*
X12653068Y-11417409D02*
X12662591Y-11407885D01*
X12662591Y-11407885D02*
X12681639Y-11398361D01*
X12681639Y-11398361D02*
X12710211Y-11398361D01*
X12710211Y-11398361D02*
X12729258Y-11407885D01*
X12729258Y-11407885D02*
X12738782Y-11426933D01*
X12738782Y-11426933D02*
X12738782Y-11531695D01*
X12862591Y-11531695D02*
X12843544Y-11522171D01*
X12843544Y-11522171D02*
X12834020Y-11512647D01*
X12834020Y-11512647D02*
X12824496Y-11493599D01*
X12824496Y-11493599D02*
X12824496Y-11436457D01*
X12824496Y-11436457D02*
X12834020Y-11417409D01*
X12834020Y-11417409D02*
X12843544Y-11407885D01*
X12843544Y-11407885D02*
X12862591Y-11398361D01*
X12862591Y-11398361D02*
X12891163Y-11398361D01*
X12891163Y-11398361D02*
X12910211Y-11407885D01*
X12910211Y-11407885D02*
X12919734Y-11417409D01*
X12919734Y-11417409D02*
X12929258Y-11436457D01*
X12929258Y-11436457D02*
X12929258Y-11493599D01*
X12929258Y-11493599D02*
X12919734Y-11512647D01*
X12919734Y-11512647D02*
X12910211Y-11522171D01*
X12910211Y-11522171D02*
X12891163Y-11531695D01*
X12891163Y-11531695D02*
X12862591Y-11531695D01*
X12986401Y-11398361D02*
X13062591Y-11398361D01*
X13014972Y-11331695D02*
X13014972Y-11503123D01*
X13014972Y-11503123D02*
X13024496Y-11522171D01*
X13024496Y-11522171D02*
X13043544Y-11531695D01*
X13043544Y-11531695D02*
X13062591Y-11531695D01*
X13281639Y-11398361D02*
X13281639Y-11598361D01*
X13281639Y-11407885D02*
X13300687Y-11398361D01*
X13300687Y-11398361D02*
X13338782Y-11398361D01*
X13338782Y-11398361D02*
X13357830Y-11407885D01*
X13357830Y-11407885D02*
X13367353Y-11417409D01*
X13367353Y-11417409D02*
X13376877Y-11436457D01*
X13376877Y-11436457D02*
X13376877Y-11493599D01*
X13376877Y-11493599D02*
X13367353Y-11512647D01*
X13367353Y-11512647D02*
X13357830Y-11522171D01*
X13357830Y-11522171D02*
X13338782Y-11531695D01*
X13338782Y-11531695D02*
X13300687Y-11531695D01*
X13300687Y-11531695D02*
X13281639Y-11522171D01*
X13491163Y-11531695D02*
X13472115Y-11522171D01*
X13472115Y-11522171D02*
X13462592Y-11503123D01*
X13462592Y-11503123D02*
X13462592Y-11331695D01*
X13653068Y-11531695D02*
X13653068Y-11426933D01*
X13653068Y-11426933D02*
X13643544Y-11407885D01*
X13643544Y-11407885D02*
X13624496Y-11398361D01*
X13624496Y-11398361D02*
X13586401Y-11398361D01*
X13586401Y-11398361D02*
X13567353Y-11407885D01*
X13653068Y-11522171D02*
X13634020Y-11531695D01*
X13634020Y-11531695D02*
X13586401Y-11531695D01*
X13586401Y-11531695D02*
X13567353Y-11522171D01*
X13567353Y-11522171D02*
X13557830Y-11503123D01*
X13557830Y-11503123D02*
X13557830Y-11484076D01*
X13557830Y-11484076D02*
X13567353Y-11465028D01*
X13567353Y-11465028D02*
X13586401Y-11455504D01*
X13586401Y-11455504D02*
X13634020Y-11455504D01*
X13634020Y-11455504D02*
X13653068Y-11445980D01*
X13719734Y-11398361D02*
X13795925Y-11398361D01*
X13748306Y-11331695D02*
X13748306Y-11503123D01*
X13748306Y-11503123D02*
X13757830Y-11522171D01*
X13757830Y-11522171D02*
X13776877Y-11531695D01*
X13776877Y-11531695D02*
X13795925Y-11531695D01*
X13938782Y-11522171D02*
X13919734Y-11531695D01*
X13919734Y-11531695D02*
X13881639Y-11531695D01*
X13881639Y-11531695D02*
X13862592Y-11522171D01*
X13862592Y-11522171D02*
X13853068Y-11503123D01*
X13853068Y-11503123D02*
X13853068Y-11426933D01*
X13853068Y-11426933D02*
X13862592Y-11407885D01*
X13862592Y-11407885D02*
X13881639Y-11398361D01*
X13881639Y-11398361D02*
X13919734Y-11398361D01*
X13919734Y-11398361D02*
X13938782Y-11407885D01*
X13938782Y-11407885D02*
X13948306Y-11426933D01*
X13948306Y-11426933D02*
X13948306Y-11445980D01*
X13948306Y-11445980D02*
X13853068Y-11465028D01*
X14119734Y-11531695D02*
X14119734Y-11331695D01*
X14119734Y-11522171D02*
X14100687Y-11531695D01*
X14100687Y-11531695D02*
X14062592Y-11531695D01*
X14062592Y-11531695D02*
X14043544Y-11522171D01*
X14043544Y-11522171D02*
X14034020Y-11512647D01*
X14034020Y-11512647D02*
X14024496Y-11493599D01*
X14024496Y-11493599D02*
X14024496Y-11436457D01*
X14024496Y-11436457D02*
X14034020Y-11417409D01*
X14034020Y-11417409D02*
X14043544Y-11407885D01*
X14043544Y-11407885D02*
X14062592Y-11398361D01*
X14062592Y-11398361D02*
X14100687Y-11398361D01*
X14100687Y-11398361D02*
X14119734Y-11407885D01*
X14195925Y-11607885D02*
X14205449Y-11598361D01*
X14205449Y-11598361D02*
X14224496Y-11569790D01*
X14224496Y-11569790D02*
X14234020Y-11550742D01*
X14234020Y-11550742D02*
X14243544Y-11522171D01*
X14243544Y-11522171D02*
X14253068Y-11474552D01*
X14253068Y-11474552D02*
X14253068Y-11436457D01*
X14253068Y-11436457D02*
X14243544Y-11388837D01*
X14243544Y-11388837D02*
X14234020Y-11360266D01*
X14234020Y-11360266D02*
X14224496Y-11341218D01*
X14224496Y-11341218D02*
X14205449Y-11312647D01*
X14205449Y-11312647D02*
X14195925Y-11303123D01*
D12*
X7439909Y-11704211D02*
G75*
G02*
X7340849Y-11704211I-49530J0D01*
G01*
X7340849Y-11704211D02*
G75*
G02*
X7439909Y-11704211I49530J0D01*
G01*
D11*
X7738781Y-11595695D02*
X7757829Y-11595695D01*
X7757829Y-11595695D02*
X7776877Y-11605218D01*
X7776877Y-11605218D02*
X7786401Y-11614742D01*
X7786401Y-11614742D02*
X7795924Y-11633790D01*
X7795924Y-11633790D02*
X7805448Y-11671885D01*
X7805448Y-11671885D02*
X7805448Y-11719504D01*
X7805448Y-11719504D02*
X7795924Y-11757599D01*
X7795924Y-11757599D02*
X7786401Y-11776647D01*
X7786401Y-11776647D02*
X7776877Y-11786171D01*
X7776877Y-11786171D02*
X7757829Y-11795695D01*
X7757829Y-11795695D02*
X7738781Y-11795695D01*
X7738781Y-11795695D02*
X7719734Y-11786171D01*
X7719734Y-11786171D02*
X7710210Y-11776647D01*
X7710210Y-11776647D02*
X7700686Y-11757599D01*
X7700686Y-11757599D02*
X7691162Y-11719504D01*
X7691162Y-11719504D02*
X7691162Y-11671885D01*
X7691162Y-11671885D02*
X7700686Y-11633790D01*
X7700686Y-11633790D02*
X7710210Y-11614742D01*
X7710210Y-11614742D02*
X7719734Y-11605218D01*
X7719734Y-11605218D02*
X7738781Y-11595695D01*
X7891162Y-11776647D02*
X7900686Y-11786171D01*
X7900686Y-11786171D02*
X7891162Y-11795695D01*
X7891162Y-11795695D02*
X7881639Y-11786171D01*
X7881639Y-11786171D02*
X7891162Y-11776647D01*
X7891162Y-11776647D02*
X7891162Y-11795695D01*
X7995924Y-11795695D02*
X8034020Y-11795695D01*
X8034020Y-11795695D02*
X8053067Y-11786171D01*
X8053067Y-11786171D02*
X8062591Y-11776647D01*
X8062591Y-11776647D02*
X8081639Y-11748076D01*
X8081639Y-11748076D02*
X8091162Y-11709980D01*
X8091162Y-11709980D02*
X8091162Y-11633790D01*
X8091162Y-11633790D02*
X8081639Y-11614742D01*
X8081639Y-11614742D02*
X8072115Y-11605218D01*
X8072115Y-11605218D02*
X8053067Y-11595695D01*
X8053067Y-11595695D02*
X8014972Y-11595695D01*
X8014972Y-11595695D02*
X7995924Y-11605218D01*
X7995924Y-11605218D02*
X7986401Y-11614742D01*
X7986401Y-11614742D02*
X7976877Y-11633790D01*
X7976877Y-11633790D02*
X7976877Y-11681409D01*
X7976877Y-11681409D02*
X7986401Y-11700457D01*
X7986401Y-11700457D02*
X7995924Y-11709980D01*
X7995924Y-11709980D02*
X8014972Y-11719504D01*
X8014972Y-11719504D02*
X8053067Y-11719504D01*
X8053067Y-11719504D02*
X8072115Y-11709980D01*
X8072115Y-11709980D02*
X8081639Y-11700457D01*
X8081639Y-11700457D02*
X8091162Y-11681409D01*
X8186401Y-11795695D02*
X8224496Y-11795695D01*
X8224496Y-11795695D02*
X8243543Y-11786171D01*
X8243543Y-11786171D02*
X8253067Y-11776647D01*
X8253067Y-11776647D02*
X8272115Y-11748076D01*
X8272115Y-11748076D02*
X8281639Y-11709980D01*
X8281639Y-11709980D02*
X8281639Y-11633790D01*
X8281639Y-11633790D02*
X8272115Y-11614742D01*
X8272115Y-11614742D02*
X8262591Y-11605218D01*
X8262591Y-11605218D02*
X8243543Y-11595695D01*
X8243543Y-11595695D02*
X8205448Y-11595695D01*
X8205448Y-11595695D02*
X8186401Y-11605218D01*
X8186401Y-11605218D02*
X8176877Y-11614742D01*
X8176877Y-11614742D02*
X8167353Y-11633790D01*
X8167353Y-11633790D02*
X8167353Y-11681409D01*
X8167353Y-11681409D02*
X8176877Y-11700457D01*
X8176877Y-11700457D02*
X8186401Y-11709980D01*
X8186401Y-11709980D02*
X8205448Y-11719504D01*
X8205448Y-11719504D02*
X8243543Y-11719504D01*
X8243543Y-11719504D02*
X8262591Y-11709980D01*
X8262591Y-11709980D02*
X8272115Y-11700457D01*
X8272115Y-11700457D02*
X8281639Y-11681409D01*
X8472115Y-11795695D02*
X8357829Y-11795695D01*
X8414972Y-11795695D02*
X8414972Y-11595695D01*
X8414972Y-11595695D02*
X8395924Y-11624266D01*
X8395924Y-11624266D02*
X8376877Y-11643314D01*
X8376877Y-11643314D02*
X8357829Y-11652837D01*
X8557829Y-11795695D02*
X8557829Y-11662361D01*
X8557829Y-11681409D02*
X8567353Y-11671885D01*
X8567353Y-11671885D02*
X8586401Y-11662361D01*
X8586401Y-11662361D02*
X8614972Y-11662361D01*
X8614972Y-11662361D02*
X8634020Y-11671885D01*
X8634020Y-11671885D02*
X8643544Y-11690933D01*
X8643544Y-11690933D02*
X8643544Y-11795695D01*
X8643544Y-11690933D02*
X8653067Y-11671885D01*
X8653067Y-11671885D02*
X8672115Y-11662361D01*
X8672115Y-11662361D02*
X8700686Y-11662361D01*
X8700686Y-11662361D02*
X8719734Y-11671885D01*
X8719734Y-11671885D02*
X8729258Y-11690933D01*
X8729258Y-11690933D02*
X8729258Y-11795695D01*
X8824496Y-11795695D02*
X8824496Y-11662361D01*
X8824496Y-11681409D02*
X8834020Y-11671885D01*
X8834020Y-11671885D02*
X8853067Y-11662361D01*
X8853067Y-11662361D02*
X8881639Y-11662361D01*
X8881639Y-11662361D02*
X8900686Y-11671885D01*
X8900686Y-11671885D02*
X8910210Y-11690933D01*
X8910210Y-11690933D02*
X8910210Y-11795695D01*
X8910210Y-11690933D02*
X8919734Y-11671885D01*
X8919734Y-11671885D02*
X8938782Y-11662361D01*
X8938782Y-11662361D02*
X8967353Y-11662361D01*
X8967353Y-11662361D02*
X8986401Y-11671885D01*
X8986401Y-11671885D02*
X8995925Y-11690933D01*
X8995925Y-11690933D02*
X8995925Y-11795695D01*
X9386401Y-11586171D02*
X9214972Y-11843314D01*
X9643544Y-11595695D02*
X9662591Y-11595695D01*
X9662591Y-11595695D02*
X9681639Y-11605218D01*
X9681639Y-11605218D02*
X9691163Y-11614742D01*
X9691163Y-11614742D02*
X9700687Y-11633790D01*
X9700687Y-11633790D02*
X9710210Y-11671885D01*
X9710210Y-11671885D02*
X9710210Y-11719504D01*
X9710210Y-11719504D02*
X9700687Y-11757599D01*
X9700687Y-11757599D02*
X9691163Y-11776647D01*
X9691163Y-11776647D02*
X9681639Y-11786171D01*
X9681639Y-11786171D02*
X9662591Y-11795695D01*
X9662591Y-11795695D02*
X9643544Y-11795695D01*
X9643544Y-11795695D02*
X9624496Y-11786171D01*
X9624496Y-11786171D02*
X9614972Y-11776647D01*
X9614972Y-11776647D02*
X9605448Y-11757599D01*
X9605448Y-11757599D02*
X9595925Y-11719504D01*
X9595925Y-11719504D02*
X9595925Y-11671885D01*
X9595925Y-11671885D02*
X9605448Y-11633790D01*
X9605448Y-11633790D02*
X9614972Y-11614742D01*
X9614972Y-11614742D02*
X9624496Y-11605218D01*
X9624496Y-11605218D02*
X9643544Y-11595695D01*
X9795925Y-11776647D02*
X9805448Y-11786171D01*
X9805448Y-11786171D02*
X9795925Y-11795695D01*
X9795925Y-11795695D02*
X9786401Y-11786171D01*
X9786401Y-11786171D02*
X9795925Y-11776647D01*
X9795925Y-11776647D02*
X9795925Y-11795695D01*
X9929258Y-11595695D02*
X9948306Y-11595695D01*
X9948306Y-11595695D02*
X9967353Y-11605218D01*
X9967353Y-11605218D02*
X9976877Y-11614742D01*
X9976877Y-11614742D02*
X9986401Y-11633790D01*
X9986401Y-11633790D02*
X9995925Y-11671885D01*
X9995925Y-11671885D02*
X9995925Y-11719504D01*
X9995925Y-11719504D02*
X9986401Y-11757599D01*
X9986401Y-11757599D02*
X9976877Y-11776647D01*
X9976877Y-11776647D02*
X9967353Y-11786171D01*
X9967353Y-11786171D02*
X9948306Y-11795695D01*
X9948306Y-11795695D02*
X9929258Y-11795695D01*
X9929258Y-11795695D02*
X9910210Y-11786171D01*
X9910210Y-11786171D02*
X9900687Y-11776647D01*
X9900687Y-11776647D02*
X9891163Y-11757599D01*
X9891163Y-11757599D02*
X9881639Y-11719504D01*
X9881639Y-11719504D02*
X9881639Y-11671885D01*
X9881639Y-11671885D02*
X9891163Y-11633790D01*
X9891163Y-11633790D02*
X9900687Y-11614742D01*
X9900687Y-11614742D02*
X9910210Y-11605218D01*
X9910210Y-11605218D02*
X9929258Y-11595695D01*
X10062591Y-11595695D02*
X10186401Y-11595695D01*
X10186401Y-11595695D02*
X10119734Y-11671885D01*
X10119734Y-11671885D02*
X10148306Y-11671885D01*
X10148306Y-11671885D02*
X10167353Y-11681409D01*
X10167353Y-11681409D02*
X10176877Y-11690933D01*
X10176877Y-11690933D02*
X10186401Y-11709980D01*
X10186401Y-11709980D02*
X10186401Y-11757599D01*
X10186401Y-11757599D02*
X10176877Y-11776647D01*
X10176877Y-11776647D02*
X10167353Y-11786171D01*
X10167353Y-11786171D02*
X10148306Y-11795695D01*
X10148306Y-11795695D02*
X10091163Y-11795695D01*
X10091163Y-11795695D02*
X10072115Y-11786171D01*
X10072115Y-11786171D02*
X10062591Y-11776647D01*
X10281639Y-11795695D02*
X10319734Y-11795695D01*
X10319734Y-11795695D02*
X10338782Y-11786171D01*
X10338782Y-11786171D02*
X10348306Y-11776647D01*
X10348306Y-11776647D02*
X10367353Y-11748076D01*
X10367353Y-11748076D02*
X10376877Y-11709980D01*
X10376877Y-11709980D02*
X10376877Y-11633790D01*
X10376877Y-11633790D02*
X10367353Y-11614742D01*
X10367353Y-11614742D02*
X10357829Y-11605218D01*
X10357829Y-11605218D02*
X10338782Y-11595695D01*
X10338782Y-11595695D02*
X10300687Y-11595695D01*
X10300687Y-11595695D02*
X10281639Y-11605218D01*
X10281639Y-11605218D02*
X10272115Y-11614742D01*
X10272115Y-11614742D02*
X10262591Y-11633790D01*
X10262591Y-11633790D02*
X10262591Y-11681409D01*
X10262591Y-11681409D02*
X10272115Y-11700457D01*
X10272115Y-11700457D02*
X10281639Y-11709980D01*
X10281639Y-11709980D02*
X10300687Y-11719504D01*
X10300687Y-11719504D02*
X10338782Y-11719504D01*
X10338782Y-11719504D02*
X10357829Y-11709980D01*
X10357829Y-11709980D02*
X10367353Y-11700457D01*
X10367353Y-11700457D02*
X10376877Y-11681409D01*
X10500687Y-11595695D02*
X10519734Y-11595695D01*
X10519734Y-11595695D02*
X10538782Y-11605218D01*
X10538782Y-11605218D02*
X10548306Y-11614742D01*
X10548306Y-11614742D02*
X10557829Y-11633790D01*
X10557829Y-11633790D02*
X10567353Y-11671885D01*
X10567353Y-11671885D02*
X10567353Y-11719504D01*
X10567353Y-11719504D02*
X10557829Y-11757599D01*
X10557829Y-11757599D02*
X10548306Y-11776647D01*
X10548306Y-11776647D02*
X10538782Y-11786171D01*
X10538782Y-11786171D02*
X10519734Y-11795695D01*
X10519734Y-11795695D02*
X10500687Y-11795695D01*
X10500687Y-11795695D02*
X10481639Y-11786171D01*
X10481639Y-11786171D02*
X10472115Y-11776647D01*
X10472115Y-11776647D02*
X10462591Y-11757599D01*
X10462591Y-11757599D02*
X10453068Y-11719504D01*
X10453068Y-11719504D02*
X10453068Y-11671885D01*
X10453068Y-11671885D02*
X10462591Y-11633790D01*
X10462591Y-11633790D02*
X10472115Y-11614742D01*
X10472115Y-11614742D02*
X10481639Y-11605218D01*
X10481639Y-11605218D02*
X10500687Y-11595695D01*
X10643544Y-11595695D02*
X10643544Y-11633790D01*
X10719734Y-11595695D02*
X10719734Y-11633790D01*
X11014972Y-11871885D02*
X11005449Y-11862361D01*
X11005449Y-11862361D02*
X10986401Y-11833790D01*
X10986401Y-11833790D02*
X10976877Y-11814742D01*
X10976877Y-11814742D02*
X10967353Y-11786171D01*
X10967353Y-11786171D02*
X10957830Y-11738552D01*
X10957830Y-11738552D02*
X10957830Y-11700457D01*
X10957830Y-11700457D02*
X10967353Y-11652837D01*
X10967353Y-11652837D02*
X10976877Y-11624266D01*
X10976877Y-11624266D02*
X10986401Y-11605218D01*
X10986401Y-11605218D02*
X11005449Y-11576647D01*
X11005449Y-11576647D02*
X11014972Y-11567123D01*
X11072115Y-11595695D02*
X11195925Y-11595695D01*
X11195925Y-11595695D02*
X11129258Y-11671885D01*
X11129258Y-11671885D02*
X11157830Y-11671885D01*
X11157830Y-11671885D02*
X11176877Y-11681409D01*
X11176877Y-11681409D02*
X11186401Y-11690933D01*
X11186401Y-11690933D02*
X11195925Y-11709980D01*
X11195925Y-11709980D02*
X11195925Y-11757599D01*
X11195925Y-11757599D02*
X11186401Y-11776647D01*
X11186401Y-11776647D02*
X11176877Y-11786171D01*
X11176877Y-11786171D02*
X11157830Y-11795695D01*
X11157830Y-11795695D02*
X11100687Y-11795695D01*
X11100687Y-11795695D02*
X11081639Y-11786171D01*
X11081639Y-11786171D02*
X11072115Y-11776647D01*
X11434020Y-11795695D02*
X11434020Y-11595695D01*
X11519734Y-11795695D02*
X11519734Y-11690933D01*
X11519734Y-11690933D02*
X11510210Y-11671885D01*
X11510210Y-11671885D02*
X11491163Y-11662361D01*
X11491163Y-11662361D02*
X11462591Y-11662361D01*
X11462591Y-11662361D02*
X11443544Y-11671885D01*
X11443544Y-11671885D02*
X11434020Y-11681409D01*
X11643544Y-11795695D02*
X11624496Y-11786171D01*
X11624496Y-11786171D02*
X11614972Y-11776647D01*
X11614972Y-11776647D02*
X11605449Y-11757599D01*
X11605449Y-11757599D02*
X11605449Y-11700457D01*
X11605449Y-11700457D02*
X11614972Y-11681409D01*
X11614972Y-11681409D02*
X11624496Y-11671885D01*
X11624496Y-11671885D02*
X11643544Y-11662361D01*
X11643544Y-11662361D02*
X11672115Y-11662361D01*
X11672115Y-11662361D02*
X11691163Y-11671885D01*
X11691163Y-11671885D02*
X11700687Y-11681409D01*
X11700687Y-11681409D02*
X11710210Y-11700457D01*
X11710210Y-11700457D02*
X11710210Y-11757599D01*
X11710210Y-11757599D02*
X11700687Y-11776647D01*
X11700687Y-11776647D02*
X11691163Y-11786171D01*
X11691163Y-11786171D02*
X11672115Y-11795695D01*
X11672115Y-11795695D02*
X11643544Y-11795695D01*
X11824496Y-11795695D02*
X11805449Y-11786171D01*
X11805449Y-11786171D02*
X11795925Y-11767123D01*
X11795925Y-11767123D02*
X11795925Y-11595695D01*
X11976877Y-11786171D02*
X11957830Y-11795695D01*
X11957830Y-11795695D02*
X11919734Y-11795695D01*
X11919734Y-11795695D02*
X11900687Y-11786171D01*
X11900687Y-11786171D02*
X11891163Y-11767123D01*
X11891163Y-11767123D02*
X11891163Y-11690933D01*
X11891163Y-11690933D02*
X11900687Y-11671885D01*
X11900687Y-11671885D02*
X11919734Y-11662361D01*
X11919734Y-11662361D02*
X11957830Y-11662361D01*
X11957830Y-11662361D02*
X11976877Y-11671885D01*
X11976877Y-11671885D02*
X11986401Y-11690933D01*
X11986401Y-11690933D02*
X11986401Y-11709980D01*
X11986401Y-11709980D02*
X11891163Y-11729028D01*
X12062591Y-11786171D02*
X12081639Y-11795695D01*
X12081639Y-11795695D02*
X12119734Y-11795695D01*
X12119734Y-11795695D02*
X12138782Y-11786171D01*
X12138782Y-11786171D02*
X12148306Y-11767123D01*
X12148306Y-11767123D02*
X12148306Y-11757599D01*
X12148306Y-11757599D02*
X12138782Y-11738552D01*
X12138782Y-11738552D02*
X12119734Y-11729028D01*
X12119734Y-11729028D02*
X12091163Y-11729028D01*
X12091163Y-11729028D02*
X12072115Y-11719504D01*
X12072115Y-11719504D02*
X12062591Y-11700457D01*
X12062591Y-11700457D02*
X12062591Y-11690933D01*
X12062591Y-11690933D02*
X12072115Y-11671885D01*
X12072115Y-11671885D02*
X12091163Y-11662361D01*
X12091163Y-11662361D02*
X12119734Y-11662361D01*
X12119734Y-11662361D02*
X12138782Y-11671885D01*
X12214972Y-11871885D02*
X12224496Y-11862361D01*
X12224496Y-11862361D02*
X12243544Y-11833790D01*
X12243544Y-11833790D02*
X12253068Y-11814742D01*
X12253068Y-11814742D02*
X12262591Y-11786171D01*
X12262591Y-11786171D02*
X12272115Y-11738552D01*
X12272115Y-11738552D02*
X12272115Y-11700457D01*
X12272115Y-11700457D02*
X12262591Y-11652837D01*
X12262591Y-11652837D02*
X12253068Y-11624266D01*
X12253068Y-11624266D02*
X12243544Y-11605218D01*
X12243544Y-11605218D02*
X12224496Y-11576647D01*
X12224496Y-11576647D02*
X12214972Y-11567123D01*
X12576877Y-11871885D02*
X12567353Y-11862361D01*
X12567353Y-11862361D02*
X12548306Y-11833790D01*
X12548306Y-11833790D02*
X12538782Y-11814742D01*
X12538782Y-11814742D02*
X12529258Y-11786171D01*
X12529258Y-11786171D02*
X12519734Y-11738552D01*
X12519734Y-11738552D02*
X12519734Y-11700457D01*
X12519734Y-11700457D02*
X12529258Y-11652837D01*
X12529258Y-11652837D02*
X12538782Y-11624266D01*
X12538782Y-11624266D02*
X12548306Y-11605218D01*
X12548306Y-11605218D02*
X12567353Y-11576647D01*
X12567353Y-11576647D02*
X12576877Y-11567123D01*
X12653068Y-11662361D02*
X12653068Y-11795695D01*
X12653068Y-11681409D02*
X12662591Y-11671885D01*
X12662591Y-11671885D02*
X12681639Y-11662361D01*
X12681639Y-11662361D02*
X12710211Y-11662361D01*
X12710211Y-11662361D02*
X12729258Y-11671885D01*
X12729258Y-11671885D02*
X12738782Y-11690933D01*
X12738782Y-11690933D02*
X12738782Y-11795695D01*
X12862591Y-11795695D02*
X12843544Y-11786171D01*
X12843544Y-11786171D02*
X12834020Y-11776647D01*
X12834020Y-11776647D02*
X12824496Y-11757599D01*
X12824496Y-11757599D02*
X12824496Y-11700457D01*
X12824496Y-11700457D02*
X12834020Y-11681409D01*
X12834020Y-11681409D02*
X12843544Y-11671885D01*
X12843544Y-11671885D02*
X12862591Y-11662361D01*
X12862591Y-11662361D02*
X12891163Y-11662361D01*
X12891163Y-11662361D02*
X12910211Y-11671885D01*
X12910211Y-11671885D02*
X12919734Y-11681409D01*
X12919734Y-11681409D02*
X12929258Y-11700457D01*
X12929258Y-11700457D02*
X12929258Y-11757599D01*
X12929258Y-11757599D02*
X12919734Y-11776647D01*
X12919734Y-11776647D02*
X12910211Y-11786171D01*
X12910211Y-11786171D02*
X12891163Y-11795695D01*
X12891163Y-11795695D02*
X12862591Y-11795695D01*
X12986401Y-11662361D02*
X13062591Y-11662361D01*
X13014972Y-11595695D02*
X13014972Y-11767123D01*
X13014972Y-11767123D02*
X13024496Y-11786171D01*
X13024496Y-11786171D02*
X13043544Y-11795695D01*
X13043544Y-11795695D02*
X13062591Y-11795695D01*
X13281639Y-11662361D02*
X13281639Y-11862361D01*
X13281639Y-11671885D02*
X13300687Y-11662361D01*
X13300687Y-11662361D02*
X13338782Y-11662361D01*
X13338782Y-11662361D02*
X13357830Y-11671885D01*
X13357830Y-11671885D02*
X13367353Y-11681409D01*
X13367353Y-11681409D02*
X13376877Y-11700457D01*
X13376877Y-11700457D02*
X13376877Y-11757599D01*
X13376877Y-11757599D02*
X13367353Y-11776647D01*
X13367353Y-11776647D02*
X13357830Y-11786171D01*
X13357830Y-11786171D02*
X13338782Y-11795695D01*
X13338782Y-11795695D02*
X13300687Y-11795695D01*
X13300687Y-11795695D02*
X13281639Y-11786171D01*
X13491163Y-11795695D02*
X13472115Y-11786171D01*
X13472115Y-11786171D02*
X13462592Y-11767123D01*
X13462592Y-11767123D02*
X13462592Y-11595695D01*
X13653068Y-11795695D02*
X13653068Y-11690933D01*
X13653068Y-11690933D02*
X13643544Y-11671885D01*
X13643544Y-11671885D02*
X13624496Y-11662361D01*
X13624496Y-11662361D02*
X13586401Y-11662361D01*
X13586401Y-11662361D02*
X13567353Y-11671885D01*
X13653068Y-11786171D02*
X13634020Y-11795695D01*
X13634020Y-11795695D02*
X13586401Y-11795695D01*
X13586401Y-11795695D02*
X13567353Y-11786171D01*
X13567353Y-11786171D02*
X13557830Y-11767123D01*
X13557830Y-11767123D02*
X13557830Y-11748076D01*
X13557830Y-11748076D02*
X13567353Y-11729028D01*
X13567353Y-11729028D02*
X13586401Y-11719504D01*
X13586401Y-11719504D02*
X13634020Y-11719504D01*
X13634020Y-11719504D02*
X13653068Y-11709980D01*
X13719734Y-11662361D02*
X13795925Y-11662361D01*
X13748306Y-11595695D02*
X13748306Y-11767123D01*
X13748306Y-11767123D02*
X13757830Y-11786171D01*
X13757830Y-11786171D02*
X13776877Y-11795695D01*
X13776877Y-11795695D02*
X13795925Y-11795695D01*
X13938782Y-11786171D02*
X13919734Y-11795695D01*
X13919734Y-11795695D02*
X13881639Y-11795695D01*
X13881639Y-11795695D02*
X13862592Y-11786171D01*
X13862592Y-11786171D02*
X13853068Y-11767123D01*
X13853068Y-11767123D02*
X13853068Y-11690933D01*
X13853068Y-11690933D02*
X13862592Y-11671885D01*
X13862592Y-11671885D02*
X13881639Y-11662361D01*
X13881639Y-11662361D02*
X13919734Y-11662361D01*
X13919734Y-11662361D02*
X13938782Y-11671885D01*
X13938782Y-11671885D02*
X13948306Y-11690933D01*
X13948306Y-11690933D02*
X13948306Y-11709980D01*
X13948306Y-11709980D02*
X13853068Y-11729028D01*
X14119734Y-11795695D02*
X14119734Y-11595695D01*
X14119734Y-11786171D02*
X14100687Y-11795695D01*
X14100687Y-11795695D02*
X14062592Y-11795695D01*
X14062592Y-11795695D02*
X14043544Y-11786171D01*
X14043544Y-11786171D02*
X14034020Y-11776647D01*
X14034020Y-11776647D02*
X14024496Y-11757599D01*
X14024496Y-11757599D02*
X14024496Y-11700457D01*
X14024496Y-11700457D02*
X14034020Y-11681409D01*
X14034020Y-11681409D02*
X14043544Y-11671885D01*
X14043544Y-11671885D02*
X14062592Y-11662361D01*
X14062592Y-11662361D02*
X14100687Y-11662361D01*
X14100687Y-11662361D02*
X14119734Y-11671885D01*
X14195925Y-11871885D02*
X14205449Y-11862361D01*
X14205449Y-11862361D02*
X14224496Y-11833790D01*
X14224496Y-11833790D02*
X14234020Y-11814742D01*
X14234020Y-11814742D02*
X14243544Y-11786171D01*
X14243544Y-11786171D02*
X14253068Y-11738552D01*
X14253068Y-11738552D02*
X14253068Y-11700457D01*
X14253068Y-11700457D02*
X14243544Y-11652837D01*
X14243544Y-11652837D02*
X14234020Y-11624266D01*
X14234020Y-11624266D02*
X14224496Y-11605218D01*
X14224496Y-11605218D02*
X14205449Y-11576647D01*
X14205449Y-11576647D02*
X14195925Y-11567123D01*
M02*
